<svg width="783" height="298" viewBox="0 0 783 298" fill="none" xmlns="http://www.w3.org/2000/svg">
<rect x="112" width="671" height="298" rx="50" fill="#44301E"/>
<path d="M0 119.509C45.3947 86.7572 71.252 75.6462 118.5 76.0085V138.509C84.8393 105.49 57.5913 103.971 0 119.509Z" fill="#44301E"/>
<path d="M175.146 90.5488H176.553C178.287 90.5488 179.477 90.3613 180.121 89.9863C180.766 89.5996 181.088 88.9375 181.088 88C181.088 87.0273 180.783 86.3477 180.174 85.9609C179.576 85.5625 178.404 85.3633 176.658 85.3633H175.146V90.5488ZM168.643 106V80.2656H175.691C178.598 80.2656 180.625 80.3594 181.773 80.5469C182.934 80.7344 183.93 81.0566 184.762 81.5137C185.711 82.041 186.432 82.75 186.924 83.6406C187.428 84.5195 187.68 85.5391 187.68 86.6992C187.68 88.1641 187.305 89.3301 186.555 90.1973C185.816 91.0527 184.633 91.7031 183.004 92.1484C184.832 92.2891 186.262 92.9336 187.293 94.082C188.324 95.2188 188.84 96.7422 188.84 98.6523C188.84 100.023 188.547 101.23 187.961 102.273C187.387 103.316 186.561 104.125 185.482 104.699C184.604 105.168 183.52 105.502 182.23 105.701C180.941 105.9 178.832 106 175.902 106H168.643ZM175.146 100.744H177.607C179.271 100.744 180.449 100.539 181.141 100.129C181.832 99.707 182.178 99.0098 182.178 98.0371C182.178 96.959 181.861 96.209 181.229 95.7871C180.596 95.3535 179.424 95.1367 177.713 95.1367H175.146V100.744ZM210.848 88.2461V97.3164C210.848 99.3203 210.684 100.809 210.355 101.781C210.039 102.742 209.5 103.598 208.738 104.348C207.953 105.133 206.975 105.719 205.803 106.105C204.631 106.492 203.254 106.686 201.672 106.686C200.102 106.686 198.73 106.492 197.559 106.105C196.398 105.719 195.408 105.133 194.588 104.348C193.826 103.621 193.287 102.771 192.971 101.799C192.654 100.814 192.496 99.3203 192.496 97.3164V88.2461H198.473V97.7207C198.473 99.209 198.719 100.287 199.211 100.955C199.703 101.611 200.5 101.939 201.602 101.939C202.715 101.939 203.512 101.617 203.992 100.973C204.484 100.316 204.73 99.2324 204.73 97.7207V88.2461H210.848ZM216.314 106V92.6758H213.66V88.2461H216.314V82.9551H222.484V88.2461H225.139V92.6758H222.484V106H216.314ZM244.949 97.1406C244.949 98.5234 245.307 99.6133 246.021 100.41C246.748 101.207 247.744 101.605 249.01 101.605C250.287 101.605 251.289 101.213 252.016 100.428C252.742 99.6309 253.105 98.5352 253.105 97.1406C253.105 95.7578 252.736 94.668 251.998 93.8711C251.271 93.0742 250.275 92.6758 249.01 92.6758C247.744 92.6758 246.748 93.0742 246.021 93.8711C245.307 94.668 244.949 95.7578 244.949 97.1406ZM239.395 78.7539H245.371V88.0352C245.371 88.7852 245.354 89.4121 245.318 89.916C245.295 90.4082 245.254 90.8359 245.195 91.1992C245.922 89.9336 246.754 89.0312 247.691 88.4922C248.641 87.9531 249.871 87.6836 251.383 87.6836C253.75 87.6836 255.666 88.5566 257.131 90.3027C258.607 92.0371 259.346 94.3164 259.346 97.1406C259.346 100.059 258.602 102.379 257.113 104.102C255.637 105.824 253.656 106.686 251.172 106.686C249.953 106.686 248.846 106.393 247.85 105.807C246.854 105.209 245.957 104.312 245.16 103.117V106H239.395V78.7539ZM275.359 94.8379C275.242 93.8301 274.855 93.0215 274.199 92.4121C273.555 91.8027 272.758 91.498 271.809 91.498C270.789 91.498 269.975 91.7793 269.365 92.3418C268.768 92.8926 268.369 93.7246 268.17 94.8379H275.359ZM281.529 98.3711H268.029C268.041 99.7422 268.393 100.803 269.084 101.553C269.775 102.291 270.754 102.66 272.02 102.66C272.969 102.66 273.766 102.484 274.41 102.133C275.066 101.77 275.564 101.236 275.904 100.533L280.615 102.432C280.053 103.791 279.057 104.84 277.627 105.578C276.197 106.316 274.445 106.686 272.371 106.686C269.277 106.686 266.793 105.83 264.918 104.119C263.055 102.396 262.123 100.129 262.123 97.3164C262.123 94.5508 263.055 92.2539 264.918 90.4258C266.793 88.5977 269.16 87.6836 272.02 87.6836C274.961 87.6836 277.281 88.6094 278.98 90.4609C280.68 92.3125 281.529 94.8496 281.529 98.0723V98.3711ZM299.178 88.2461L301.797 96.0859L301.85 96.2266C302.236 97.3281 302.482 98.207 302.588 98.8633C302.658 98.4883 302.746 98.0957 302.852 97.6855C302.969 97.2754 303.133 96.748 303.344 96.1035L306.016 88.2461H312.502L305.049 106H300.619L297.982 97.9668C297.842 97.5098 297.713 97.0527 297.596 96.5957C297.49 96.127 297.391 95.6641 297.297 95.207C297.168 95.9102 296.939 96.7949 296.611 97.8613L296.576 97.9844L293.957 106H289.527L282.109 88.2461H288.561L291.215 96.1035C291.414 96.6777 291.572 97.1816 291.689 97.6152C291.807 98.0371 291.9 98.4531 291.971 98.8633C292.076 98.2773 292.305 97.4629 292.656 96.4199C292.703 96.2793 292.738 96.1738 292.762 96.1035L295.398 88.2461H299.178ZM327.602 97.1055C327.602 95.7227 327.232 94.627 326.494 93.8184C325.756 93.0098 324.748 92.6055 323.471 92.6055C322.193 92.6055 321.186 93.0098 320.447 93.8184C319.721 94.6152 319.357 95.7109 319.357 97.1055C319.357 98.4883 319.727 99.5781 320.465 100.375C321.203 101.172 322.205 101.57 323.471 101.57C324.748 101.57 325.756 101.172 326.494 100.375C327.232 99.5781 327.602 98.4883 327.602 97.1055ZM333.104 88.2461V106H327.355V103.117C326.535 104.348 325.609 105.25 324.578 105.824C323.559 106.398 322.357 106.686 320.975 106.686C318.607 106.686 316.715 105.824 315.297 104.102C313.879 102.367 313.17 100.047 313.17 97.1406C313.17 94.2461 313.908 91.9492 315.385 90.25C316.873 88.5391 318.871 87.6836 321.379 87.6836C322.715 87.6836 323.863 87.9707 324.824 88.5449C325.797 89.1074 326.629 89.9805 327.32 91.1641V88.2461H333.104ZM337.867 106V88.2461H343.773V92.4297C344.383 90.9062 345.215 89.7637 346.27 89.002C347.324 88.2402 348.602 87.8594 350.102 87.8594C350.348 87.8594 350.594 87.8711 350.84 87.8945C351.098 87.9062 351.355 87.9297 351.613 87.9648L351.016 93.6602C350.641 93.5312 350.271 93.4375 349.908 93.3789C349.545 93.3203 349.193 93.291 348.854 93.291C347.33 93.291 346.152 93.7598 345.32 94.6973C344.5 95.623 344.09 96.9414 344.09 98.6523V106H337.867ZM366.168 94.8379C366.051 93.8301 365.664 93.0215 365.008 92.4121C364.363 91.8027 363.566 91.498 362.617 91.498C361.598 91.498 360.783 91.7793 360.174 92.3418C359.576 92.8926 359.178 93.7246 358.979 94.8379H366.168ZM372.338 98.3711H358.838C358.85 99.7422 359.201 100.803 359.893 101.553C360.584 102.291 361.562 102.66 362.828 102.66C363.777 102.66 364.574 102.484 365.219 102.133C365.875 101.77 366.373 101.236 366.713 100.533L371.424 102.432C370.861 103.791 369.865 104.84 368.436 105.578C367.006 106.316 365.254 106.686 363.18 106.686C360.086 106.686 357.602 105.83 355.727 104.119C353.863 102.396 352.932 100.129 352.932 97.3164C352.932 94.5508 353.863 92.2539 355.727 90.4258C357.602 88.5977 359.969 87.6836 362.828 87.6836C365.77 87.6836 368.09 88.6094 369.789 90.4609C371.488 92.3125 372.338 94.8496 372.338 98.0723V98.3711ZM376.557 97.4395V79.0703H383.078V97.4395H376.557ZM376.275 103.117C376.275 102.121 376.609 101.277 377.277 100.586C377.957 99.8945 378.795 99.5488 379.791 99.5488C380.799 99.5488 381.643 99.8945 382.322 100.586C383.014 101.266 383.359 102.109 383.359 103.117C383.359 104.113 383.014 104.957 382.322 105.648C381.631 106.34 380.787 106.686 379.791 106.686C378.807 106.686 377.975 106.34 377.295 105.648C376.615 104.957 376.275 104.113 376.275 103.117ZM413.611 88.2461L416.23 96.0859L416.283 96.2266C416.67 97.3281 416.916 98.207 417.021 98.8633C417.092 98.4883 417.18 98.0957 417.285 97.6855C417.402 97.2754 417.566 96.748 417.777 96.1035L420.449 88.2461H426.936L419.482 106H415.053L412.416 97.9668C412.275 97.5098 412.146 97.0527 412.029 96.5957C411.924 96.127 411.824 95.6641 411.73 95.207C411.602 95.9102 411.373 96.7949 411.045 97.8613L411.01 97.9844L408.391 106H403.961L396.543 88.2461H402.994L405.648 96.1035C405.848 96.6777 406.006 97.1816 406.123 97.6152C406.24 98.0371 406.334 98.4531 406.404 98.8633C406.51 98.2773 406.738 97.4629 407.09 96.4199C407.137 96.2793 407.172 96.1738 407.195 96.1035L409.832 88.2461H413.611ZM428.535 106V88.2461H434.441V92.4297C435.051 90.9062 435.883 89.7637 436.938 89.002C437.992 88.2402 439.27 87.8594 440.77 87.8594C441.016 87.8594 441.262 87.8711 441.508 87.8945C441.766 87.9062 442.023 87.9297 442.281 87.9648L441.684 93.6602C441.309 93.5312 440.939 93.4375 440.576 93.3789C440.213 93.3203 439.861 93.291 439.521 93.291C437.998 93.291 436.82 93.7598 435.988 94.6973C435.168 95.623 434.758 96.9414 434.758 98.6523V106H428.535ZM457.205 97.1758C457.205 95.8516 456.871 94.8086 456.203 94.0469C455.535 93.2852 454.633 92.9043 453.496 92.9043C452.348 92.9043 451.439 93.2852 450.771 94.0469C450.115 94.8086 449.787 95.8516 449.787 97.1758C449.787 98.5 450.115 99.543 450.771 100.305C451.428 101.055 452.336 101.43 453.496 101.43C454.645 101.43 455.547 101.055 456.203 100.305C456.871 99.543 457.205 98.5 457.205 97.1758ZM463.428 97.1758C463.428 98.4531 463.176 99.666 462.672 100.814C462.18 101.963 461.459 102.994 460.51 103.908C459.549 104.822 458.471 105.514 457.275 105.982C456.092 106.451 454.832 106.686 453.496 106.686C452.137 106.686 450.859 106.451 449.664 105.982C448.48 105.514 447.42 104.822 446.482 103.908C445.545 103.018 444.83 101.998 444.338 100.85C443.846 99.6895 443.6 98.4648 443.6 97.1758C443.6 95.875 443.84 94.6504 444.32 93.502C444.812 92.3535 445.533 91.3223 446.482 90.4082C447.408 89.5059 448.463 88.8262 449.646 88.3691C450.842 87.9121 452.125 87.6836 453.496 87.6836C454.867 87.6836 456.145 87.9121 457.328 88.3691C458.512 88.8262 459.572 89.5059 460.51 90.4082C461.471 91.334 462.197 92.3711 462.689 93.5195C463.182 94.668 463.428 95.8867 463.428 97.1758ZM467.031 106V88.2461H472.762V91.8496C473.594 90.4082 474.555 89.3535 475.645 88.6855C476.734 88.0176 478.041 87.6836 479.564 87.6836C480.713 87.6836 481.732 87.8711 482.623 88.2461C483.525 88.6094 484.258 89.1367 484.82 89.8281C485.289 90.4258 485.623 91.1523 485.822 92.0078C486.021 92.8633 486.121 94.1406 486.121 95.8398V106H479.846V96.4902C479.846 95.0723 479.611 94.041 479.143 93.3965C478.686 92.752 477.947 92.4297 476.928 92.4297C475.627 92.4297 474.678 92.9102 474.08 93.8711C473.482 94.832 473.184 96.3906 473.184 98.5469V106H467.031ZM504.086 97.0703C504.086 95.6992 503.717 94.627 502.979 93.8535C502.252 93.0684 501.244 92.6758 499.955 92.6758C498.654 92.6758 497.629 93.0684 496.879 93.8535C496.141 94.627 495.771 95.6992 495.771 97.0703C495.771 98.4297 496.141 99.502 496.879 100.287C497.629 101.072 498.654 101.465 499.955 101.465C501.232 101.465 502.24 101.072 502.979 100.287C503.717 99.502 504.086 98.4297 504.086 97.0703ZM509.588 88.2461V105.965C509.588 108.648 508.768 110.629 507.127 111.906C505.498 113.195 502.973 113.84 499.551 113.84C496.785 113.84 494.617 113.324 493.047 112.293C491.477 111.273 490.645 109.826 490.551 107.951H497.037C497.131 108.502 497.436 108.93 497.951 109.234C498.479 109.551 499.17 109.709 500.025 109.709C501.373 109.709 502.299 109.381 502.803 108.725C503.318 108.08 503.576 106.715 503.576 104.629V103.012C502.92 104.125 502.082 104.957 501.062 105.508C500.043 106.047 498.83 106.316 497.424 106.316C495.08 106.316 493.199 105.473 491.781 103.785C490.363 102.086 489.654 99.8242 489.654 97C489.654 94.1523 490.393 91.8906 491.869 90.2148C493.357 88.5273 495.355 87.6836 497.863 87.6836C499.188 87.6836 500.33 87.959 501.291 88.5098C502.264 89.0605 503.102 89.9219 503.805 91.0938V88.2461H509.588ZM538.346 94.082C537.736 93.543 537.15 93.1504 536.588 92.9043C536.025 92.6582 535.434 92.5352 534.812 92.5352C533.57 92.5352 532.58 92.9453 531.842 93.7656C531.115 94.5859 530.752 95.6992 530.752 97.1055C530.752 98.4648 531.133 99.5488 531.895 100.357C532.656 101.166 533.682 101.57 534.971 101.57C535.604 101.57 536.195 101.447 536.746 101.201C537.309 100.943 537.842 100.551 538.346 100.023V105.455C537.596 105.877 536.846 106.188 536.096 106.387C535.346 106.586 534.572 106.686 533.775 106.686C531.045 106.686 528.83 105.812 527.131 104.066C525.443 102.309 524.6 100 524.6 97.1406C524.6 94.3633 525.461 92.0957 527.184 90.3379C528.918 88.5684 531.139 87.6836 533.846 87.6836C534.748 87.6836 535.562 87.7715 536.289 87.9473C537.016 88.123 537.701 88.4043 538.346 88.791V94.082ZM542.195 106V78.7539H548.348V88.3164C548.348 88.9492 548.33 89.5352 548.295 90.0742C548.26 90.6133 548.207 91.0996 548.137 91.5332C548.922 90.209 549.848 89.2363 550.914 88.6152C551.98 87.9941 553.252 87.6836 554.729 87.6836C555.877 87.6836 556.896 87.8711 557.787 88.2461C558.689 88.6094 559.422 89.1367 559.984 89.8281C560.453 90.4258 560.787 91.1523 560.986 92.0078C561.186 92.8633 561.285 94.1406 561.285 95.8398V106H555.01V96.4902C555.01 95.0723 554.775 94.041 554.307 93.3965C553.85 92.752 553.111 92.4297 552.092 92.4297C550.791 92.4297 549.842 92.9102 549.244 93.8711C548.646 94.832 548.348 96.3906 548.348 98.5469V106H542.195ZM578.318 97.1758C578.318 95.8516 577.984 94.8086 577.316 94.0469C576.648 93.2852 575.746 92.9043 574.609 92.9043C573.461 92.9043 572.553 93.2852 571.885 94.0469C571.229 94.8086 570.9 95.8516 570.9 97.1758C570.9 98.5 571.229 99.543 571.885 100.305C572.541 101.055 573.449 101.43 574.609 101.43C575.758 101.43 576.66 101.055 577.316 100.305C577.984 99.543 578.318 98.5 578.318 97.1758ZM584.541 97.1758C584.541 98.4531 584.289 99.666 583.785 100.814C583.293 101.963 582.572 102.994 581.623 103.908C580.662 104.822 579.584 105.514 578.389 105.982C577.205 106.451 575.945 106.686 574.609 106.686C573.25 106.686 571.973 106.451 570.777 105.982C569.594 105.514 568.533 104.822 567.596 103.908C566.658 103.018 565.943 101.998 565.451 100.85C564.959 99.6895 564.713 98.4648 564.713 97.1758C564.713 95.875 564.953 94.6504 565.434 93.502C565.926 92.3535 566.646 91.3223 567.596 90.4082C568.521 89.5059 569.576 88.8262 570.76 88.3691C571.955 87.9121 573.238 87.6836 574.609 87.6836C575.98 87.6836 577.258 87.9121 578.441 88.3691C579.625 88.8262 580.686 89.5059 581.623 90.4082C582.584 91.334 583.311 92.3711 583.803 93.5195C584.295 94.668 584.541 95.8867 584.541 97.1758ZM588.004 82.709C588.004 81.7598 588.338 80.9512 589.006 80.2832C589.686 79.6152 590.5 79.2812 591.449 79.2812C592.434 79.2812 593.254 79.6094 593.91 80.2656C594.578 80.9219 594.912 81.7363 594.912 82.709C594.912 83.6816 594.572 84.5078 593.893 85.1875C593.225 85.8672 592.41 86.207 591.449 86.207C590.512 86.207 589.703 85.8613 589.023 85.1699C588.344 84.4785 588.004 83.6582 588.004 82.709ZM588.32 106V88.2461H594.596V106H588.32ZM612.139 94.082C611.529 93.543 610.943 93.1504 610.381 92.9043C609.818 92.6582 609.227 92.5352 608.605 92.5352C607.363 92.5352 606.373 92.9453 605.635 93.7656C604.908 94.5859 604.545 95.6992 604.545 97.1055C604.545 98.4648 604.926 99.5488 605.688 100.357C606.449 101.166 607.475 101.57 608.764 101.57C609.396 101.57 609.988 101.447 610.539 101.201C611.102 100.943 611.635 100.551 612.139 100.023V105.455C611.389 105.877 610.639 106.188 609.889 106.387C609.139 106.586 608.365 106.686 607.568 106.686C604.838 106.686 602.623 105.812 600.924 104.066C599.236 102.309 598.393 100 598.393 97.1406C598.393 94.3633 599.254 92.0957 600.977 90.3379C602.711 88.5684 604.932 87.6836 607.639 87.6836C608.541 87.6836 609.355 87.7715 610.082 87.9473C610.809 88.123 611.494 88.4043 612.139 88.791V94.082ZM628.223 94.8379C628.105 93.8301 627.719 93.0215 627.062 92.4121C626.418 91.8027 625.621 91.498 624.672 91.498C623.652 91.498 622.838 91.7793 622.229 92.3418C621.631 92.8926 621.232 93.7246 621.033 94.8379H628.223ZM634.393 98.3711H620.893C620.904 99.7422 621.256 100.803 621.947 101.553C622.639 102.291 623.617 102.66 624.883 102.66C625.832 102.66 626.629 102.484 627.273 102.133C627.93 101.77 628.428 101.236 628.768 100.533L633.479 102.432C632.916 103.791 631.92 104.84 630.49 105.578C629.061 106.316 627.309 106.686 625.234 106.686C622.141 106.686 619.656 105.83 617.781 104.119C615.918 102.396 614.986 100.129 614.986 97.3164C614.986 94.5508 615.918 92.2539 617.781 90.4258C619.656 88.5977 622.023 87.6836 624.883 87.6836C627.824 87.6836 630.145 88.6094 631.844 90.4609C633.543 92.3125 634.393 94.8496 634.393 98.0723V98.3711ZM636.344 104.523L637.645 99.7422C638.559 100.539 639.561 101.154 640.65 101.588C641.752 102.01 642.859 102.221 643.973 102.221C644.758 102.221 645.355 102.098 645.766 101.852C646.176 101.594 646.381 101.225 646.381 100.744C646.381 99.959 645.555 99.373 643.902 98.9863C643.363 98.8574 642.93 98.7461 642.602 98.6523C640.727 98.1367 639.361 97.4629 638.506 96.6309C637.662 95.7871 637.24 94.6973 637.24 93.3613C637.24 91.6387 637.885 90.2617 639.174 89.2305C640.475 88.1992 642.232 87.6836 644.447 87.6836C645.584 87.6836 646.738 87.8184 647.91 88.0879C649.094 88.3457 650.301 88.75 651.531 89.3008L650.23 93.6074C649.398 93.0449 648.555 92.6172 647.699 92.3242C646.844 92.0312 645.988 91.8848 645.133 91.8848C644.418 91.8848 643.879 91.9961 643.516 92.2188C643.152 92.4414 642.971 92.7637 642.971 93.1855C642.971 93.8184 643.791 94.3516 645.432 94.7852C645.807 94.8906 646.088 94.9668 646.275 95.0137C648.443 95.6348 649.949 96.3672 650.793 97.2109C651.648 98.043 652.076 99.1738 652.076 100.604C652.076 102.42 651.379 103.891 649.984 105.016C648.59 106.129 646.744 106.686 644.447 106.686C642.889 106.686 641.441 106.504 640.105 106.141C638.77 105.789 637.516 105.25 636.344 104.523ZM680.764 88.2461L683.383 96.0859L683.436 96.2266C683.822 97.3281 684.068 98.207 684.174 98.8633C684.244 98.4883 684.332 98.0957 684.438 97.6855C684.555 97.2754 684.719 96.748 684.93 96.1035L687.602 88.2461H694.088L686.635 106H682.205L679.568 97.9668C679.428 97.5098 679.299 97.0527 679.182 96.5957C679.076 96.127 678.977 95.6641 678.883 95.207C678.754 95.9102 678.525 96.7949 678.197 97.8613L678.162 97.9844L675.543 106H671.113L663.695 88.2461H670.146L672.801 96.1035C673 96.6777 673.158 97.1816 673.275 97.6152C673.393 98.0371 673.486 98.4531 673.557 98.8633C673.662 98.2773 673.891 97.4629 674.242 96.4199C674.289 96.2793 674.324 96.1738 674.348 96.1035L676.984 88.2461H680.764ZM695.512 82.709C695.512 81.7598 695.846 80.9512 696.514 80.2832C697.193 79.6152 698.008 79.2812 698.957 79.2812C699.941 79.2812 700.762 79.6094 701.418 80.2656C702.086 80.9219 702.42 81.7363 702.42 82.709C702.42 83.6816 702.08 84.5078 701.4 85.1875C700.732 85.8672 699.918 86.207 698.957 86.207C698.02 86.207 697.211 85.8613 696.531 85.1699C695.852 84.4785 695.512 83.6582 695.512 82.709ZM695.828 106V88.2461H702.104V106H695.828ZM707.078 106V78.7539H713.354V106H707.078ZM718.328 106V78.7539H724.604V106H718.328ZM187.029 140.176C187.029 141.559 187.387 142.648 188.102 143.445C188.828 144.242 189.824 144.641 191.09 144.641C192.355 144.641 193.352 144.242 194.078 143.445C194.816 142.648 195.186 141.559 195.186 140.176C195.186 138.793 194.822 137.703 194.096 136.906C193.369 136.109 192.367 135.711 191.09 135.711C189.824 135.711 188.828 136.109 188.102 136.906C187.387 137.703 187.029 138.793 187.029 140.176ZM181.475 156.84V131.246H187.24V134.234C188.037 133.039 188.934 132.148 189.93 131.562C190.926 130.977 192.033 130.684 193.252 130.684C195.748 130.684 197.734 131.539 199.211 133.25C200.688 134.949 201.426 137.258 201.426 140.176C201.426 143.012 200.688 145.309 199.211 147.066C197.746 148.812 195.83 149.686 193.463 149.686C191.963 149.686 190.738 149.41 189.789 148.859C188.852 148.309 188.014 147.4 187.275 146.135C187.334 146.486 187.375 146.914 187.398 147.418C187.434 147.922 187.451 148.543 187.451 149.281V156.84H181.475ZM223.416 131.246V140.316C223.416 142.32 223.252 143.809 222.924 144.781C222.607 145.742 222.068 146.598 221.307 147.348C220.521 148.133 219.543 148.719 218.371 149.105C217.199 149.492 215.822 149.686 214.24 149.686C212.67 149.686 211.299 149.492 210.127 149.105C208.967 148.719 207.977 148.133 207.156 147.348C206.395 146.621 205.855 145.771 205.539 144.799C205.223 143.814 205.064 142.32 205.064 140.316V131.246H211.041V140.721C211.041 142.209 211.287 143.287 211.779 143.955C212.271 144.611 213.068 144.939 214.17 144.939C215.283 144.939 216.08 144.617 216.561 143.973C217.053 143.316 217.299 142.232 217.299 140.721V131.246H223.416ZM228.883 149V135.676H226.229V131.246H228.883V125.955H235.053V131.246H237.707V135.676H235.053V149H228.883ZM250.961 156.84L255.953 146.293L248.799 131.246H255.742L258.221 137.662C258.432 138.201 258.607 138.705 258.748 139.174C258.889 139.631 258.994 140.059 259.064 140.457C259.135 140.035 259.234 139.602 259.363 139.156C259.504 138.699 259.68 138.201 259.891 137.662L262.404 131.246H269.102L257.939 156.84H250.961ZM283.691 140.176C283.691 138.852 283.357 137.809 282.689 137.047C282.021 136.285 281.119 135.904 279.982 135.904C278.834 135.904 277.926 136.285 277.258 137.047C276.602 137.809 276.273 138.852 276.273 140.176C276.273 141.5 276.602 142.543 277.258 143.305C277.914 144.055 278.822 144.43 279.982 144.43C281.131 144.43 282.033 144.055 282.689 143.305C283.357 142.543 283.691 141.5 283.691 140.176ZM289.914 140.176C289.914 141.453 289.662 142.666 289.158 143.814C288.666 144.963 287.945 145.994 286.996 146.908C286.035 147.822 284.957 148.514 283.762 148.982C282.578 149.451 281.318 149.686 279.982 149.686C278.623 149.686 277.346 149.451 276.15 148.982C274.967 148.514 273.906 147.822 272.969 146.908C272.031 146.018 271.316 144.998 270.824 143.85C270.332 142.689 270.086 141.465 270.086 140.176C270.086 138.875 270.326 137.65 270.807 136.502C271.299 135.354 272.02 134.322 272.969 133.408C273.895 132.506 274.949 131.826 276.133 131.369C277.328 130.912 278.611 130.684 279.982 130.684C281.354 130.684 282.631 130.912 283.814 131.369C284.998 131.826 286.059 132.506 286.996 133.408C287.957 134.334 288.684 135.371 289.176 136.52C289.668 137.668 289.914 138.887 289.914 140.176ZM311.729 131.246V140.316C311.729 142.32 311.564 143.809 311.236 144.781C310.92 145.742 310.381 146.598 309.619 147.348C308.834 148.133 307.855 148.719 306.684 149.105C305.512 149.492 304.135 149.686 302.553 149.686C300.982 149.686 299.611 149.492 298.439 149.105C297.279 148.719 296.289 148.133 295.469 147.348C294.707 146.621 294.168 145.771 293.852 144.799C293.535 143.814 293.377 142.32 293.377 140.316V131.246H299.354V140.721C299.354 142.209 299.6 143.287 300.092 143.955C300.584 144.611 301.381 144.939 302.482 144.939C303.596 144.939 304.393 144.617 304.873 143.973C305.365 143.316 305.611 142.232 305.611 140.721V131.246H311.729ZM327.373 125.709C327.373 124.76 327.707 123.951 328.375 123.283C329.055 122.615 329.869 122.281 330.818 122.281C331.803 122.281 332.623 122.609 333.279 123.266C333.947 123.922 334.281 124.736 334.281 125.709C334.281 126.682 333.941 127.508 333.262 128.188C332.594 128.867 331.779 129.207 330.818 129.207C329.881 129.207 329.072 128.861 328.393 128.17C327.713 127.479 327.373 126.658 327.373 125.709ZM327.689 149V131.246H333.965V149H327.689ZM338.764 149V131.246H344.494V134.85C345.326 133.408 346.287 132.354 347.377 131.686C348.467 131.018 349.773 130.684 351.297 130.684C352.445 130.684 353.465 130.871 354.355 131.246C355.258 131.609 355.99 132.137 356.553 132.828C357.021 133.426 357.355 134.152 357.555 135.008C357.754 135.863 357.854 137.141 357.854 138.84V149H351.578V139.49C351.578 138.072 351.344 137.041 350.875 136.396C350.418 135.752 349.68 135.43 348.66 135.43C347.359 135.43 346.41 135.91 345.812 136.871C345.215 137.832 344.916 139.391 344.916 141.547V149H338.764ZM387.139 140.141C387.139 138.758 386.77 137.668 386.031 136.871C385.305 136.074 384.309 135.676 383.043 135.676C381.777 135.676 380.781 136.074 380.055 136.871C379.328 137.668 378.965 138.758 378.965 140.141C378.965 141.535 379.322 142.631 380.037 143.428C380.764 144.213 381.766 144.605 383.043 144.605C384.309 144.605 385.305 144.207 386.031 143.41C386.77 142.613 387.139 141.523 387.139 140.141ZM392.693 121.754V149H386.928V146.117C386.131 147.312 385.234 148.209 384.238 148.807C383.242 149.393 382.135 149.686 380.916 149.686C378.42 149.686 376.434 148.824 374.957 147.102C373.48 145.379 372.742 143.059 372.742 140.141C372.742 137.316 373.475 135.037 374.939 133.303C376.416 131.557 378.338 130.684 380.705 130.684C382.205 130.684 383.424 130.953 384.361 131.492C385.311 132.031 386.154 132.934 386.893 134.199C386.822 133.777 386.77 133.303 386.734 132.775C386.699 132.236 386.682 131.656 386.682 131.035V121.754H392.693ZM410.869 140.105C410.869 138.723 410.5 137.627 409.762 136.818C409.023 136.01 408.016 135.605 406.738 135.605C405.461 135.605 404.453 136.01 403.715 136.818C402.988 137.615 402.625 138.711 402.625 140.105C402.625 141.488 402.994 142.578 403.732 143.375C404.471 144.172 405.473 144.57 406.738 144.57C408.016 144.57 409.023 144.172 409.762 143.375C410.5 142.578 410.869 141.488 410.869 140.105ZM416.371 131.246V149H410.623V146.117C409.803 147.348 408.877 148.25 407.846 148.824C406.826 149.398 405.625 149.686 404.242 149.686C401.875 149.686 399.982 148.824 398.564 147.102C397.146 145.367 396.438 143.047 396.438 140.141C396.438 137.246 397.176 134.949 398.652 133.25C400.141 131.539 402.139 130.684 404.646 130.684C405.982 130.684 407.131 130.971 408.092 131.545C409.064 132.107 409.896 132.98 410.588 134.164V131.246H416.371ZM421.1 149V131.246H426.83V134.85C427.662 133.408 428.623 132.354 429.713 131.686C430.803 131.018 432.109 130.684 433.633 130.684C434.781 130.684 435.801 130.871 436.691 131.246C437.594 131.609 438.326 132.137 438.889 132.828C439.357 133.426 439.691 134.152 439.891 135.008C440.09 135.863 440.189 137.141 440.189 138.84V149H433.914V139.49C433.914 138.072 433.68 137.041 433.211 136.396C432.754 135.752 432.016 135.43 430.996 135.43C429.695 135.43 428.746 135.91 428.148 136.871C427.551 137.832 427.252 139.391 427.252 141.547V149H421.1ZM458.154 140.07C458.154 138.699 457.785 137.627 457.047 136.854C456.32 136.068 455.312 135.676 454.023 135.676C452.723 135.676 451.697 136.068 450.947 136.854C450.209 137.627 449.84 138.699 449.84 140.07C449.84 141.43 450.209 142.502 450.947 143.287C451.697 144.072 452.723 144.465 454.023 144.465C455.301 144.465 456.309 144.072 457.047 143.287C457.785 142.502 458.154 141.43 458.154 140.07ZM463.656 131.246V148.965C463.656 151.648 462.836 153.629 461.195 154.906C459.566 156.195 457.041 156.84 453.619 156.84C450.854 156.84 448.686 156.324 447.115 155.293C445.545 154.273 444.713 152.826 444.619 150.951H451.105C451.199 151.502 451.504 151.93 452.02 152.234C452.547 152.551 453.238 152.709 454.094 152.709C455.441 152.709 456.367 152.381 456.871 151.725C457.387 151.08 457.645 149.715 457.645 147.629V146.012C456.988 147.125 456.15 147.957 455.131 148.508C454.111 149.047 452.898 149.316 451.492 149.316C449.148 149.316 447.268 148.473 445.85 146.785C444.432 145.086 443.723 142.824 443.723 140C443.723 137.152 444.461 134.891 445.938 133.215C447.426 131.527 449.424 130.684 451.932 130.684C453.256 130.684 454.398 130.959 455.359 131.51C456.332 132.061 457.17 132.922 457.873 134.094V131.246H463.656ZM480.619 137.838C480.502 136.83 480.115 136.021 479.459 135.412C478.814 134.803 478.018 134.498 477.068 134.498C476.049 134.498 475.234 134.779 474.625 135.342C474.027 135.893 473.629 136.725 473.43 137.838H480.619ZM486.789 141.371H473.289C473.301 142.742 473.652 143.803 474.344 144.553C475.035 145.291 476.014 145.66 477.279 145.66C478.229 145.66 479.025 145.484 479.67 145.133C480.326 144.77 480.824 144.236 481.164 143.533L485.875 145.432C485.312 146.791 484.316 147.84 482.887 148.578C481.457 149.316 479.705 149.686 477.631 149.686C474.537 149.686 472.053 148.83 470.178 147.119C468.314 145.396 467.383 143.129 467.383 140.316C467.383 137.551 468.314 135.254 470.178 133.426C472.053 131.598 474.42 130.684 477.279 130.684C480.221 130.684 482.541 131.609 484.24 133.461C485.939 135.312 486.789 137.85 486.789 141.072V141.371ZM490.428 149V131.246H496.334V135.43C496.943 133.906 497.775 132.764 498.83 132.002C499.885 131.24 501.162 130.859 502.662 130.859C502.908 130.859 503.154 130.871 503.4 130.895C503.658 130.906 503.916 130.93 504.174 130.965L503.576 136.66C503.201 136.531 502.832 136.438 502.469 136.379C502.105 136.32 501.754 136.291 501.414 136.291C499.891 136.291 498.713 136.76 497.881 137.697C497.061 138.623 496.65 139.941 496.65 141.652V149H490.428ZM504.789 143.164H511.328L505.896 154.186H501.045L504.789 143.164ZM538.943 140.105C538.943 138.723 538.574 137.627 537.836 136.818C537.098 136.01 536.09 135.605 534.812 135.605C533.535 135.605 532.527 136.01 531.789 136.818C531.062 137.615 530.699 138.711 530.699 140.105C530.699 141.488 531.068 142.578 531.807 143.375C532.545 144.172 533.547 144.57 534.812 144.57C536.09 144.57 537.098 144.172 537.836 143.375C538.574 142.578 538.943 141.488 538.943 140.105ZM544.445 131.246V149H538.697V146.117C537.877 147.348 536.951 148.25 535.92 148.824C534.9 149.398 533.699 149.686 532.316 149.686C529.949 149.686 528.057 148.824 526.639 147.102C525.221 145.367 524.512 143.047 524.512 140.141C524.512 137.246 525.25 134.949 526.727 133.25C528.215 131.539 530.213 130.684 532.721 130.684C534.057 130.684 535.205 130.971 536.166 131.545C537.139 132.107 537.971 132.98 538.662 134.164V131.246H544.445ZM547.521 147.523L548.822 142.742C549.736 143.539 550.738 144.154 551.828 144.588C552.93 145.01 554.037 145.221 555.15 145.221C555.936 145.221 556.533 145.098 556.943 144.852C557.354 144.594 557.559 144.225 557.559 143.744C557.559 142.959 556.732 142.373 555.08 141.986C554.541 141.857 554.107 141.746 553.779 141.652C551.904 141.137 550.539 140.463 549.684 139.631C548.84 138.787 548.418 137.697 548.418 136.361C548.418 134.639 549.062 133.262 550.352 132.23C551.652 131.199 553.41 130.684 555.625 130.684C556.762 130.684 557.916 130.818 559.088 131.088C560.271 131.346 561.479 131.75 562.709 132.301L561.408 136.607C560.576 136.045 559.732 135.617 558.877 135.324C558.021 135.031 557.166 134.885 556.311 134.885C555.596 134.885 555.057 134.996 554.693 135.219C554.33 135.441 554.148 135.764 554.148 136.186C554.148 136.818 554.969 137.352 556.609 137.785C556.984 137.891 557.266 137.967 557.453 138.014C559.621 138.635 561.127 139.367 561.971 140.211C562.826 141.043 563.254 142.174 563.254 143.604C563.254 145.42 562.557 146.891 561.162 148.016C559.768 149.129 557.922 149.686 555.625 149.686C554.066 149.686 552.619 149.504 551.283 149.141C549.947 148.789 548.693 148.25 547.521 147.523ZM576.93 156.84L581.922 146.293L574.768 131.246H581.711L584.189 137.662C584.4 138.201 584.576 138.705 584.717 139.174C584.857 139.631 584.963 140.059 585.033 140.457C585.104 140.035 585.203 139.602 585.332 139.156C585.473 138.699 585.648 138.201 585.859 137.662L588.373 131.246H595.07L583.908 156.84H576.93ZM609.66 140.176C609.66 138.852 609.326 137.809 608.658 137.047C607.99 136.285 607.088 135.904 605.951 135.904C604.803 135.904 603.895 136.285 603.227 137.047C602.57 137.809 602.242 138.852 602.242 140.176C602.242 141.5 602.57 142.543 603.227 143.305C603.883 144.055 604.791 144.43 605.951 144.43C607.1 144.43 608.002 144.055 608.658 143.305C609.326 142.543 609.66 141.5 609.66 140.176ZM615.883 140.176C615.883 141.453 615.631 142.666 615.127 143.814C614.635 144.963 613.914 145.994 612.965 146.908C612.004 147.822 610.926 148.514 609.73 148.982C608.547 149.451 607.287 149.686 605.951 149.686C604.592 149.686 603.314 149.451 602.119 148.982C600.936 148.514 599.875 147.822 598.938 146.908C598 146.018 597.285 144.998 596.793 143.85C596.301 142.689 596.055 141.465 596.055 140.176C596.055 138.875 596.295 137.65 596.775 136.502C597.268 135.354 597.988 134.322 598.938 133.408C599.863 132.506 600.918 131.826 602.102 131.369C603.297 130.912 604.58 130.684 605.951 130.684C607.322 130.684 608.6 130.912 609.783 131.369C610.967 131.826 612.027 132.506 612.965 133.408C613.926 134.334 614.652 135.371 615.145 136.52C615.637 137.668 615.883 138.887 615.883 140.176ZM637.697 131.246V140.316C637.697 142.32 637.533 143.809 637.205 144.781C636.889 145.742 636.35 146.598 635.588 147.348C634.803 148.133 633.824 148.719 632.652 149.105C631.48 149.492 630.104 149.686 628.521 149.686C626.951 149.686 625.58 149.492 624.408 149.105C623.248 148.719 622.258 148.133 621.438 147.348C620.676 146.621 620.137 145.771 619.82 144.799C619.504 143.814 619.346 142.32 619.346 140.316V131.246H625.322V140.721C625.322 142.209 625.568 143.287 626.061 143.955C626.553 144.611 627.35 144.939 628.451 144.939C629.564 144.939 630.361 144.617 630.842 143.973C631.334 143.316 631.58 142.232 631.58 140.721V131.246H637.697ZM667.527 131.246L670.146 139.086L670.199 139.227C670.586 140.328 670.832 141.207 670.938 141.863C671.008 141.488 671.096 141.096 671.201 140.686C671.318 140.275 671.482 139.748 671.693 139.104L674.365 131.246H680.852L673.398 149H668.969L666.332 140.967C666.191 140.51 666.062 140.053 665.945 139.596C665.84 139.127 665.74 138.664 665.646 138.207C665.518 138.91 665.289 139.795 664.961 140.861L664.926 140.984L662.307 149H657.877L650.459 131.246H656.91L659.564 139.104C659.764 139.678 659.922 140.182 660.039 140.615C660.156 141.037 660.25 141.453 660.32 141.863C660.426 141.277 660.654 140.463 661.006 139.42C661.053 139.279 661.088 139.174 661.111 139.104L663.748 131.246H667.527ZM682.275 125.709C682.275 124.76 682.609 123.951 683.277 123.283C683.957 122.615 684.771 122.281 685.721 122.281C686.705 122.281 687.525 122.609 688.182 123.266C688.85 123.922 689.184 124.736 689.184 125.709C689.184 126.682 688.844 127.508 688.164 128.188C687.496 128.867 686.682 129.207 685.721 129.207C684.783 129.207 683.975 128.861 683.295 128.17C682.615 127.479 682.275 126.658 682.275 125.709ZM682.592 149V131.246H688.867V149H682.592ZM693.842 149V121.754H700.117V149H693.842ZM705.092 149V121.754H711.367V149H705.092ZM158.148 192V178.676H155.477V174.246H158.148V170.607C158.148 168.545 158.711 166.992 159.836 165.949C160.961 164.906 162.643 164.385 164.881 164.385C165.197 164.385 165.572 164.414 166.006 164.473C166.451 164.531 166.926 164.613 167.43 164.719V169.5C167.148 169.395 166.885 169.318 166.639 169.271C166.404 169.213 166.188 169.184 165.988 169.184C165.402 169.184 164.975 169.359 164.705 169.711C164.436 170.062 164.301 170.631 164.301 171.416V174.246H167.43V178.676H164.301V192H158.148ZM183.725 183.105C183.725 181.723 183.355 180.627 182.617 179.818C181.879 179.01 180.871 178.605 179.594 178.605C178.316 178.605 177.309 179.01 176.57 179.818C175.844 180.615 175.48 181.711 175.48 183.105C175.48 184.488 175.85 185.578 176.588 186.375C177.326 187.172 178.328 187.57 179.594 187.57C180.871 187.57 181.879 187.172 182.617 186.375C183.355 185.578 183.725 184.488 183.725 183.105ZM189.227 174.246V192H183.479V189.117C182.658 190.348 181.732 191.25 180.701 191.824C179.682 192.398 178.48 192.686 177.098 192.686C174.73 192.686 172.838 191.824 171.42 190.102C170.002 188.367 169.293 186.047 169.293 183.141C169.293 180.246 170.031 177.949 171.508 176.25C172.996 174.539 174.994 173.684 177.502 173.684C178.838 173.684 179.986 173.971 180.947 174.545C181.92 175.107 182.752 175.98 183.443 177.164V174.246H189.227ZM206.699 180.082C206.09 179.543 205.504 179.15 204.941 178.904C204.379 178.658 203.787 178.535 203.166 178.535C201.924 178.535 200.934 178.945 200.195 179.766C199.469 180.586 199.105 181.699 199.105 183.105C199.105 184.465 199.486 185.549 200.248 186.357C201.01 187.166 202.035 187.57 203.324 187.57C203.957 187.57 204.549 187.447 205.1 187.201C205.662 186.943 206.195 186.551 206.699 186.023V191.455C205.949 191.877 205.199 192.188 204.449 192.387C203.699 192.586 202.926 192.686 202.129 192.686C199.398 192.686 197.184 191.812 195.484 190.066C193.797 188.309 192.953 186 192.953 183.141C192.953 180.363 193.814 178.096 195.537 176.338C197.271 174.568 199.492 173.684 202.199 173.684C203.102 173.684 203.916 173.771 204.643 173.947C205.369 174.123 206.055 174.404 206.699 174.791V180.082ZM222.783 180.838C222.666 179.83 222.279 179.021 221.623 178.412C220.979 177.803 220.182 177.498 219.232 177.498C218.213 177.498 217.398 177.779 216.789 178.342C216.191 178.893 215.793 179.725 215.594 180.838H222.783ZM228.953 184.371H215.453C215.465 185.742 215.816 186.803 216.508 187.553C217.199 188.291 218.178 188.66 219.443 188.66C220.393 188.66 221.189 188.484 221.834 188.133C222.49 187.77 222.988 187.236 223.328 186.533L228.039 188.432C227.477 189.791 226.48 190.84 225.051 191.578C223.621 192.316 221.869 192.686 219.795 192.686C216.701 192.686 214.217 191.83 212.342 190.119C210.479 188.396 209.547 186.129 209.547 183.316C209.547 180.551 210.479 178.254 212.342 176.426C214.217 174.598 216.584 173.684 219.443 173.684C222.385 173.684 224.705 174.609 226.404 176.461C228.104 178.312 228.953 180.85 228.953 184.072V184.371ZM244.809 192V178.676H242.154V174.246H244.809V168.955H250.979V174.246H253.633V178.676H250.979V192H244.809ZM256.568 192V164.754H262.721V174.316C262.721 174.949 262.703 175.535 262.668 176.074C262.633 176.613 262.58 177.1 262.51 177.533C263.295 176.209 264.221 175.236 265.287 174.615C266.354 173.994 267.625 173.684 269.102 173.684C270.25 173.684 271.27 173.871 272.16 174.246C273.062 174.609 273.795 175.137 274.357 175.828C274.826 176.426 275.16 177.152 275.359 178.008C275.559 178.863 275.658 180.141 275.658 181.84V192H269.383V182.49C269.383 181.072 269.148 180.041 268.68 179.396C268.223 178.752 267.484 178.43 266.465 178.43C265.164 178.43 264.215 178.91 263.617 179.871C263.02 180.832 262.721 182.391 262.721 184.547V192H256.568ZM292.322 180.838C292.205 179.83 291.818 179.021 291.162 178.412C290.518 177.803 289.721 177.498 288.771 177.498C287.752 177.498 286.938 177.779 286.328 178.342C285.73 178.893 285.332 179.725 285.133 180.838H292.322ZM298.492 184.371H284.992C285.004 185.742 285.355 186.803 286.047 187.553C286.738 188.291 287.717 188.66 288.982 188.66C289.932 188.66 290.729 188.484 291.373 188.133C292.029 187.77 292.527 187.236 292.867 186.533L297.578 188.432C297.016 189.791 296.02 190.84 294.59 191.578C293.16 192.316 291.408 192.686 289.334 192.686C286.24 192.686 283.756 191.83 281.881 190.119C280.018 188.396 279.086 186.129 279.086 183.316C279.086 180.551 280.018 178.254 281.881 176.426C283.756 174.598 286.123 173.684 288.982 173.684C291.924 173.684 294.244 174.609 295.943 176.461C297.643 178.312 298.492 180.85 298.492 184.072V184.371ZM314.963 183.686C316.006 184.869 317.031 185.754 318.039 186.34C319.059 186.926 320.072 187.219 321.08 187.219C322.018 187.219 322.785 186.967 323.383 186.463C323.992 185.959 324.297 185.32 324.297 184.547C324.297 183.691 324.033 183.035 323.506 182.578C322.99 182.109 321.812 181.629 319.973 181.137C317.453 180.457 315.672 179.572 314.629 178.482C313.586 177.393 313.064 175.898 313.064 174C313.064 171.539 313.885 169.535 315.525 167.988C317.178 166.43 319.316 165.65 321.941 165.65C323.359 165.65 324.701 165.844 325.967 166.23C327.244 166.605 328.451 167.18 329.588 167.953L327.391 172.998C326.594 172.318 325.773 171.809 324.93 171.469C324.098 171.117 323.271 170.941 322.451 170.941C321.607 170.941 320.922 171.146 320.395 171.557C319.867 171.955 319.604 172.471 319.604 173.104C319.604 173.748 319.832 174.264 320.289 174.65C320.758 175.037 321.654 175.406 322.979 175.758L323.295 175.846C326.154 176.619 328.035 177.469 328.938 178.395C329.547 179.027 330.01 179.789 330.326 180.68C330.643 181.559 330.801 182.537 330.801 183.615C330.801 186.346 329.904 188.543 328.111 190.207C326.318 191.859 323.928 192.686 320.939 192.686C319.146 192.686 317.512 192.381 316.035 191.771C314.57 191.162 313.158 190.207 311.799 188.906L314.963 183.686ZM346.533 180.838C346.416 179.83 346.029 179.021 345.373 178.412C344.729 177.803 343.932 177.498 342.982 177.498C341.963 177.498 341.148 177.779 340.539 178.342C339.941 178.893 339.543 179.725 339.344 180.838H346.533ZM352.703 184.371H339.203C339.215 185.742 339.566 186.803 340.258 187.553C340.949 188.291 341.928 188.66 343.193 188.66C344.143 188.66 344.939 188.484 345.584 188.133C346.24 187.77 346.738 187.236 347.078 186.533L351.789 188.432C351.227 189.791 350.23 190.84 348.801 191.578C347.371 192.316 345.619 192.686 343.545 192.686C340.451 192.686 337.967 191.83 336.092 190.119C334.229 188.396 333.297 186.129 333.297 183.316C333.297 180.551 334.229 178.254 336.092 176.426C337.967 174.598 340.334 173.684 343.193 173.684C346.135 173.684 348.455 174.609 350.154 176.461C351.854 178.312 352.703 180.85 352.703 184.072V184.371ZM356.342 192V174.246H362.248V178.43C362.857 176.906 363.689 175.764 364.744 175.002C365.799 174.24 367.076 173.859 368.576 173.859C368.822 173.859 369.068 173.871 369.314 173.895C369.572 173.906 369.83 173.93 370.088 173.965L369.49 179.66C369.115 179.531 368.746 179.438 368.383 179.379C368.02 179.32 367.668 179.291 367.328 179.291C365.805 179.291 364.627 179.76 363.795 180.697C362.975 181.623 362.564 182.941 362.564 184.652V192H356.342ZM377.998 183.176C377.998 184.559 378.355 185.648 379.07 186.445C379.797 187.242 380.793 187.641 382.059 187.641C383.324 187.641 384.32 187.242 385.047 186.445C385.785 185.648 386.154 184.559 386.154 183.176C386.154 181.793 385.791 180.703 385.064 179.906C384.338 179.109 383.336 178.711 382.059 178.711C380.793 178.711 379.797 179.109 379.07 179.906C378.355 180.703 377.998 181.793 377.998 183.176ZM372.443 199.84V174.246H378.209V177.234C379.006 176.039 379.902 175.148 380.898 174.562C381.895 173.977 383.002 173.684 384.221 173.684C386.717 173.684 388.703 174.539 390.18 176.25C391.656 177.949 392.395 180.258 392.395 183.176C392.395 186.012 391.656 188.309 390.18 190.066C388.715 191.812 386.799 192.686 384.432 192.686C382.932 192.686 381.707 192.41 380.758 191.859C379.82 191.309 378.982 190.4 378.244 189.135C378.303 189.486 378.344 189.914 378.367 190.418C378.402 190.922 378.42 191.543 378.42 192.281V199.84H372.443ZM408.408 180.838C408.291 179.83 407.904 179.021 407.248 178.412C406.604 177.803 405.807 177.498 404.857 177.498C403.838 177.498 403.023 177.779 402.414 178.342C401.816 178.893 401.418 179.725 401.219 180.838H408.408ZM414.578 184.371H401.078C401.09 185.742 401.441 186.803 402.133 187.553C402.824 188.291 403.803 188.66 405.068 188.66C406.018 188.66 406.814 188.484 407.459 188.133C408.115 187.77 408.613 187.236 408.953 186.533L413.664 188.432C413.102 189.791 412.105 190.84 410.676 191.578C409.246 192.316 407.494 192.686 405.42 192.686C402.326 192.686 399.842 191.83 397.967 190.119C396.104 188.396 395.172 186.129 395.172 183.316C395.172 180.551 396.104 178.254 397.967 176.426C399.842 174.598 402.209 173.684 405.068 173.684C408.01 173.684 410.33 174.609 412.029 176.461C413.729 178.312 414.578 180.85 414.578 184.072V184.371ZM418.182 192V174.246H423.912V177.85C424.744 176.408 425.705 175.354 426.795 174.686C427.885 174.018 429.191 173.684 430.715 173.684C431.863 173.684 432.883 173.871 433.773 174.246C434.676 174.609 435.408 175.137 435.971 175.828C436.439 176.426 436.773 177.152 436.973 178.008C437.172 178.863 437.271 180.141 437.271 181.84V192H430.996V182.49C430.996 181.072 430.762 180.041 430.293 179.396C429.836 178.752 429.098 178.43 428.078 178.43C426.777 178.43 425.828 178.91 425.23 179.871C424.633 180.832 424.334 182.391 424.334 184.547V192H418.182ZM442.668 192V178.676H440.014V174.246H442.668V168.955H448.838V174.246H451.492V178.676H448.838V192H442.668ZM478.316 183.176C478.316 181.852 477.982 180.809 477.314 180.047C476.646 179.285 475.744 178.904 474.607 178.904C473.459 178.904 472.551 179.285 471.883 180.047C471.227 180.809 470.898 181.852 470.898 183.176C470.898 184.5 471.227 185.543 471.883 186.305C472.539 187.055 473.447 187.43 474.607 187.43C475.756 187.43 476.658 187.055 477.314 186.305C477.982 185.543 478.316 184.5 478.316 183.176ZM484.539 183.176C484.539 184.453 484.287 185.666 483.783 186.814C483.291 187.963 482.57 188.994 481.621 189.908C480.66 190.822 479.582 191.514 478.387 191.982C477.203 192.451 475.943 192.686 474.607 192.686C473.248 192.686 471.971 192.451 470.775 191.982C469.592 191.514 468.531 190.822 467.594 189.908C466.656 189.018 465.941 187.998 465.449 186.85C464.957 185.689 464.711 184.465 464.711 183.176C464.711 181.875 464.951 180.65 465.432 179.502C465.924 178.354 466.645 177.322 467.594 176.408C468.52 175.506 469.574 174.826 470.758 174.369C471.953 173.912 473.236 173.684 474.607 173.684C475.979 173.684 477.256 173.912 478.439 174.369C479.623 174.826 480.684 175.506 481.621 176.408C482.582 177.334 483.309 178.371 483.801 179.52C484.293 180.668 484.539 181.887 484.539 183.176ZM488.758 192V178.676H486.086V174.246H488.758V170.607C488.758 168.545 489.32 166.992 490.445 165.949C491.57 164.906 493.252 164.385 495.49 164.385C495.807 164.385 496.182 164.414 496.615 164.473C497.061 164.531 497.535 164.613 498.039 164.719V169.5C497.758 169.395 497.494 169.318 497.248 169.271C497.014 169.213 496.797 169.184 496.598 169.184C496.012 169.184 495.584 169.359 495.314 169.711C495.045 170.062 494.91 170.631 494.91 171.416V174.246H498.039V178.676H494.91V192H488.758ZM512.523 192V166.266H517.885C521.881 166.266 524.705 166.453 526.357 166.828C528.021 167.203 529.48 167.83 530.734 168.709C532.363 169.846 533.6 171.305 534.443 173.086C535.287 174.855 535.709 176.877 535.709 179.15C535.709 181.424 535.287 183.451 534.443 185.232C533.6 187.002 532.363 188.455 530.734 189.592C529.492 190.459 528.074 191.08 526.48 191.455C524.887 191.818 522.414 192 519.062 192H517.885H512.523ZM519.467 186.234H520.645C523.398 186.234 525.408 185.672 526.674 184.547C527.939 183.41 528.572 181.611 528.572 179.15C528.572 176.689 527.939 174.885 526.674 173.736C525.408 172.588 523.398 172.014 520.645 172.014H519.467V186.234ZM551.916 180.838C551.799 179.83 551.412 179.021 550.756 178.412C550.111 177.803 549.314 177.498 548.365 177.498C547.346 177.498 546.531 177.779 545.922 178.342C545.324 178.893 544.926 179.725 544.727 180.838H551.916ZM558.086 184.371H544.586C544.598 185.742 544.949 186.803 545.641 187.553C546.332 188.291 547.311 188.66 548.576 188.66C549.525 188.66 550.322 188.484 550.967 188.133C551.623 187.77 552.121 187.236 552.461 186.533L557.172 188.432C556.609 189.791 555.613 190.84 554.184 191.578C552.754 192.316 551.002 192.686 548.928 192.686C545.834 192.686 543.35 191.83 541.475 190.119C539.611 188.396 538.68 186.129 538.68 183.316C538.68 180.551 539.611 178.254 541.475 176.426C543.35 174.598 545.717 173.684 548.576 173.684C551.518 173.684 553.838 174.609 555.537 176.461C557.236 178.312 558.086 180.85 558.086 184.072V184.371ZM560.037 190.523L561.338 185.742C562.252 186.539 563.254 187.154 564.344 187.588C565.445 188.01 566.553 188.221 567.666 188.221C568.451 188.221 569.049 188.098 569.459 187.852C569.869 187.594 570.074 187.225 570.074 186.744C570.074 185.959 569.248 185.373 567.596 184.986C567.057 184.857 566.623 184.746 566.295 184.652C564.42 184.137 563.055 183.463 562.199 182.631C561.355 181.787 560.934 180.697 560.934 179.361C560.934 177.639 561.578 176.262 562.867 175.23C564.168 174.199 565.926 173.684 568.141 173.684C569.277 173.684 570.432 173.818 571.604 174.088C572.787 174.346 573.994 174.75 575.225 175.301L573.924 179.607C573.092 179.045 572.248 178.617 571.393 178.324C570.537 178.031 569.682 177.885 568.826 177.885C568.111 177.885 567.572 177.996 567.209 178.219C566.846 178.441 566.664 178.764 566.664 179.186C566.664 179.818 567.484 180.352 569.125 180.785C569.5 180.891 569.781 180.967 569.969 181.014C572.137 181.635 573.643 182.367 574.486 183.211C575.342 184.043 575.77 185.174 575.77 186.604C575.77 188.42 575.072 189.891 573.678 191.016C572.283 192.129 570.438 192.686 568.141 192.686C566.582 192.686 565.135 192.504 563.799 192.141C562.463 191.789 561.209 191.25 560.037 190.523ZM580.094 192V178.676H577.439V174.246H580.094V168.955H586.264V174.246H588.918V178.676H586.264V192H580.094ZM591.713 168.709C591.713 167.76 592.047 166.951 592.715 166.283C593.395 165.615 594.209 165.281 595.158 165.281C596.143 165.281 596.963 165.609 597.619 166.266C598.287 166.922 598.621 167.736 598.621 168.709C598.621 169.682 598.281 170.508 597.602 171.188C596.934 171.867 596.119 172.207 595.158 172.207C594.221 172.207 593.412 171.861 592.732 171.17C592.053 170.479 591.713 169.658 591.713 168.709ZM592.029 192V174.246H598.305V192H592.029ZM603.104 192V174.246H608.834V177.85C609.666 176.408 610.627 175.354 611.717 174.686C612.807 174.018 614.113 173.684 615.637 173.684C616.785 173.684 617.805 173.871 618.695 174.246C619.598 174.609 620.33 175.137 620.893 175.828C621.361 176.426 621.695 177.152 621.895 178.008C622.094 178.863 622.193 180.141 622.193 181.84V192H615.918V182.49C615.918 181.072 615.684 180.041 615.215 179.396C614.758 178.752 614.02 178.43 613 178.43C611.699 178.43 610.75 178.91 610.152 179.871C609.555 180.832 609.256 182.391 609.256 184.547V192H603.104ZM625.656 199.84L630.648 189.293L623.494 174.246H630.438L632.916 180.662C633.127 181.201 633.303 181.705 633.443 182.174C633.584 182.631 633.689 183.059 633.76 183.457C633.83 183.035 633.93 182.602 634.059 182.156C634.199 181.699 634.375 181.201 634.586 180.662L637.1 174.246H643.797L632.635 199.84H625.656ZM644.57 186.164H651.109L645.678 197.186H640.826L644.57 186.164ZM679.234 174.246L681.854 182.086L681.906 182.227C682.293 183.328 682.539 184.207 682.645 184.863C682.715 184.488 682.803 184.096 682.908 183.686C683.025 183.275 683.189 182.748 683.4 182.104L686.072 174.246H692.559L685.105 192H680.676L678.039 183.967C677.898 183.51 677.77 183.053 677.652 182.596C677.547 182.127 677.447 181.664 677.354 181.207C677.225 181.91 676.996 182.795 676.668 183.861L676.633 183.984L674.014 192H669.584L662.166 174.246H668.617L671.271 182.104C671.471 182.678 671.629 183.182 671.746 183.615C671.863 184.037 671.957 184.453 672.027 184.863C672.133 184.277 672.361 183.463 672.713 182.42C672.76 182.279 672.795 182.174 672.818 182.104L675.455 174.246H679.234ZM694.123 192V164.754H700.275V174.316C700.275 174.949 700.258 175.535 700.223 176.074C700.188 176.613 700.135 177.1 700.064 177.533C700.85 176.209 701.775 175.236 702.842 174.615C703.908 173.994 705.18 173.684 706.656 173.684C707.805 173.684 708.824 173.871 709.715 174.246C710.617 174.609 711.35 175.137 711.912 175.828C712.381 176.426 712.715 177.152 712.914 178.008C713.113 178.863 713.213 180.141 713.213 181.84V192H706.938V182.49C706.938 181.072 706.703 180.041 706.234 179.396C705.777 178.752 705.039 178.43 704.02 178.43C702.719 178.43 701.77 178.91 701.172 179.871C700.574 180.832 700.275 182.391 700.275 184.547V192H694.123ZM730.246 183.176C730.246 181.852 729.912 180.809 729.244 180.047C728.576 179.285 727.674 178.904 726.537 178.904C725.389 178.904 724.48 179.285 723.812 180.047C723.156 180.809 722.828 181.852 722.828 183.176C722.828 184.5 723.156 185.543 723.812 186.305C724.469 187.055 725.377 187.43 726.537 187.43C727.686 187.43 728.588 187.055 729.244 186.305C729.912 185.543 730.246 184.5 730.246 183.176ZM736.469 183.176C736.469 184.453 736.217 185.666 735.713 186.814C735.221 187.963 734.5 188.994 733.551 189.908C732.59 190.822 731.512 191.514 730.316 191.982C729.133 192.451 727.873 192.686 726.537 192.686C725.178 192.686 723.9 192.451 722.705 191.982C721.521 191.514 720.461 190.822 719.523 189.908C718.586 189.018 717.871 187.998 717.379 186.85C716.887 185.689 716.641 184.465 716.641 183.176C716.641 181.875 716.881 180.65 717.361 179.502C717.854 178.354 718.574 177.322 719.523 176.408C720.449 175.506 721.504 174.826 722.688 174.369C723.883 173.912 725.166 173.684 726.537 173.684C727.908 173.684 729.186 173.912 730.369 174.369C731.553 174.826 732.613 175.506 733.551 176.408C734.512 177.334 735.238 178.371 735.73 179.52C736.223 180.668 736.469 181.887 736.469 183.176ZM288.93 217.246L291.549 225.086L291.602 225.227C291.988 226.328 292.234 227.207 292.34 227.863C292.41 227.488 292.498 227.096 292.604 226.686C292.721 226.275 292.885 225.748 293.096 225.104L295.768 217.246H302.254L294.801 235H290.371L287.734 226.967C287.594 226.51 287.465 226.053 287.348 225.596C287.242 225.127 287.143 224.664 287.049 224.207C286.92 224.91 286.691 225.795 286.363 226.861L286.328 226.984L283.709 235H279.279L271.861 217.246H278.312L280.967 225.104C281.166 225.678 281.324 226.182 281.441 226.615C281.559 227.037 281.652 227.453 281.723 227.863C281.828 227.277 282.057 226.463 282.408 225.42C282.455 225.279 282.49 225.174 282.514 225.104L285.15 217.246H288.93ZM303.678 211.709C303.678 210.76 304.012 209.951 304.68 209.283C305.359 208.615 306.174 208.281 307.123 208.281C308.107 208.281 308.928 208.609 309.584 209.266C310.252 209.922 310.586 210.736 310.586 211.709C310.586 212.682 310.246 213.508 309.566 214.188C308.898 214.867 308.084 215.207 307.123 215.207C306.186 215.207 305.377 214.861 304.697 214.17C304.018 213.479 303.678 212.658 303.678 211.709ZM303.994 235V217.246H310.27V235H303.994ZM315.244 235V207.754H321.52V235H315.244ZM326.494 235V207.754H332.77V235H326.494ZM354.443 226.176C354.443 227.559 354.801 228.648 355.516 229.445C356.242 230.242 357.238 230.641 358.504 230.641C359.77 230.641 360.766 230.242 361.492 229.445C362.23 228.648 362.6 227.559 362.6 226.176C362.6 224.793 362.236 223.703 361.51 222.906C360.783 222.109 359.781 221.711 358.504 221.711C357.238 221.711 356.242 222.109 355.516 222.906C354.801 223.703 354.443 224.793 354.443 226.176ZM348.889 242.84V217.246H354.654V220.234C355.451 219.039 356.348 218.148 357.344 217.562C358.34 216.977 359.447 216.684 360.666 216.684C363.162 216.684 365.148 217.539 366.625 219.25C368.102 220.949 368.84 223.258 368.84 226.176C368.84 229.012 368.102 231.309 366.625 233.066C365.16 234.812 363.244 235.686 360.877 235.686C359.377 235.686 358.152 235.41 357.203 234.859C356.266 234.309 355.428 233.4 354.689 232.135C354.748 232.486 354.789 232.914 354.812 233.418C354.848 233.922 354.865 234.543 354.865 235.281V242.84H348.889ZM390.83 217.246V226.316C390.83 228.32 390.666 229.809 390.338 230.781C390.021 231.742 389.482 232.598 388.721 233.348C387.936 234.133 386.957 234.719 385.785 235.105C384.613 235.492 383.236 235.686 381.654 235.686C380.084 235.686 378.713 235.492 377.541 235.105C376.381 234.719 375.391 234.133 374.57 233.348C373.809 232.621 373.27 231.771 372.953 230.799C372.637 229.814 372.479 228.32 372.479 226.316V217.246H378.455V226.721C378.455 228.209 378.701 229.287 379.193 229.955C379.686 230.611 380.482 230.939 381.584 230.939C382.697 230.939 383.494 230.617 383.975 229.973C384.467 229.316 384.713 228.232 384.713 226.721V217.246H390.83ZM393.678 233.523L394.979 228.742C395.893 229.539 396.895 230.154 397.984 230.588C399.086 231.01 400.193 231.221 401.307 231.221C402.092 231.221 402.689 231.098 403.1 230.852C403.51 230.594 403.715 230.225 403.715 229.744C403.715 228.959 402.889 228.373 401.236 227.986C400.697 227.857 400.264 227.746 399.936 227.652C398.061 227.137 396.695 226.463 395.84 225.631C394.996 224.787 394.574 223.697 394.574 222.361C394.574 220.639 395.219 219.262 396.508 218.23C397.809 217.199 399.566 216.684 401.781 216.684C402.918 216.684 404.072 216.818 405.244 217.088C406.428 217.346 407.635 217.75 408.865 218.301L407.564 222.607C406.732 222.045 405.889 221.617 405.033 221.324C404.178 221.031 403.322 220.885 402.467 220.885C401.752 220.885 401.213 220.996 400.85 221.219C400.486 221.441 400.305 221.764 400.305 222.186C400.305 222.818 401.125 223.352 402.766 223.785C403.141 223.891 403.422 223.967 403.609 224.014C405.777 224.635 407.283 225.367 408.127 226.211C408.982 227.043 409.41 228.174 409.41 229.604C409.41 231.42 408.713 232.891 407.318 234.016C405.924 235.129 404.078 235.686 401.781 235.686C400.223 235.686 398.775 235.504 397.439 235.141C396.104 234.789 394.85 234.25 393.678 233.523ZM412.768 235V207.754H418.92V217.316C418.92 217.949 418.902 218.535 418.867 219.074C418.832 219.613 418.779 220.1 418.709 220.533C419.494 219.209 420.42 218.236 421.486 217.615C422.553 216.994 423.824 216.684 425.301 216.684C426.449 216.684 427.469 216.871 428.359 217.246C429.262 217.609 429.994 218.137 430.557 218.828C431.025 219.426 431.359 220.152 431.559 221.008C431.758 221.863 431.857 223.141 431.857 224.84V235H425.582V225.49C425.582 224.072 425.348 223.041 424.879 222.396C424.422 221.752 423.684 221.43 422.664 221.43C421.363 221.43 420.414 221.91 419.816 222.871C419.219 223.832 418.92 225.391 418.92 227.547V235H412.768ZM446.605 242.84L451.598 232.293L444.443 217.246H451.387L453.865 223.662C454.076 224.201 454.252 224.705 454.393 225.174C454.533 225.631 454.639 226.059 454.709 226.457C454.779 226.035 454.879 225.602 455.008 225.156C455.148 224.699 455.324 224.201 455.535 223.662L458.049 217.246H464.746L453.584 242.84H446.605ZM479.336 226.176C479.336 224.852 479.002 223.809 478.334 223.047C477.666 222.285 476.764 221.904 475.627 221.904C474.479 221.904 473.57 222.285 472.902 223.047C472.246 223.809 471.918 224.852 471.918 226.176C471.918 227.5 472.246 228.543 472.902 229.305C473.559 230.055 474.467 230.43 475.627 230.43C476.775 230.43 477.678 230.055 478.334 229.305C479.002 228.543 479.336 227.5 479.336 226.176ZM485.559 226.176C485.559 227.453 485.307 228.666 484.803 229.814C484.311 230.963 483.59 231.994 482.641 232.908C481.68 233.822 480.602 234.514 479.406 234.982C478.223 235.451 476.963 235.686 475.627 235.686C474.268 235.686 472.99 235.451 471.795 234.982C470.611 234.514 469.551 233.822 468.613 232.908C467.676 232.018 466.961 230.998 466.469 229.85C465.977 228.689 465.73 227.465 465.73 226.176C465.73 224.875 465.971 223.65 466.451 222.502C466.943 221.354 467.664 220.322 468.613 219.408C469.539 218.506 470.594 217.826 471.777 217.369C472.973 216.912 474.256 216.684 475.627 216.684C476.998 216.684 478.275 216.912 479.459 217.369C480.643 217.826 481.703 218.506 482.641 219.408C483.602 220.334 484.328 221.371 484.82 222.52C485.312 223.668 485.559 224.887 485.559 226.176ZM507.373 217.246V226.316C507.373 228.32 507.209 229.809 506.881 230.781C506.564 231.742 506.025 232.598 505.264 233.348C504.479 234.133 503.5 234.719 502.328 235.105C501.156 235.492 499.779 235.686 498.197 235.686C496.627 235.686 495.256 235.492 494.084 235.105C492.924 234.719 491.934 234.133 491.113 233.348C490.352 232.621 489.812 231.771 489.496 230.799C489.18 229.814 489.021 228.32 489.021 226.316V217.246H494.998V226.721C494.998 228.209 495.244 229.287 495.736 229.955C496.229 230.611 497.025 230.939 498.127 230.939C499.24 230.939 500.037 230.617 500.518 229.973C501.01 229.316 501.256 228.232 501.256 226.721V217.246H507.373ZM528.748 226.141C528.748 227.523 529.105 228.613 529.82 229.41C530.547 230.207 531.543 230.605 532.809 230.605C534.086 230.605 535.088 230.213 535.814 229.428C536.541 228.631 536.904 227.535 536.904 226.141C536.904 224.758 536.535 223.668 535.797 222.871C535.07 222.074 534.074 221.676 532.809 221.676C531.543 221.676 530.547 222.074 529.82 222.871C529.105 223.668 528.748 224.758 528.748 226.141ZM523.193 207.754H529.17V217.035C529.17 217.785 529.152 218.412 529.117 218.916C529.094 219.408 529.053 219.836 528.994 220.199C529.721 218.934 530.553 218.031 531.49 217.492C532.439 216.953 533.67 216.684 535.182 216.684C537.549 216.684 539.465 217.557 540.93 219.303C542.406 221.037 543.145 223.316 543.145 226.141C543.145 229.059 542.4 231.379 540.912 233.102C539.436 234.824 537.455 235.686 534.971 235.686C533.752 235.686 532.645 235.393 531.648 234.807C530.652 234.209 529.756 233.312 528.959 232.117V235H523.193V207.754ZM560.459 226.105C560.459 224.723 560.09 223.627 559.352 222.818C558.613 222.01 557.605 221.605 556.328 221.605C555.051 221.605 554.043 222.01 553.305 222.818C552.578 223.615 552.215 224.711 552.215 226.105C552.215 227.488 552.584 228.578 553.322 229.375C554.061 230.172 555.062 230.57 556.328 230.57C557.605 230.57 558.613 230.172 559.352 229.375C560.09 228.578 560.459 227.488 560.459 226.105ZM565.961 217.246V235H560.213V232.117C559.393 233.348 558.467 234.25 557.436 234.824C556.416 235.398 555.215 235.686 553.832 235.686C551.465 235.686 549.572 234.824 548.154 233.102C546.736 231.367 546.027 229.047 546.027 226.141C546.027 223.246 546.766 220.949 548.242 219.25C549.73 217.539 551.729 216.684 554.236 216.684C555.572 216.684 556.721 216.971 557.682 217.545C558.654 218.107 559.486 218.98 560.178 220.164V217.246H565.961ZM583.434 223.082C582.824 222.543 582.238 222.15 581.676 221.904C581.113 221.658 580.521 221.535 579.9 221.535C578.658 221.535 577.668 221.945 576.93 222.766C576.203 223.586 575.84 224.699 575.84 226.105C575.84 227.465 576.221 228.549 576.982 229.357C577.744 230.166 578.77 230.57 580.059 230.57C580.691 230.57 581.283 230.447 581.834 230.201C582.396 229.943 582.93 229.551 583.434 229.023V234.455C582.684 234.877 581.934 235.188 581.184 235.387C580.434 235.586 579.66 235.686 578.863 235.686C576.133 235.686 573.918 234.812 572.219 233.066C570.531 231.309 569.688 229 569.688 226.141C569.688 223.363 570.549 221.096 572.271 219.338C574.006 217.568 576.227 216.684 578.934 216.684C579.836 216.684 580.65 216.771 581.377 216.947C582.104 217.123 582.789 217.404 583.434 217.791V223.082ZM587.318 235V207.754H593.471V224.998L599.922 217.246H607.691L599.711 225.789L608.412 235H600.168L593.471 227.107V235H587.318ZM610.996 226.439V208.07H617.518V226.439H610.996ZM610.715 232.117C610.715 231.121 611.049 230.277 611.717 229.586C612.396 228.895 613.234 228.549 614.23 228.549C615.238 228.549 616.082 228.895 616.762 229.586C617.453 230.266 617.799 231.109 617.799 232.117C617.799 233.113 617.453 233.957 616.762 234.648C616.07 235.34 615.227 235.686 614.23 235.686C613.246 235.686 612.414 235.34 611.734 234.648C611.055 233.957 610.715 233.113 610.715 232.117Z" fill="#FFDBAA"/>
</svg>
