<svg width="475" height="315" viewBox="0 0 475 315" fill="none" xmlns="http://www.w3.org/2000/svg">
<rect width="475" height="225" rx="50" fill="#44301E"/>
<path d="M131.003 260.61C97.0913 251.557 82.7201 243.513 70.0055 220.91L110.972 197C98.5571 225.636 105.031 239.172 131.003 260.61Z" fill="#44301E"/>
<path d="M17.7082 52.6865V31.2412H23.5529V39.5762H31.3459V31.2412H37.2053V52.6865H31.3459V43.9561H23.5529V52.6865H17.7082ZM51.59 43.3848C51.4924 42.5449 51.1701 41.8711 50.6232 41.3633C50.0861 40.8555 49.4221 40.6016 48.6311 40.6016C47.7814 40.6016 47.1027 40.8359 46.5949 41.3047C46.0969 41.7637 45.7648 42.457 45.5988 43.3848H51.59ZM56.7316 46.3291H45.4816C45.4914 47.4717 45.7844 48.3555 46.3605 48.9805C46.9367 49.5957 47.7522 49.9033 48.8068 49.9033C49.5979 49.9033 50.2619 49.7568 50.799 49.4639C51.3459 49.1611 51.7609 48.7168 52.0441 48.1309L55.9699 49.7129C55.5012 50.8457 54.6711 51.7197 53.4797 52.335C52.2883 52.9502 50.8283 53.2578 49.0998 53.2578C46.5217 53.2578 44.4514 52.5449 42.8889 51.1191C41.3361 49.6836 40.5598 47.7939 40.5598 45.4502C40.5598 43.1455 41.3361 41.2314 42.8889 39.708C44.4514 38.1846 46.424 37.4229 48.8068 37.4229C51.258 37.4229 53.1916 38.1943 54.6076 39.7373C56.0236 41.2803 56.7316 43.3945 56.7316 46.0801V46.3291ZM59.7639 52.6865V37.8916H64.6857V41.3779C65.1936 40.1084 65.8869 39.1562 66.7658 38.5215C67.6447 37.8867 68.7092 37.5693 69.9592 37.5693C70.1643 37.5693 70.3693 37.5791 70.5744 37.5986C70.7893 37.6084 71.0041 37.6279 71.2189 37.6572L70.7209 42.4033C70.4084 42.2959 70.1008 42.2178 69.798 42.1689C69.4953 42.1201 69.2023 42.0957 68.9191 42.0957C67.6496 42.0957 66.6682 42.4863 65.9748 43.2676C65.2912 44.0391 64.9494 45.1377 64.9494 46.5635V52.6865H59.7639ZM83.3479 43.3848C83.2502 42.5449 82.9279 41.8711 82.3811 41.3633C81.8439 40.8555 81.1799 40.6016 80.3889 40.6016C79.5393 40.6016 78.8605 40.8359 78.3527 41.3047C77.8547 41.7637 77.5227 42.457 77.3566 43.3848H83.3479ZM88.4895 46.3291H77.2395C77.2492 47.4717 77.5422 48.3555 78.1184 48.9805C78.6945 49.5957 79.51 49.9033 80.5647 49.9033C81.3557 49.9033 82.0197 49.7568 82.5568 49.4639C83.1037 49.1611 83.5188 48.7168 83.802 48.1309L87.7277 49.7129C87.259 50.8457 86.4289 51.7197 85.2375 52.335C84.0461 52.9502 82.5861 53.2578 80.8576 53.2578C78.2795 53.2578 76.2092 52.5449 74.6467 51.1191C73.0939 49.6836 72.3176 47.7939 72.3176 45.4502C72.3176 43.1455 73.0939 41.2314 74.6467 39.708C76.2092 38.1846 78.1818 37.4229 80.5647 37.4229C83.0158 37.4229 84.9494 38.1943 86.3654 39.7373C87.7814 41.2803 88.4895 43.3945 88.4895 46.0801V46.3291ZM100.779 33.2773C100.779 32.4863 101.058 31.8125 101.614 31.2559C102.181 30.6992 102.86 30.4209 103.651 30.4209C104.471 30.4209 105.154 30.6943 105.701 31.2412C106.258 31.7881 106.536 32.4668 106.536 33.2773C106.536 34.0879 106.253 34.7764 105.687 35.3428C105.13 35.9092 104.451 36.1924 103.651 36.1924C102.869 36.1924 102.196 35.9043 101.629 35.3281C101.063 34.752 100.779 34.0684 100.779 33.2773ZM101.043 52.6865V37.8916H106.273V52.6865H101.043ZM108.895 51.4561L109.979 47.4717C110.74 48.1357 111.575 48.6484 112.484 49.0098C113.402 49.3613 114.324 49.5371 115.252 49.5371C115.906 49.5371 116.404 49.4346 116.746 49.2295C117.088 49.0146 117.259 48.707 117.259 48.3066C117.259 47.6523 116.571 47.1641 115.194 46.8418C114.744 46.7344 114.383 46.6416 114.11 46.5635C112.547 46.1338 111.409 45.5723 110.696 44.8789C109.993 44.1758 109.642 43.2676 109.642 42.1543C109.642 40.7188 110.179 39.5713 111.253 38.7119C112.337 37.8525 113.802 37.4229 115.648 37.4229C116.595 37.4229 117.557 37.5352 118.533 37.7598C119.52 37.9746 120.526 38.3115 121.551 38.7705L120.467 42.3594C119.774 41.8906 119.071 41.5342 118.358 41.29C117.645 41.0459 116.932 40.9238 116.219 40.9238C115.623 40.9238 115.174 41.0166 114.871 41.2021C114.569 41.3877 114.417 41.6562 114.417 42.0078C114.417 42.5352 115.101 42.9795 116.468 43.3408C116.78 43.4287 117.015 43.4922 117.171 43.5312C118.978 44.0488 120.233 44.6592 120.936 45.3623C121.649 46.0557 122.005 46.998 122.005 48.1895C122.005 49.7031 121.424 50.9287 120.262 51.8662C119.1 52.7939 117.562 53.2578 115.648 53.2578C114.349 53.2578 113.143 53.1064 112.029 52.8037C110.916 52.5107 109.871 52.0615 108.895 51.4561ZM145.487 45.2744C145.487 44.1221 145.179 43.209 144.564 42.5352C143.948 41.8613 143.109 41.5244 142.044 41.5244C140.98 41.5244 140.14 41.8613 139.525 42.5352C138.919 43.1992 138.616 44.1123 138.616 45.2744C138.616 46.4268 138.924 47.335 139.539 47.999C140.154 48.6631 140.989 48.9951 142.044 48.9951C143.109 48.9951 143.948 48.6631 144.564 47.999C145.179 47.335 145.487 46.4268 145.487 45.2744ZM150.071 37.8916V52.6865H145.281V50.2842C144.598 51.3096 143.826 52.0615 142.967 52.54C142.117 53.0186 141.116 53.2578 139.964 53.2578C137.991 53.2578 136.414 52.54 135.233 51.1045C134.051 49.6592 133.46 47.7256 133.46 45.3037C133.46 42.8916 134.075 40.9775 135.306 39.5615C136.546 38.1357 138.211 37.4229 140.301 37.4229C141.414 37.4229 142.371 37.6621 143.172 38.1406C143.983 38.6094 144.676 39.3369 145.252 40.3232V37.8916H150.071ZM168.074 45.3037C168.074 46.4561 168.372 47.3643 168.968 48.0283C169.573 48.6924 170.404 49.0244 171.458 49.0244C172.523 49.0244 173.358 48.6973 173.963 48.043C174.569 47.3789 174.871 46.4658 174.871 45.3037C174.871 44.1514 174.564 43.2432 173.948 42.5791C173.343 41.915 172.513 41.583 171.458 41.583C170.404 41.583 169.573 41.915 168.968 42.5791C168.372 43.2432 168.074 44.1514 168.074 45.3037ZM163.446 29.9814H168.426V37.7158C168.426 38.3408 168.411 38.8633 168.382 39.2832C168.363 39.6934 168.328 40.0498 168.279 40.3525C168.885 39.2979 169.578 38.5459 170.36 38.0967C171.151 37.6475 172.176 37.4229 173.436 37.4229C175.408 37.4229 177.005 38.1504 178.226 39.6055C179.456 41.0508 180.071 42.9502 180.071 45.3037C180.071 47.7354 179.451 49.6689 178.211 51.1045C176.981 52.54 175.33 53.2578 173.26 53.2578C172.244 53.2578 171.321 53.0137 170.491 52.5254C169.661 52.0273 168.914 51.2803 168.25 50.2842V52.6865H163.446V29.9814ZM193.416 43.3848C193.319 42.5449 192.996 41.8711 192.449 41.3633C191.912 40.8555 191.248 40.6016 190.457 40.6016C189.608 40.6016 188.929 40.8359 188.421 41.3047C187.923 41.7637 187.591 42.457 187.425 43.3848H193.416ZM198.558 46.3291H187.308C187.318 47.4717 187.611 48.3555 188.187 48.9805C188.763 49.5957 189.578 49.9033 190.633 49.9033C191.424 49.9033 192.088 49.7568 192.625 49.4639C193.172 49.1611 193.587 48.7168 193.87 48.1309L197.796 49.7129C197.327 50.8457 196.497 51.7197 195.306 52.335C194.114 52.9502 192.654 53.2578 190.926 53.2578C188.348 53.2578 186.278 52.5449 184.715 51.1191C183.162 49.6836 182.386 47.7939 182.386 45.4502C182.386 43.1455 183.162 41.2314 184.715 39.708C186.278 38.1846 188.25 37.4229 190.633 37.4229C193.084 37.4229 195.018 38.1943 196.434 39.7373C197.85 41.2803 198.558 43.3945 198.558 46.0801V46.3291ZM201.561 52.6865V29.9814H206.688V37.9502C206.688 38.4775 206.673 38.9658 206.644 39.415C206.614 39.8643 206.571 40.2695 206.512 40.6309C207.166 39.5273 207.938 38.7168 208.826 38.1992C209.715 37.6816 210.775 37.4229 212.005 37.4229C212.962 37.4229 213.812 37.5791 214.554 37.8916C215.306 38.1943 215.916 38.6338 216.385 39.21C216.776 39.708 217.054 40.3135 217.22 41.0264C217.386 41.7393 217.469 42.8037 217.469 44.2197V52.6865H212.239V44.7617C212.239 43.5801 212.044 42.7207 211.654 42.1836C211.273 41.6465 210.657 41.3779 209.808 41.3779C208.724 41.3779 207.933 41.7783 207.435 42.5791C206.937 43.3799 206.688 44.6787 206.688 46.4756V52.6865H201.561ZM232.44 45.2744C232.44 44.1221 232.132 43.209 231.517 42.5352C230.902 41.8613 230.062 41.5244 228.997 41.5244C227.933 41.5244 227.093 41.8613 226.478 42.5352C225.872 43.1992 225.57 44.1123 225.57 45.2744C225.57 46.4268 225.877 47.335 226.492 47.999C227.108 48.6631 227.943 48.9951 228.997 48.9951C230.062 48.9951 230.902 48.6631 231.517 47.999C232.132 47.335 232.44 46.4268 232.44 45.2744ZM237.025 37.8916V52.6865H232.235V50.2842C231.551 51.3096 230.779 52.0615 229.92 52.54C229.071 53.0186 228.07 53.2578 226.917 53.2578C224.945 53.2578 223.367 52.54 222.186 51.1045C221.004 49.6592 220.413 47.7256 220.413 45.3037C220.413 42.8916 221.029 40.9775 222.259 39.5615C223.499 38.1357 225.164 37.4229 227.254 37.4229C228.367 37.4229 229.324 37.6621 230.125 38.1406C230.936 38.6094 231.629 39.3369 232.205 40.3232V37.8916H237.025ZM245.433 52.6865L238.782 37.8916H244.349L246.868 44.4248C246.898 44.4932 246.932 44.5762 246.971 44.6738C247.293 45.5332 247.493 46.2217 247.571 46.7393C247.64 46.2607 247.83 45.6211 248.143 44.8203C248.211 44.6445 248.26 44.5127 248.289 44.4248L250.809 37.8916H256.243L249.52 52.6865H245.433ZM257.781 33.2773C257.781 32.4863 258.06 31.8125 258.616 31.2559C259.183 30.6992 259.862 30.4209 260.653 30.4209C261.473 30.4209 262.156 30.6943 262.703 31.2412C263.26 31.7881 263.538 32.4668 263.538 33.2773C263.538 34.0879 263.255 34.7764 262.689 35.3428C262.132 35.9092 261.453 36.1924 260.653 36.1924C259.871 36.1924 259.197 35.9043 258.631 35.3281C258.065 34.752 257.781 34.0684 257.781 33.2773ZM258.045 52.6865V37.8916H263.275V52.6865H258.045ZM277.777 45.333C277.777 44.2295 277.498 43.3604 276.942 42.7256C276.385 42.0908 275.633 41.7734 274.686 41.7734C273.729 41.7734 272.972 42.0908 272.415 42.7256C271.868 43.3604 271.595 44.2295 271.595 45.333C271.595 46.4365 271.868 47.3057 272.415 47.9404C272.962 48.5654 273.719 48.8779 274.686 48.8779C275.643 48.8779 276.395 48.5654 276.942 47.9404C277.498 47.3057 277.777 46.4365 277.777 45.333ZM282.962 45.333C282.962 46.3975 282.752 47.4082 282.332 48.3652C281.922 49.3223 281.321 50.1816 280.53 50.9434C279.73 51.7051 278.831 52.2812 277.835 52.6719C276.849 53.0625 275.799 53.2578 274.686 53.2578C273.553 53.2578 272.488 53.0625 271.492 52.6719C270.506 52.2812 269.622 51.7051 268.841 50.9434C268.06 50.2012 267.464 49.3516 267.054 48.3945C266.644 47.4277 266.439 46.4072 266.439 45.333C266.439 44.249 266.639 43.2285 267.039 42.2715C267.449 41.3145 268.05 40.4551 268.841 39.6934C269.613 38.9414 270.491 38.375 271.478 37.9941C272.474 37.6133 273.543 37.4229 274.686 37.4229C275.828 37.4229 276.893 37.6133 277.879 37.9941C278.865 38.375 279.749 38.9414 280.53 39.6934C281.331 40.4648 281.937 41.3291 282.347 42.2861C282.757 43.2432 282.962 44.2588 282.962 45.333ZM285.994 52.6865V37.8916H290.916V41.3779C291.424 40.1084 292.117 39.1562 292.996 38.5215C293.875 37.8867 294.94 37.5693 296.19 37.5693C296.395 37.5693 296.6 37.5791 296.805 37.5986C297.02 37.6084 297.235 37.6279 297.449 37.6572L296.951 42.4033C296.639 42.2959 296.331 42.2178 296.029 42.1689C295.726 42.1201 295.433 42.0957 295.15 42.0957C293.88 42.0957 292.899 42.4863 292.205 43.2676C291.522 44.0391 291.18 45.1377 291.18 46.5635V52.6865H285.994ZM297.962 47.8232H303.411L298.885 57.0078H294.842L297.962 47.8232ZM315.95 52.6865V41.583H313.738V37.8916H315.95V33.4824H321.092V37.8916H323.304V41.583H321.092V52.6865H315.95ZM325.75 52.6865V29.9814H330.877V37.9502C330.877 38.4775 330.862 38.9658 330.833 39.415C330.804 39.8643 330.76 40.2695 330.701 40.6309C331.356 39.5273 332.127 38.7168 333.016 38.1992C333.904 37.6816 334.964 37.4229 336.195 37.4229C337.152 37.4229 338.001 37.5791 338.743 37.8916C339.495 38.1943 340.106 38.6338 340.574 39.21C340.965 39.708 341.243 40.3135 341.409 41.0264C341.575 41.7393 341.658 42.8037 341.658 44.2197V52.6865H336.429V44.7617C336.429 43.5801 336.234 42.7207 335.843 42.1836C335.462 41.6465 334.847 41.3779 333.997 41.3779C332.913 41.3779 332.122 41.7783 331.624 42.5791C331.126 43.3799 330.877 44.6787 330.877 46.4756V52.6865H325.75ZM355.545 43.3848C355.447 42.5449 355.125 41.8711 354.578 41.3633C354.041 40.8555 353.377 40.6016 352.586 40.6016C351.737 40.6016 351.058 40.8359 350.55 41.3047C350.052 41.7637 349.72 42.457 349.554 43.3848H355.545ZM360.687 46.3291H349.437C349.446 47.4717 349.739 48.3555 350.316 48.9805C350.892 49.5957 351.707 49.9033 352.762 49.9033C353.553 49.9033 354.217 49.7568 354.754 49.4639C355.301 49.1611 355.716 48.7168 355.999 48.1309L359.925 49.7129C359.456 50.8457 358.626 51.7197 357.435 52.335C356.243 52.9502 354.783 53.2578 353.055 53.2578C350.477 53.2578 348.406 52.5449 346.844 51.1191C345.291 49.6836 344.515 47.7939 344.515 45.4502C344.515 43.1455 345.291 41.2314 346.844 39.708C348.406 38.1846 350.379 37.4229 352.762 37.4229C355.213 37.4229 357.147 38.1943 358.563 39.7373C359.979 41.2803 360.687 43.3945 360.687 46.0801V46.3291ZM363.719 52.6865V37.8916H368.641V41.3779C369.149 40.1084 369.842 39.1562 370.721 38.5215C371.6 37.8867 372.664 37.5693 373.914 37.5693C374.119 37.5693 374.324 37.5791 374.529 37.5986C374.744 37.6084 374.959 37.6279 375.174 37.6572L374.676 42.4033C374.363 42.2959 374.056 42.2178 373.753 42.1689C373.45 42.1201 373.157 42.0957 372.874 42.0957C371.605 42.0957 370.623 42.4863 369.93 43.2676C369.246 44.0391 368.904 45.1377 368.904 46.5635V52.6865H363.719ZM387.303 43.3848C387.205 42.5449 386.883 41.8711 386.336 41.3633C385.799 40.8555 385.135 40.6016 384.344 40.6016C383.494 40.6016 382.816 40.8359 382.308 41.3047C381.81 41.7637 381.478 42.457 381.312 43.3848H387.303ZM392.445 46.3291H381.195C381.204 47.4717 381.497 48.3555 382.073 48.9805C382.65 49.5957 383.465 49.9033 384.52 49.9033C385.311 49.9033 385.975 49.7568 386.512 49.4639C387.059 49.1611 387.474 48.7168 387.757 48.1309L391.683 49.7129C391.214 50.8457 390.384 51.7197 389.193 52.335C388.001 52.9502 386.541 53.2578 384.813 53.2578C382.235 53.2578 380.164 52.5449 378.602 51.1191C377.049 49.6836 376.273 47.7939 376.273 45.4502C376.273 43.1455 377.049 41.2314 378.602 39.708C380.164 38.1846 382.137 37.4229 384.52 37.4229C386.971 37.4229 388.904 38.1943 390.32 39.7373C391.737 41.2803 392.445 43.3945 392.445 46.0801V46.3291ZM416.131 45.2744C416.131 44.1221 415.823 43.209 415.208 42.5352C414.593 41.8613 413.753 41.5244 412.689 41.5244C411.624 41.5244 410.784 41.8613 410.169 42.5352C409.564 43.1992 409.261 44.1123 409.261 45.2744C409.261 46.4268 409.569 47.335 410.184 47.999C410.799 48.6631 411.634 48.9951 412.689 48.9951C413.753 48.9951 414.593 48.6631 415.208 47.999C415.823 47.335 416.131 46.4268 416.131 45.2744ZM420.716 37.8916V52.6865H415.926V50.2842C415.242 51.3096 414.471 52.0615 413.612 52.54C412.762 53.0186 411.761 53.2578 410.609 53.2578C408.636 53.2578 407.059 52.54 405.877 51.1045C404.695 49.6592 404.105 47.7256 404.105 45.3037C404.105 42.8916 404.72 40.9775 405.95 39.5615C407.191 38.1357 408.856 37.4229 410.945 37.4229C412.059 37.4229 413.016 37.6621 413.817 38.1406C414.627 38.6094 415.32 39.3369 415.897 40.3232V37.8916H420.716ZM424.686 52.6865V37.8916H429.608V41.3779C430.115 40.1084 430.809 39.1562 431.688 38.5215C432.567 37.8867 433.631 37.5693 434.881 37.5693C435.086 37.5693 435.291 37.5791 435.496 37.5986C435.711 37.6084 435.926 37.6279 436.141 37.6572L435.643 42.4033C435.33 42.2959 435.023 42.2178 434.72 42.1689C434.417 42.1201 434.124 42.0957 433.841 42.0957C432.571 42.0957 431.59 42.4863 430.897 43.2676C430.213 44.0391 429.871 45.1377 429.871 46.5635V52.6865H424.686ZM448.27 43.3848C448.172 42.5449 447.85 41.8711 447.303 41.3633C446.766 40.8555 446.102 40.6016 445.311 40.6016C444.461 40.6016 443.782 40.8359 443.275 41.3047C442.777 41.7637 442.445 42.457 442.279 43.3848H448.27ZM453.411 46.3291H442.161C442.171 47.4717 442.464 48.3555 443.04 48.9805C443.616 49.5957 444.432 49.9033 445.487 49.9033C446.278 49.9033 446.942 49.7568 447.479 49.4639C448.026 49.1611 448.441 48.7168 448.724 48.1309L452.65 49.7129C452.181 50.8457 451.351 51.7197 450.159 52.335C448.968 52.9502 447.508 53.2578 445.779 53.2578C443.201 53.2578 441.131 52.5449 439.569 51.1191C438.016 49.6836 437.239 47.7939 437.239 45.4502C437.239 43.1455 438.016 41.2314 439.569 39.708C441.131 38.1846 443.104 37.4229 445.487 37.4229C447.938 37.4229 449.871 38.1943 451.287 39.7373C452.703 41.2803 453.411 43.3945 453.411 46.0801V46.3291ZM48.0012 79.6631V73.4229C48.0012 72.8467 48.0109 72.3682 48.0305 71.9873C48.0598 71.5967 48.0988 71.2646 48.1477 70.9912C47.9621 71.4111 47.7522 71.8311 47.5178 72.251C47.2932 72.6709 47.0148 73.1396 46.6828 73.6572L42.7424 79.6631H48.0012ZM48.0012 88.6865V83.8818H38.2453V79.6631L46.2287 67.3584H52.8938V79.6631H55.2668V83.8818H52.8938V88.6865H48.0012ZM78.133 78.7549C77.6252 78.3057 77.1369 77.9785 76.6682 77.7734C76.1994 77.5684 75.7063 77.4658 75.1887 77.4658C74.1535 77.4658 73.3283 77.8076 72.7131 78.4912C72.1076 79.1748 71.8049 80.1025 71.8049 81.2744C71.8049 82.4072 72.1223 83.3105 72.757 83.9844C73.3918 84.6582 74.2463 84.9951 75.3205 84.9951C75.8479 84.9951 76.341 84.8926 76.8 84.6875C77.2688 84.4727 77.7131 84.1455 78.133 83.7061V88.2324C77.508 88.584 76.883 88.8428 76.258 89.0088C75.633 89.1748 74.9885 89.2578 74.3244 89.2578C72.049 89.2578 70.2033 88.5303 68.7873 87.0752C67.3811 85.6104 66.6779 83.6865 66.6779 81.3037C66.6779 78.9893 67.3957 77.0996 68.8313 75.6348C70.2766 74.1602 72.1272 73.4229 74.383 73.4229C75.135 73.4229 75.8137 73.4961 76.4191 73.6426C77.0246 73.7891 77.5959 74.0234 78.133 74.3457V78.7549ZM81.341 88.6865V65.9814H86.468V73.9502C86.468 74.4775 86.4533 74.9658 86.424 75.415C86.3947 75.8643 86.3508 76.2695 86.2922 76.6309C86.9465 75.5273 87.718 74.7168 88.6066 74.1992C89.4953 73.6816 90.5549 73.4229 91.7854 73.4229C92.7424 73.4229 93.592 73.5791 94.3342 73.8916C95.0861 74.1943 95.6965 74.6338 96.1652 75.21C96.5559 75.708 96.8342 76.3135 97.0002 77.0264C97.1662 77.7393 97.2492 78.8037 97.2492 80.2197V88.6865H92.0197V80.7617C92.0197 79.5801 91.8244 78.7207 91.4338 78.1836C91.0529 77.6465 90.4377 77.3779 89.5881 77.3779C88.5041 77.3779 87.7131 77.7783 87.215 78.5791C86.717 79.3799 86.468 80.6787 86.468 82.4756V88.6865H81.341ZM111.444 81.333C111.444 80.2295 111.165 79.3604 110.609 78.7256C110.052 78.0908 109.3 77.7734 108.353 77.7734C107.396 77.7734 106.639 78.0908 106.082 78.7256C105.535 79.3604 105.262 80.2295 105.262 81.333C105.262 82.4365 105.535 83.3057 106.082 83.9404C106.629 84.5654 107.386 84.8779 108.353 84.8779C109.31 84.8779 110.062 84.5654 110.609 83.9404C111.165 83.3057 111.444 82.4365 111.444 81.333ZM116.629 81.333C116.629 82.3975 116.419 83.4082 115.999 84.3652C115.589 85.3223 114.988 86.1816 114.197 86.9434C113.397 87.7051 112.498 88.2812 111.502 88.6719C110.516 89.0625 109.466 89.2578 108.353 89.2578C107.22 89.2578 106.155 89.0625 105.159 88.6719C104.173 88.2812 103.289 87.7051 102.508 86.9434C101.727 86.2012 101.131 85.3516 100.721 84.3945C100.311 83.4277 100.106 82.4072 100.106 81.333C100.106 80.249 100.306 79.2285 100.706 78.2715C101.116 77.3145 101.717 76.4551 102.508 75.6934C103.279 74.9414 104.158 74.375 105.145 73.9941C106.141 73.6133 107.21 73.4229 108.353 73.4229C109.495 73.4229 110.56 73.6133 111.546 73.9941C112.532 74.375 113.416 74.9414 114.197 75.6934C114.998 76.4648 115.604 77.3291 116.014 78.2861C116.424 79.2432 116.629 80.2588 116.629 81.333ZM119.515 69.2773C119.515 68.4863 119.793 67.8125 120.35 67.2559C120.916 66.6992 121.595 66.4209 122.386 66.4209C123.206 66.4209 123.89 66.6943 124.437 67.2412C124.993 67.7881 125.272 68.4668 125.272 69.2773C125.272 70.0879 124.988 70.7764 124.422 71.3428C123.865 71.9092 123.187 72.1924 122.386 72.1924C121.605 72.1924 120.931 71.9043 120.364 71.3281C119.798 70.752 119.515 70.0684 119.515 69.2773ZM119.779 88.6865V73.8916H125.008V88.6865H119.779ZM139.627 78.7549C139.119 78.3057 138.631 77.9785 138.162 77.7734C137.694 77.5684 137.2 77.4658 136.683 77.4658C135.648 77.4658 134.822 77.8076 134.207 78.4912C133.602 79.1748 133.299 80.1025 133.299 81.2744C133.299 82.4072 133.616 83.3105 134.251 83.9844C134.886 84.6582 135.74 84.9951 136.815 84.9951C137.342 84.9951 137.835 84.8926 138.294 84.6875C138.763 84.4727 139.207 84.1455 139.627 83.7061V88.2324C139.002 88.584 138.377 88.8428 137.752 89.0088C137.127 89.1748 136.483 89.2578 135.819 89.2578C133.543 89.2578 131.697 88.5303 130.281 87.0752C128.875 85.6104 128.172 83.6865 128.172 81.3037C128.172 78.9893 128.89 77.0996 130.325 75.6348C131.771 74.1602 133.621 73.4229 135.877 73.4229C136.629 73.4229 137.308 73.4961 137.913 73.6426C138.519 73.7891 139.09 74.0234 139.627 74.3457V78.7549ZM153.03 79.3848C152.933 78.5449 152.611 77.8711 152.064 77.3633C151.527 76.8555 150.863 76.6016 150.071 76.6016C149.222 76.6016 148.543 76.8359 148.035 77.3047C147.537 77.7637 147.205 78.457 147.039 79.3848H153.03ZM158.172 82.3291H146.922C146.932 83.4717 147.225 84.3555 147.801 84.9805C148.377 85.5957 149.193 85.9033 150.247 85.9033C151.038 85.9033 151.702 85.7568 152.239 85.4639C152.786 85.1611 153.201 84.7168 153.485 84.1309L157.41 85.7129C156.942 86.8457 156.112 87.7197 154.92 88.335C153.729 88.9502 152.269 89.2578 150.54 89.2578C147.962 89.2578 145.892 88.5449 144.329 87.1191C142.777 85.6836 142 83.7939 142 81.4502C142 79.1455 142.777 77.2314 144.329 75.708C145.892 74.1846 147.864 73.4229 150.247 73.4229C152.698 73.4229 154.632 74.1943 156.048 75.7373C157.464 77.2803 158.172 79.3945 158.172 82.0801V82.3291ZM159.798 87.4561L160.882 83.4717C161.644 84.1357 162.479 84.6484 163.387 85.0098C164.305 85.3613 165.228 85.5371 166.155 85.5371C166.81 85.5371 167.308 85.4346 167.65 85.2295C167.991 85.0146 168.162 84.707 168.162 84.3066C168.162 83.6523 167.474 83.1641 166.097 82.8418C165.648 82.7344 165.286 82.6416 165.013 82.5635C163.45 82.1338 162.313 81.5723 161.6 80.8789C160.897 80.1758 160.545 79.2676 160.545 78.1543C160.545 76.7188 161.082 75.5713 162.156 74.7119C163.24 73.8525 164.705 73.4229 166.551 73.4229C167.498 73.4229 168.46 73.5352 169.437 73.7598C170.423 73.9746 171.429 74.3115 172.454 74.7705L171.37 78.3594C170.677 77.8906 169.974 77.5342 169.261 77.29C168.548 77.0459 167.835 76.9238 167.122 76.9238C166.527 76.9238 166.077 77.0166 165.775 77.2021C165.472 77.3877 165.321 77.6562 165.321 78.0078C165.321 78.5352 166.004 78.9795 167.371 79.3408C167.684 79.4287 167.918 79.4922 168.074 79.5312C169.881 80.0488 171.136 80.6592 171.839 81.3623C172.552 82.0557 172.908 82.998 172.908 84.1895C172.908 85.7031 172.327 86.9287 171.165 87.8662C170.003 88.7939 168.465 89.2578 166.551 89.2578C165.252 89.2578 164.046 89.1064 162.933 88.8037C161.82 88.5107 160.775 88.0615 159.798 87.4561ZM175.53 86.2842C175.53 85.4541 175.809 84.7559 176.365 84.1895C176.932 83.623 177.63 83.3398 178.46 83.3398C179.31 83.3398 180.018 83.623 180.584 84.1895C181.151 84.7559 181.434 85.4541 181.434 86.2842C181.434 87.1143 181.146 87.8174 180.57 88.3936C180.003 88.9697 179.3 89.2578 178.46 89.2578C177.64 89.2578 176.946 88.9697 176.38 88.3936C175.814 87.8174 175.53 87.1143 175.53 86.2842ZM195.804 81.7578C196.673 82.7441 197.528 83.4814 198.367 83.9697C199.217 84.458 200.062 84.7021 200.902 84.7021C201.683 84.7021 202.322 84.4922 202.821 84.0723C203.328 83.6523 203.582 83.1201 203.582 82.4756C203.582 81.7627 203.363 81.2158 202.923 80.835C202.493 80.4443 201.512 80.0439 199.979 79.6338C197.879 79.0674 196.395 78.3301 195.526 77.4219C194.656 76.5137 194.222 75.2686 194.222 73.6865C194.222 71.6357 194.905 69.9658 196.273 68.6768C197.65 67.3779 199.432 66.7285 201.619 66.7285C202.801 66.7285 203.919 66.8896 204.974 67.2119C206.038 67.5244 207.044 68.0029 207.991 68.6475L206.16 72.8516C205.496 72.2852 204.813 71.8604 204.11 71.5771C203.416 71.2842 202.728 71.1377 202.044 71.1377C201.341 71.1377 200.77 71.3086 200.33 71.6504C199.891 71.9824 199.671 72.4121 199.671 72.9395C199.671 73.4766 199.862 73.9062 200.242 74.2285C200.633 74.5508 201.38 74.8584 202.484 75.1514L202.747 75.2246C205.13 75.8691 206.697 76.5771 207.449 77.3486C207.957 77.876 208.343 78.5107 208.607 79.2529C208.87 79.9854 209.002 80.8008 209.002 81.6992C209.002 83.9746 208.255 85.8057 206.761 87.1924C205.267 88.5693 203.275 89.2578 200.784 89.2578C199.29 89.2578 197.928 89.0039 196.697 88.4961C195.477 87.9883 194.3 87.1924 193.167 86.1084L195.804 81.7578ZM222.42 81.333C222.42 80.2295 222.142 79.3604 221.585 78.7256C221.029 78.0908 220.277 77.7734 219.329 77.7734C218.372 77.7734 217.615 78.0908 217.059 78.7256C216.512 79.3604 216.238 80.2295 216.238 81.333C216.238 82.4365 216.512 83.3057 217.059 83.9404C217.606 84.5654 218.363 84.8779 219.329 84.8779C220.286 84.8779 221.038 84.5654 221.585 83.9404C222.142 83.3057 222.42 82.4365 222.42 81.333ZM227.606 81.333C227.606 82.3975 227.396 83.4082 226.976 84.3652C226.566 85.3223 225.965 86.1816 225.174 86.9434C224.373 87.7051 223.475 88.2812 222.479 88.6719C221.492 89.0625 220.443 89.2578 219.329 89.2578C218.196 89.2578 217.132 89.0625 216.136 88.6719C215.15 88.2812 214.266 87.7051 213.485 86.9434C212.703 86.2012 212.108 85.3516 211.697 84.3945C211.287 83.4277 211.082 82.4072 211.082 81.333C211.082 80.249 211.282 79.2285 211.683 78.2715C212.093 77.3145 212.694 76.4551 213.485 75.6934C214.256 74.9414 215.135 74.375 216.121 73.9941C217.117 73.6133 218.187 73.4229 219.329 73.4229C220.472 73.4229 221.536 73.6133 222.523 73.9941C223.509 74.375 224.393 74.9414 225.174 75.6934C225.975 76.4648 226.58 77.3291 226.99 78.2861C227.401 79.2432 227.606 80.2588 227.606 81.333ZM232.205 83.8232H237.654L233.128 93.0078H229.085L232.205 83.8232ZM261.092 73.8916L263.275 80.4248L263.319 80.542C263.641 81.46 263.846 82.1924 263.934 82.7393C263.992 82.4268 264.066 82.0996 264.154 81.7578C264.251 81.416 264.388 80.9766 264.564 80.4395L266.79 73.8916H272.196L265.985 88.6865H262.293L260.096 81.9922C259.979 81.6113 259.871 81.2305 259.774 80.8496C259.686 80.459 259.603 80.0732 259.525 79.6924C259.417 80.2783 259.227 81.0156 258.953 81.9043L258.924 82.0068L256.741 88.6865H253.05L246.868 73.8916H252.244L254.456 80.4395C254.622 80.918 254.754 81.3379 254.852 81.6992C254.949 82.0508 255.028 82.3975 255.086 82.7393C255.174 82.251 255.364 81.5723 255.657 80.7031C255.696 80.5859 255.726 80.498 255.745 80.4395L257.943 73.8916H261.092ZM273.499 88.6865V65.9814H278.626V73.9502C278.626 74.4775 278.612 74.9658 278.582 75.415C278.553 75.8643 278.509 76.2695 278.45 76.6309C279.105 75.5273 279.876 74.7168 280.765 74.1992C281.654 73.6816 282.713 73.4229 283.944 73.4229C284.901 73.4229 285.75 73.5791 286.492 73.8916C287.244 74.1943 287.855 74.6338 288.323 75.21C288.714 75.708 288.992 76.3135 289.158 77.0264C289.324 77.7393 289.407 78.8037 289.407 80.2197V88.6865H284.178V80.7617C284.178 79.5801 283.983 78.7207 283.592 78.1836C283.211 77.6465 282.596 77.3779 281.746 77.3779C280.662 77.3779 279.871 77.7783 279.373 78.5791C278.875 79.3799 278.626 80.6787 278.626 82.4756V88.6865H273.499ZM304.378 81.2744C304.378 80.1221 304.07 79.209 303.455 78.5352C302.84 77.8613 302 77.5244 300.936 77.5244C299.871 77.5244 299.031 77.8613 298.416 78.5352C297.811 79.1992 297.508 80.1123 297.508 81.2744C297.508 82.4268 297.816 83.335 298.431 83.999C299.046 84.6631 299.881 84.9951 300.936 84.9951C302 84.9951 302.84 84.6631 303.455 83.999C304.07 83.335 304.378 82.4268 304.378 81.2744ZM308.963 73.8916V88.6865H304.173V86.2842C303.489 87.3096 302.718 88.0615 301.859 88.54C301.009 89.0186 300.008 89.2578 298.856 89.2578C296.883 89.2578 295.306 88.54 294.124 87.1045C292.943 85.6592 292.352 83.7256 292.352 81.3037C292.352 78.8916 292.967 76.9775 294.197 75.5615C295.438 74.1357 297.103 73.4229 299.193 73.4229C300.306 73.4229 301.263 73.6621 302.064 74.1406C302.874 74.6094 303.568 75.3369 304.144 76.3232V73.8916H308.963ZM313.709 88.6865V77.583H311.497V73.8916H313.709V69.4824H318.851V73.8916H321.063V77.583H318.851V88.6865H313.709ZM344.222 81.3037C344.222 80.1514 343.914 79.2432 343.299 78.5791C342.694 77.915 341.863 77.583 340.809 77.583C339.754 77.583 338.924 77.915 338.319 78.5791C337.713 79.2432 337.41 80.1514 337.41 81.3037C337.41 82.4658 337.708 83.3789 338.304 84.043C338.909 84.6973 339.744 85.0244 340.809 85.0244C341.863 85.0244 342.694 84.6924 343.299 84.0283C343.914 83.3643 344.222 82.4561 344.222 81.3037ZM348.851 65.9814V88.6865H344.046V86.2842C343.382 87.2803 342.635 88.0273 341.805 88.5254C340.975 89.0137 340.052 89.2578 339.036 89.2578C336.956 89.2578 335.301 88.54 334.07 87.1045C332.84 85.6689 332.225 83.7354 332.225 81.3037C332.225 78.9502 332.835 77.0508 334.056 75.6055C335.286 74.1504 336.888 73.4229 338.861 73.4229C340.111 73.4229 341.126 73.6475 341.907 74.0967C342.698 74.5459 343.402 75.2979 344.017 76.3525C343.958 76.001 343.914 75.6055 343.885 75.166C343.856 74.7168 343.841 74.2334 343.841 73.7158V65.9814H348.851ZM363.221 81.333C363.221 80.2295 362.943 79.3604 362.386 78.7256C361.829 78.0908 361.077 77.7734 360.13 77.7734C359.173 77.7734 358.416 78.0908 357.86 78.7256C357.313 79.3604 357.039 80.2295 357.039 81.333C357.039 82.4365 357.313 83.3057 357.86 83.9404C358.406 84.5654 359.163 84.8779 360.13 84.8779C361.087 84.8779 361.839 84.5654 362.386 83.9404C362.943 83.3057 363.221 82.4365 363.221 81.333ZM368.406 81.333C368.406 82.3975 368.196 83.4082 367.777 84.3652C367.366 85.3223 366.766 86.1816 365.975 86.9434C365.174 87.7051 364.276 88.2812 363.279 88.6719C362.293 89.0625 361.243 89.2578 360.13 89.2578C358.997 89.2578 357.933 89.0625 356.937 88.6719C355.95 88.2812 355.067 87.7051 354.285 86.9434C353.504 86.2012 352.908 85.3516 352.498 84.3945C352.088 83.4277 351.883 82.4072 351.883 81.333C351.883 80.249 352.083 79.2285 352.484 78.2715C352.894 77.3145 353.494 76.4551 354.285 75.6934C355.057 74.9414 355.936 74.375 356.922 73.9941C357.918 73.6133 358.987 73.4229 360.13 73.4229C361.273 73.4229 362.337 73.6133 363.323 73.9941C364.31 74.375 365.194 74.9414 365.975 75.6934C366.776 76.4648 367.381 77.3291 367.791 78.2861C368.201 79.2432 368.406 80.2588 368.406 81.333ZM380.008 95.2197L384.168 86.4307L378.206 73.8916H383.992L386.058 79.2383C386.234 79.6875 386.38 80.1074 386.497 80.498C386.614 80.8789 386.702 81.2354 386.761 81.5674C386.82 81.2158 386.903 80.8545 387.01 80.4834C387.127 80.1025 387.274 79.6875 387.449 79.2383L389.544 73.8916H395.125L385.823 95.2197H380.008ZM407.283 81.333C407.283 80.2295 407.005 79.3604 406.448 78.7256C405.892 78.0908 405.14 77.7734 404.193 77.7734C403.236 77.7734 402.479 78.0908 401.922 78.7256C401.375 79.3604 401.102 80.2295 401.102 81.333C401.102 82.4365 401.375 83.3057 401.922 83.9404C402.469 84.5654 403.226 84.8779 404.193 84.8779C405.15 84.8779 405.902 84.5654 406.448 83.9404C407.005 83.3057 407.283 82.4365 407.283 81.333ZM412.469 81.333C412.469 82.3975 412.259 83.4082 411.839 84.3652C411.429 85.3223 410.828 86.1816 410.037 86.9434C409.237 87.7051 408.338 88.2812 407.342 88.6719C406.356 89.0625 405.306 89.2578 404.193 89.2578C403.06 89.2578 401.995 89.0625 400.999 88.6719C400.013 88.2812 399.129 87.7051 398.348 86.9434C397.567 86.2012 396.971 85.3516 396.561 84.3945C396.151 83.4277 395.945 82.4072 395.945 81.333C395.945 80.249 396.146 79.2285 396.546 78.2715C396.956 77.3145 397.557 76.4551 398.348 75.6934C399.119 74.9414 399.998 74.375 400.985 73.9941C401.981 73.6133 403.05 73.4229 404.193 73.4229C405.335 73.4229 406.4 73.6133 407.386 73.9941C408.372 74.375 409.256 74.9414 410.037 75.6934C410.838 76.4648 411.444 77.3291 411.854 78.2861C412.264 79.2432 412.469 80.2588 412.469 81.333ZM430.648 73.8916V81.4502C430.648 83.1201 430.511 84.3604 430.237 85.1709C429.974 85.9717 429.525 86.6846 428.89 87.3096C428.236 87.9639 427.42 88.4521 426.444 88.7744C425.467 89.0967 424.32 89.2578 423.001 89.2578C421.693 89.2578 420.55 89.0967 419.573 88.7744C418.607 88.4521 417.781 87.9639 417.098 87.3096C416.463 86.7041 416.014 85.9961 415.75 85.1855C415.487 84.3652 415.355 83.1201 415.355 81.4502V73.8916H420.335V81.7871C420.335 83.0273 420.54 83.9258 420.95 84.4824C421.361 85.0293 422.025 85.3027 422.943 85.3027C423.87 85.3027 424.534 85.0342 424.935 84.4971C425.345 83.9502 425.55 83.0469 425.55 81.7871V73.8916H430.648ZM42.215 124.687V113.583H40.0031V109.892H42.215V105.482H47.3566V109.892H49.5686V113.583H47.3566V124.687H42.215ZM52.0148 124.687V101.981H57.1418V109.95C57.1418 110.478 57.1272 110.966 57.0979 111.415C57.0686 111.864 57.0246 112.27 56.966 112.631C57.6203 111.527 58.3918 110.717 59.2805 110.199C60.1691 109.682 61.2287 109.423 62.4592 109.423C63.4162 109.423 64.2658 109.579 65.008 109.892C65.76 110.194 66.3703 110.634 66.8391 111.21C67.2297 111.708 67.508 112.313 67.674 113.026C67.84 113.739 67.923 114.804 67.923 116.22V124.687H62.6936V116.762C62.6936 115.58 62.4982 114.721 62.1076 114.184C61.7268 113.646 61.1115 113.378 60.2619 113.378C59.1779 113.378 58.3869 113.778 57.8889 114.579C57.3908 115.38 57.1418 116.679 57.1418 118.476V124.687H52.0148ZM71.4973 105.277C71.4973 104.486 71.7756 103.812 72.3322 103.256C72.8986 102.699 73.5773 102.421 74.3684 102.421C75.1887 102.421 75.8723 102.694 76.4191 103.241C76.9758 103.788 77.2541 104.467 77.2541 105.277C77.2541 106.088 76.9709 106.776 76.4045 107.343C75.8479 107.909 75.1691 108.192 74.3684 108.192C73.5871 108.192 72.9133 107.904 72.3469 107.328C71.7805 106.752 71.4973 106.068 71.4973 105.277ZM71.7609 124.687V109.892H76.9904V124.687H71.7609ZM80.9895 124.687V109.892H85.7648V112.895C86.4582 111.693 87.259 110.814 88.1672 110.258C89.0754 109.701 90.1643 109.423 91.4338 109.423C92.3908 109.423 93.2404 109.579 93.9826 109.892C94.7346 110.194 95.3449 110.634 95.8137 111.21C96.2043 111.708 96.4826 112.313 96.6486 113.026C96.8147 113.739 96.8977 114.804 96.8977 116.22V124.687H91.6682V116.762C91.6682 115.58 91.4729 114.721 91.0822 114.184C90.7014 113.646 90.0861 113.378 89.2365 113.378C88.1525 113.378 87.3615 113.778 86.8635 114.579C86.3654 115.38 86.1164 116.679 86.1164 118.476V124.687H80.9895ZM100.618 124.687V101.981H105.745V116.352L111.121 109.892H117.596L110.946 117.011L118.196 124.687H111.326L105.745 118.109V124.687H100.618ZM123.763 122.284C123.763 121.454 124.051 120.751 124.627 120.175C125.203 119.599 125.906 119.311 126.737 119.311C127.576 119.311 128.275 119.599 128.831 120.175C129.398 120.741 129.681 121.444 129.681 122.284C129.681 123.124 129.398 123.832 128.831 124.408C128.265 124.975 127.567 125.258 126.737 125.258C125.916 125.258 125.213 124.97 124.627 124.394C124.051 123.817 123.763 123.114 123.763 122.284ZM129.432 117.421H124.393V111.371H125.96C127.064 111.371 127.904 111.146 128.48 110.697C129.056 110.248 129.344 109.604 129.344 108.764C129.344 108.09 129.119 107.523 128.67 107.064C128.231 106.596 127.689 106.361 127.044 106.361C126.361 106.361 125.823 106.547 125.433 106.918C125.052 107.279 124.837 107.812 124.788 108.515H119.779V108.456C119.779 106.552 120.457 105.033 121.815 103.9C123.172 102.758 124.993 102.187 127.279 102.187C129.349 102.187 131.014 102.787 132.274 103.988C133.543 105.189 134.178 106.767 134.178 108.72C134.178 110.351 133.738 111.679 132.86 112.704C131.99 113.729 130.853 114.262 129.446 114.301L129.432 117.421ZM162.376 103.241L165.071 113.437C165.198 113.896 165.316 114.374 165.423 114.872C165.53 115.37 165.643 115.941 165.76 116.586C165.906 115.824 166.029 115.199 166.126 114.711C166.234 114.213 166.336 113.788 166.434 113.437L168.953 103.241H174.857L168.792 124.687H163.372L160.721 115.531C160.623 115.209 160.462 114.579 160.238 113.642C160.14 113.222 160.062 112.895 160.003 112.66C159.954 112.865 159.886 113.153 159.798 113.524C159.573 114.472 159.403 115.141 159.285 115.531L156.678 124.687H151.243L145.194 103.241H151.097L153.558 113.495C153.675 114.022 153.787 114.55 153.895 115.077C154.012 115.604 154.119 116.146 154.217 116.703C154.305 116.293 154.398 115.863 154.495 115.414C154.603 114.965 154.759 114.325 154.964 113.495L157.659 103.241H162.376ZM176.527 124.687V101.981H181.654V109.95C181.654 110.478 181.639 110.966 181.61 111.415C181.58 111.864 181.536 112.27 181.478 112.631C182.132 111.527 182.904 110.717 183.792 110.199C184.681 109.682 185.74 109.423 186.971 109.423C187.928 109.423 188.778 109.579 189.52 109.892C190.272 110.194 190.882 110.634 191.351 111.21C191.741 111.708 192.02 112.313 192.186 113.026C192.352 113.739 192.435 114.804 192.435 116.22V124.687H187.205V116.762C187.205 115.58 187.01 114.721 186.619 114.184C186.238 113.646 185.623 113.378 184.774 113.378C183.69 113.378 182.899 113.778 182.401 114.579C181.903 115.38 181.654 116.679 181.654 118.476V124.687H176.527ZM207.405 117.274C207.405 116.122 207.098 115.209 206.483 114.535C205.867 113.861 205.028 113.524 203.963 113.524C202.899 113.524 202.059 113.861 201.444 114.535C200.838 115.199 200.535 116.112 200.535 117.274C200.535 118.427 200.843 119.335 201.458 119.999C202.073 120.663 202.908 120.995 203.963 120.995C205.028 120.995 205.867 120.663 206.483 119.999C207.098 119.335 207.405 118.427 207.405 117.274ZM211.99 109.892V124.687H207.2V122.284C206.517 123.31 205.745 124.062 204.886 124.54C204.036 125.019 203.035 125.258 201.883 125.258C199.91 125.258 198.333 124.54 197.152 123.104C195.97 121.659 195.379 119.726 195.379 117.304C195.379 114.892 195.994 112.978 197.225 111.562C198.465 110.136 200.13 109.423 202.22 109.423C203.333 109.423 204.29 109.662 205.091 110.141C205.902 110.609 206.595 111.337 207.171 112.323V109.892H211.99ZM216.737 124.687V113.583H214.525V109.892H216.737V105.482H221.878V109.892H224.09V113.583H221.878V124.687H216.737ZM247.645 109.892L249.827 116.425L249.871 116.542C250.194 117.46 250.399 118.192 250.487 118.739C250.545 118.427 250.618 118.1 250.706 117.758C250.804 117.416 250.941 116.977 251.116 116.439L253.343 109.892H258.748L252.537 124.687H248.846L246.649 117.992C246.531 117.611 246.424 117.23 246.326 116.85C246.238 116.459 246.155 116.073 246.077 115.692C245.97 116.278 245.779 117.016 245.506 117.904L245.477 118.007L243.294 124.687H239.603L233.421 109.892H238.797L241.009 116.439C241.175 116.918 241.307 117.338 241.404 117.699C241.502 118.051 241.58 118.397 241.639 118.739C241.727 118.251 241.917 117.572 242.21 116.703C242.249 116.586 242.279 116.498 242.298 116.439L244.495 109.892H247.645ZM270.555 117.333C270.555 116.229 270.277 115.36 269.72 114.726C269.163 114.091 268.411 113.773 267.464 113.773C266.507 113.773 265.75 114.091 265.194 114.726C264.647 115.36 264.373 116.229 264.373 117.333C264.373 118.437 264.647 119.306 265.194 119.94C265.74 120.565 266.497 120.878 267.464 120.878C268.421 120.878 269.173 120.565 269.72 119.94C270.277 119.306 270.555 118.437 270.555 117.333ZM275.74 117.333C275.74 118.397 275.53 119.408 275.111 120.365C274.7 121.322 274.1 122.182 273.309 122.943C272.508 123.705 271.61 124.281 270.613 124.672C269.627 125.062 268.577 125.258 267.464 125.258C266.331 125.258 265.267 125.062 264.271 124.672C263.284 124.281 262.401 123.705 261.619 122.943C260.838 122.201 260.242 121.352 259.832 120.395C259.422 119.428 259.217 118.407 259.217 117.333C259.217 116.249 259.417 115.229 259.818 114.271C260.228 113.314 260.828 112.455 261.619 111.693C262.391 110.941 263.27 110.375 264.256 109.994C265.252 109.613 266.321 109.423 267.464 109.423C268.607 109.423 269.671 109.613 270.657 109.994C271.644 110.375 272.528 110.941 273.309 111.693C274.11 112.465 274.715 113.329 275.125 114.286C275.535 115.243 275.74 116.259 275.74 117.333ZM293.919 109.892V117.45C293.919 119.12 293.782 120.36 293.509 121.171C293.245 121.972 292.796 122.685 292.161 123.31C291.507 123.964 290.692 124.452 289.715 124.774C288.738 125.097 287.591 125.258 286.273 125.258C284.964 125.258 283.821 125.097 282.845 124.774C281.878 124.452 281.053 123.964 280.369 123.31C279.735 122.704 279.285 121.996 279.022 121.186C278.758 120.365 278.626 119.12 278.626 117.45V109.892H283.607V117.787C283.607 119.027 283.812 119.926 284.222 120.482C284.632 121.029 285.296 121.303 286.214 121.303C287.142 121.303 287.806 121.034 288.206 120.497C288.616 119.95 288.821 119.047 288.821 117.787V109.892H293.919ZM297.816 124.687V101.981H303.045V124.687H297.816ZM318.353 117.304C318.353 116.151 318.045 115.243 317.43 114.579C316.824 113.915 315.994 113.583 314.94 113.583C313.885 113.583 313.055 113.915 312.449 114.579C311.844 115.243 311.541 116.151 311.541 117.304C311.541 118.466 311.839 119.379 312.435 120.043C313.04 120.697 313.875 121.024 314.94 121.024C315.994 121.024 316.824 120.692 317.43 120.028C318.045 119.364 318.353 118.456 318.353 117.304ZM322.982 101.981V124.687H318.177V122.284C317.513 123.28 316.766 124.027 315.936 124.525C315.106 125.014 314.183 125.258 313.167 125.258C311.087 125.258 309.432 124.54 308.201 123.104C306.971 121.669 306.356 119.735 306.356 117.304C306.356 114.95 306.966 113.051 308.187 111.605C309.417 110.15 311.019 109.423 312.991 109.423C314.241 109.423 315.257 109.647 316.038 110.097C316.829 110.546 317.532 111.298 318.148 112.353C318.089 112.001 318.045 111.605 318.016 111.166C317.987 110.717 317.972 110.233 317.972 109.716V101.981H322.982ZM340.911 117.304C340.911 118.456 341.209 119.364 341.805 120.028C342.41 120.692 343.24 121.024 344.295 121.024C345.36 121.024 346.195 120.697 346.8 120.043C347.405 119.379 347.708 118.466 347.708 117.304C347.708 116.151 347.401 115.243 346.785 114.579C346.18 113.915 345.35 113.583 344.295 113.583C343.24 113.583 342.41 113.915 341.805 114.579C341.209 115.243 340.911 116.151 340.911 117.304ZM336.282 101.981H341.263V109.716C341.263 110.341 341.248 110.863 341.219 111.283C341.199 111.693 341.165 112.05 341.116 112.353C341.722 111.298 342.415 110.546 343.196 110.097C343.987 109.647 345.013 109.423 346.273 109.423C348.245 109.423 349.842 110.15 351.063 111.605C352.293 113.051 352.908 114.95 352.908 117.304C352.908 119.735 352.288 121.669 351.048 123.104C349.818 124.54 348.167 125.258 346.097 125.258C345.081 125.258 344.158 125.014 343.328 124.525C342.498 124.027 341.751 123.28 341.087 122.284V124.687H336.282V101.981ZM366.253 115.385C366.155 114.545 365.833 113.871 365.286 113.363C364.749 112.855 364.085 112.602 363.294 112.602C362.445 112.602 361.766 112.836 361.258 113.305C360.76 113.764 360.428 114.457 360.262 115.385H366.253ZM371.395 118.329H360.145C360.154 119.472 360.447 120.355 361.024 120.98C361.6 121.596 362.415 121.903 363.47 121.903C364.261 121.903 364.925 121.757 365.462 121.464C366.009 121.161 366.424 120.717 366.707 120.131L370.633 121.713C370.164 122.846 369.334 123.72 368.143 124.335C366.951 124.95 365.491 125.258 363.763 125.258C361.185 125.258 359.114 124.545 357.552 123.119C355.999 121.684 355.223 119.794 355.223 117.45C355.223 115.146 355.999 113.231 357.552 111.708C359.114 110.185 361.087 109.423 363.47 109.423C365.921 109.423 367.855 110.194 369.271 111.737C370.687 113.28 371.395 115.395 371.395 118.08V118.329ZM384.608 124.687V113.583H382.396V109.892H384.608V105.482H389.749V109.892H391.961V113.583H389.749V124.687H384.608ZM394.407 124.687V101.981H399.534V109.95C399.534 110.478 399.52 110.966 399.49 111.415C399.461 111.864 399.417 112.27 399.359 112.631C400.013 111.527 400.784 110.717 401.673 110.199C402.562 109.682 403.621 109.423 404.852 109.423C405.809 109.423 406.658 109.579 407.401 109.892C408.153 110.194 408.763 110.634 409.232 111.21C409.622 111.708 409.901 112.313 410.067 113.026C410.233 113.739 410.316 114.804 410.316 116.22V124.687H405.086V116.762C405.086 115.58 404.891 114.721 404.5 114.184C404.119 113.646 403.504 113.378 402.654 113.378C401.57 113.378 400.779 113.778 400.281 114.579C399.783 115.38 399.534 116.679 399.534 118.476V124.687H394.407ZM424.202 115.385C424.105 114.545 423.782 113.871 423.236 113.363C422.698 112.855 422.034 112.602 421.243 112.602C420.394 112.602 419.715 112.836 419.207 113.305C418.709 113.764 418.377 114.457 418.211 115.385H424.202ZM429.344 118.329H418.094C418.104 119.472 418.397 120.355 418.973 120.98C419.549 121.596 420.364 121.903 421.419 121.903C422.21 121.903 422.874 121.757 423.411 121.464C423.958 121.161 424.373 120.717 424.656 120.131L428.582 121.713C428.113 122.846 427.283 123.72 426.092 124.335C424.901 124.95 423.441 125.258 421.712 125.258C419.134 125.258 417.064 124.545 415.501 123.119C413.948 121.684 413.172 119.794 413.172 117.45C413.172 115.146 413.948 113.231 415.501 111.708C417.064 110.185 419.036 109.423 421.419 109.423C423.87 109.423 425.804 110.194 427.22 111.737C428.636 113.28 429.344 115.395 429.344 118.08V118.329ZM27.8742 153.304C27.8742 154.456 28.1721 155.364 28.7678 156.028C29.3732 156.692 30.2033 157.024 31.258 157.024C32.3225 157.024 33.1574 156.697 33.7629 156.043C34.3684 155.379 34.6711 154.466 34.6711 153.304C34.6711 152.151 34.3635 151.243 33.7482 150.579C33.1428 149.915 32.3127 149.583 31.258 149.583C30.2033 149.583 29.3732 149.915 28.7678 150.579C28.1721 151.243 27.8742 152.151 27.8742 153.304ZM23.2453 137.981H28.2258V145.716C28.2258 146.341 28.2111 146.863 28.1818 147.283C28.1623 147.693 28.1281 148.05 28.0793 148.353C28.6848 147.298 29.3781 146.546 30.1594 146.097C30.9504 145.647 31.9758 145.423 33.2355 145.423C35.2082 145.423 36.8049 146.15 38.0256 147.605C39.2561 149.051 39.8713 150.95 39.8713 153.304C39.8713 155.735 39.2512 157.669 38.0109 159.104C36.7805 160.54 35.1301 161.258 33.0598 161.258C32.0441 161.258 31.1213 161.014 30.2912 160.525C29.4611 160.027 28.7141 159.28 28.05 158.284V160.687H23.2453V137.981ZM53.216 151.385C53.1184 150.545 52.7961 149.871 52.2492 149.363C51.7121 148.855 51.048 148.602 50.257 148.602C49.4074 148.602 48.7287 148.836 48.2209 149.305C47.7229 149.764 47.3908 150.457 47.2248 151.385H53.216ZM58.3576 154.329H47.1076C47.1174 155.472 47.4104 156.355 47.9865 156.98C48.5627 157.596 49.3781 157.903 50.4328 157.903C51.2238 157.903 51.8879 157.757 52.425 157.464C52.9719 157.161 53.3869 156.717 53.6701 156.131L57.5959 157.713C57.1272 158.846 56.2971 159.72 55.1057 160.335C53.9143 160.95 52.4543 161.258 50.7258 161.258C48.1477 161.258 46.0773 160.545 44.5148 159.119C42.9621 157.684 42.1857 155.794 42.1857 153.45C42.1857 151.146 42.9621 149.231 44.5148 147.708C46.0773 146.185 48.05 145.423 50.4328 145.423C52.884 145.423 54.8176 146.194 56.2336 147.737C57.6496 149.28 58.3576 151.395 58.3576 154.08V154.329ZM59.9836 159.456L61.0676 155.472C61.8293 156.136 62.6643 156.648 63.5725 157.01C64.4904 157.361 65.4133 157.537 66.341 157.537C66.9953 157.537 67.4934 157.435 67.8352 157.229C68.177 157.015 68.3479 156.707 68.3479 156.307C68.3479 155.652 67.6594 155.164 66.2824 154.842C65.8332 154.734 65.4719 154.642 65.1984 154.563C63.6359 154.134 62.4982 153.572 61.7854 152.879C61.0822 152.176 60.7307 151.268 60.7307 150.154C60.7307 148.719 61.2678 147.571 62.342 146.712C63.426 145.853 64.8908 145.423 66.7365 145.423C67.6838 145.423 68.6457 145.535 69.6223 145.76C70.6086 145.975 71.6145 146.312 72.6398 146.771L71.5559 150.359C70.8625 149.891 70.1594 149.534 69.4465 149.29C68.7336 149.046 68.0207 148.924 67.3078 148.924C66.7121 148.924 66.2629 149.017 65.9602 149.202C65.6574 149.388 65.5061 149.656 65.5061 150.008C65.5061 150.535 66.1897 150.979 67.5568 151.341C67.8693 151.429 68.1037 151.492 68.26 151.531C70.0666 152.049 71.3215 152.659 72.0246 153.362C72.7375 154.056 73.0939 154.998 73.0939 156.189C73.0939 157.703 72.5129 158.929 71.3508 159.866C70.1887 160.794 68.6506 161.258 66.7365 161.258C65.4377 161.258 64.2316 161.106 63.1184 160.804C62.0051 160.511 60.9602 160.062 59.9836 159.456ZM76.6975 160.687V149.583H74.4855V145.892H76.6975V141.482H81.8391V145.892H84.051V149.583H81.8391V160.687H76.6975ZM106.522 150.755C106.014 150.306 105.526 149.979 105.057 149.773C104.588 149.568 104.095 149.466 103.577 149.466C102.542 149.466 101.717 149.808 101.102 150.491C100.496 151.175 100.194 152.103 100.194 153.274C100.194 154.407 100.511 155.311 101.146 155.984C101.78 156.658 102.635 156.995 103.709 156.995C104.237 156.995 104.73 156.893 105.189 156.688C105.657 156.473 106.102 156.146 106.522 155.706V160.232C105.897 160.584 105.272 160.843 104.647 161.009C104.022 161.175 103.377 161.258 102.713 161.258C100.438 161.258 98.592 160.53 97.176 159.075C95.7697 157.61 95.0666 155.687 95.0666 153.304C95.0666 150.989 95.7844 149.1 97.2199 147.635C98.6652 146.16 100.516 145.423 102.772 145.423C103.524 145.423 104.202 145.496 104.808 145.643C105.413 145.789 105.985 146.023 106.522 146.346V150.755ZM109.73 160.687V137.981H114.857V145.95C114.857 146.478 114.842 146.966 114.813 147.415C114.783 147.864 114.739 148.27 114.681 148.631C115.335 147.527 116.107 146.717 116.995 146.199C117.884 145.682 118.944 145.423 120.174 145.423C121.131 145.423 121.981 145.579 122.723 145.892C123.475 146.194 124.085 146.634 124.554 147.21C124.945 147.708 125.223 148.313 125.389 149.026C125.555 149.739 125.638 150.804 125.638 152.22V160.687H120.408V152.762C120.408 151.58 120.213 150.721 119.822 150.184C119.442 149.646 118.826 149.378 117.977 149.378C116.893 149.378 116.102 149.778 115.604 150.579C115.106 151.38 114.857 152.679 114.857 154.476V160.687H109.73ZM139.832 153.333C139.832 152.229 139.554 151.36 138.997 150.726C138.441 150.091 137.689 149.773 136.741 149.773C135.784 149.773 135.028 150.091 134.471 150.726C133.924 151.36 133.651 152.229 133.651 153.333C133.651 154.437 133.924 155.306 134.471 155.94C135.018 156.565 135.775 156.878 136.741 156.878C137.698 156.878 138.45 156.565 138.997 155.94C139.554 155.306 139.832 154.437 139.832 153.333ZM145.018 153.333C145.018 154.397 144.808 155.408 144.388 156.365C143.978 157.322 143.377 158.182 142.586 158.943C141.785 159.705 140.887 160.281 139.891 160.672C138.904 161.062 137.855 161.258 136.741 161.258C135.609 161.258 134.544 161.062 133.548 160.672C132.562 160.281 131.678 159.705 130.897 158.943C130.115 158.201 129.52 157.352 129.11 156.395C128.699 155.428 128.494 154.407 128.494 153.333C128.494 152.249 128.695 151.229 129.095 150.271C129.505 149.314 130.106 148.455 130.897 147.693C131.668 146.941 132.547 146.375 133.533 145.994C134.529 145.613 135.599 145.423 136.741 145.423C137.884 145.423 138.948 145.613 139.935 145.994C140.921 146.375 141.805 146.941 142.586 147.693C143.387 148.465 143.992 149.329 144.403 150.286C144.813 151.243 145.018 152.259 145.018 153.333ZM147.904 141.277C147.904 140.486 148.182 139.812 148.738 139.256C149.305 138.699 149.984 138.421 150.775 138.421C151.595 138.421 152.279 138.694 152.825 139.241C153.382 139.788 153.66 140.467 153.66 141.277C153.66 142.088 153.377 142.776 152.811 143.343C152.254 143.909 151.575 144.192 150.775 144.192C149.993 144.192 149.32 143.904 148.753 143.328C148.187 142.752 147.904 142.068 147.904 141.277ZM148.167 160.687V145.892H153.397V160.687H148.167ZM168.016 150.755C167.508 150.306 167.02 149.979 166.551 149.773C166.082 149.568 165.589 149.466 165.071 149.466C164.036 149.466 163.211 149.808 162.596 150.491C161.99 151.175 161.688 152.103 161.688 153.274C161.688 154.407 162.005 155.311 162.64 155.984C163.275 156.658 164.129 156.995 165.203 156.995C165.731 156.995 166.224 156.893 166.683 156.688C167.152 156.473 167.596 156.146 168.016 155.706V160.232C167.391 160.584 166.766 160.843 166.141 161.009C165.516 161.175 164.871 161.258 164.207 161.258C161.932 161.258 160.086 160.53 158.67 159.075C157.264 157.61 156.561 155.687 156.561 153.304C156.561 150.989 157.279 149.1 158.714 147.635C160.159 146.16 162.01 145.423 164.266 145.423C165.018 145.423 165.696 145.496 166.302 145.643C166.907 145.789 167.479 146.023 168.016 146.346V150.755ZM181.419 151.385C181.321 150.545 180.999 149.871 180.452 149.363C179.915 148.855 179.251 148.602 178.46 148.602C177.611 148.602 176.932 148.836 176.424 149.305C175.926 149.764 175.594 150.457 175.428 151.385H181.419ZM186.561 154.329H175.311C175.321 155.472 175.613 156.355 176.19 156.98C176.766 157.596 177.581 157.903 178.636 157.903C179.427 157.903 180.091 157.757 180.628 157.464C181.175 157.161 181.59 156.717 181.873 156.131L185.799 157.713C185.33 158.846 184.5 159.72 183.309 160.335C182.117 160.95 180.657 161.258 178.929 161.258C176.351 161.258 174.28 160.545 172.718 159.119C171.165 157.684 170.389 155.794 170.389 153.45C170.389 151.146 171.165 149.231 172.718 147.708C174.28 146.185 176.253 145.423 178.636 145.423C181.087 145.423 183.021 146.194 184.437 147.737C185.853 149.28 186.561 151.395 186.561 154.08V154.329ZM198.851 141.277C198.851 140.486 199.129 139.812 199.686 139.256C200.252 138.699 200.931 138.421 201.722 138.421C202.542 138.421 203.226 138.694 203.773 139.241C204.329 139.788 204.608 140.467 204.608 141.277C204.608 142.088 204.324 142.776 203.758 143.343C203.201 143.909 202.523 144.192 201.722 144.192C200.941 144.192 200.267 143.904 199.7 143.328C199.134 142.752 198.851 142.068 198.851 141.277ZM199.114 160.687V145.892H204.344V160.687H199.114ZM208.343 160.687V145.892H213.118V148.895C213.812 147.693 214.613 146.814 215.521 146.258C216.429 145.701 217.518 145.423 218.787 145.423C219.744 145.423 220.594 145.579 221.336 145.892C222.088 146.194 222.698 146.634 223.167 147.21C223.558 147.708 223.836 148.313 224.002 149.026C224.168 149.739 224.251 150.804 224.251 152.22V160.687H219.022V152.762C219.022 151.58 218.826 150.721 218.436 150.184C218.055 149.646 217.44 149.378 216.59 149.378C215.506 149.378 214.715 149.778 214.217 150.579C213.719 151.38 213.47 152.679 213.47 154.476V160.687H208.343ZM238.153 160.687V149.583H235.941V145.892H238.153V141.482H243.294V145.892H245.506V149.583H243.294V160.687H238.153ZM247.952 160.687V137.981H253.079V145.95C253.079 146.478 253.065 146.966 253.035 147.415C253.006 147.864 252.962 148.27 252.904 148.631C253.558 147.527 254.329 146.717 255.218 146.199C256.107 145.682 257.166 145.423 258.397 145.423C259.354 145.423 260.203 145.579 260.946 145.892C261.697 146.194 262.308 146.634 262.777 147.21C263.167 147.708 263.446 148.313 263.612 149.026C263.778 149.739 263.861 150.804 263.861 152.22V160.687H258.631V152.762C258.631 151.58 258.436 150.721 258.045 150.184C257.664 149.646 257.049 149.378 256.199 149.378C255.115 149.378 254.324 149.778 253.826 150.579C253.328 151.38 253.079 152.679 253.079 154.476V160.687H247.952ZM267.435 141.277C267.435 140.486 267.713 139.812 268.27 139.256C268.836 138.699 269.515 138.421 270.306 138.421C271.126 138.421 271.81 138.694 272.357 139.241C272.913 139.788 273.192 140.467 273.192 141.277C273.192 142.088 272.908 142.776 272.342 143.343C271.785 143.909 271.107 144.192 270.306 144.192C269.525 144.192 268.851 143.904 268.284 143.328C267.718 142.752 267.435 142.068 267.435 141.277ZM267.698 160.687V145.892H272.928V160.687H267.698ZM275.55 159.456L276.634 155.472C277.396 156.136 278.231 156.648 279.139 157.01C280.057 157.361 280.98 157.537 281.907 157.537C282.562 157.537 283.06 157.435 283.402 157.229C283.743 157.015 283.914 156.707 283.914 156.307C283.914 155.652 283.226 155.164 281.849 154.842C281.4 154.734 281.038 154.642 280.765 154.563C279.202 154.134 278.065 153.572 277.352 152.879C276.649 152.176 276.297 151.268 276.297 150.154C276.297 148.719 276.834 147.571 277.908 146.712C278.992 145.853 280.457 145.423 282.303 145.423C283.25 145.423 284.212 145.535 285.189 145.76C286.175 145.975 287.181 146.312 288.206 146.771L287.122 150.359C286.429 149.891 285.726 149.534 285.013 149.29C284.3 149.046 283.587 148.924 282.874 148.924C282.279 148.924 281.829 149.017 281.527 149.202C281.224 149.388 281.072 149.656 281.072 150.008C281.072 150.535 281.756 150.979 283.123 151.341C283.436 151.429 283.67 151.492 283.826 151.531C285.633 152.049 286.888 152.659 287.591 153.362C288.304 154.056 288.66 154.998 288.66 156.189C288.66 157.703 288.079 158.929 286.917 159.866C285.755 160.794 284.217 161.258 282.303 161.258C281.004 161.258 279.798 161.106 278.685 160.804C277.571 160.511 276.527 160.062 275.55 159.456ZM299.486 159.456L300.57 155.472C301.331 156.136 302.166 156.648 303.074 157.01C303.992 157.361 304.915 157.537 305.843 157.537C306.497 157.537 306.995 157.435 307.337 157.229C307.679 157.015 307.85 156.707 307.85 156.307C307.85 155.652 307.161 155.164 305.784 154.842C305.335 154.734 304.974 154.642 304.7 154.563C303.138 154.134 302 153.572 301.287 152.879C300.584 152.176 300.233 151.268 300.233 150.154C300.233 148.719 300.77 147.571 301.844 146.712C302.928 145.853 304.393 145.423 306.238 145.423C307.186 145.423 308.148 145.535 309.124 145.76C310.111 145.975 311.116 146.312 312.142 146.771L311.058 150.359C310.364 149.891 309.661 149.534 308.948 149.29C308.236 149.046 307.523 148.924 306.81 148.924C306.214 148.924 305.765 149.017 305.462 149.202C305.159 149.388 305.008 149.656 305.008 150.008C305.008 150.535 305.692 150.979 307.059 151.341C307.371 151.429 307.606 151.492 307.762 151.531C309.569 152.049 310.823 152.659 311.527 153.362C312.239 154.056 312.596 154.998 312.596 156.189C312.596 157.703 312.015 158.929 310.853 159.866C309.691 160.794 308.153 161.258 306.238 161.258C304.94 161.258 303.734 161.106 302.62 160.804C301.507 160.511 300.462 160.062 299.486 159.456ZM315.277 141.277C315.277 140.486 315.555 139.812 316.112 139.256C316.678 138.699 317.357 138.421 318.148 138.421C318.968 138.421 319.652 138.694 320.198 139.241C320.755 139.788 321.033 140.467 321.033 141.277C321.033 142.088 320.75 142.776 320.184 143.343C319.627 143.909 318.948 144.192 318.148 144.192C317.366 144.192 316.693 143.904 316.126 143.328C315.56 142.752 315.277 142.068 315.277 141.277ZM315.54 160.687V145.892H320.77V160.687H315.54ZM325.574 160.687V149.583H323.362V145.892H325.574V141.482H330.716V145.892H332.928V149.583H330.716V160.687H325.574ZM350.55 145.892V153.45C350.55 155.12 350.413 156.36 350.14 157.171C349.876 157.972 349.427 158.685 348.792 159.31C348.138 159.964 347.322 160.452 346.346 160.774C345.369 161.097 344.222 161.258 342.904 161.258C341.595 161.258 340.452 161.097 339.476 160.774C338.509 160.452 337.684 159.964 337 159.31C336.365 158.704 335.916 157.996 335.653 157.186C335.389 156.365 335.257 155.12 335.257 153.45V145.892H340.237V153.787C340.237 155.027 340.443 155.926 340.853 156.482C341.263 157.029 341.927 157.303 342.845 157.303C343.773 157.303 344.437 157.034 344.837 156.497C345.247 155.95 345.452 155.047 345.452 153.787V145.892H350.55ZM365.579 153.274C365.579 152.122 365.272 151.209 364.656 150.535C364.041 149.861 363.201 149.524 362.137 149.524C361.072 149.524 360.233 149.861 359.617 150.535C359.012 151.199 358.709 152.112 358.709 153.274C358.709 154.427 359.017 155.335 359.632 155.999C360.247 156.663 361.082 156.995 362.137 156.995C363.201 156.995 364.041 156.663 364.656 155.999C365.272 155.335 365.579 154.427 365.579 153.274ZM370.164 145.892V160.687H365.374V158.284C364.691 159.31 363.919 160.062 363.06 160.54C362.21 161.019 361.209 161.258 360.057 161.258C358.084 161.258 356.507 160.54 355.325 159.104C354.144 157.659 353.553 155.726 353.553 153.304C353.553 150.892 354.168 148.978 355.399 147.562C356.639 146.136 358.304 145.423 360.394 145.423C361.507 145.423 362.464 145.662 363.265 146.141C364.075 146.609 364.769 147.337 365.345 148.323V145.892H370.164ZM374.91 160.687V149.583H372.698V145.892H374.91V141.482H380.052V145.892H382.264V149.583H380.052V160.687H374.91ZM384.593 141.277C384.593 140.486 384.871 139.812 385.428 139.256C385.994 138.699 386.673 138.421 387.464 138.421C388.284 138.421 388.968 138.694 389.515 139.241C390.071 139.788 390.35 140.467 390.35 141.277C390.35 142.088 390.067 142.776 389.5 143.343C388.944 143.909 388.265 144.192 387.464 144.192C386.683 144.192 386.009 143.904 385.443 143.328C384.876 142.752 384.593 142.068 384.593 141.277ZM384.857 160.687V145.892H390.086V160.687H384.857ZM404.588 153.333C404.588 152.229 404.31 151.36 403.753 150.726C403.196 150.091 402.445 149.773 401.497 149.773C400.54 149.773 399.783 150.091 399.227 150.726C398.68 151.36 398.406 152.229 398.406 153.333C398.406 154.437 398.68 155.306 399.227 155.94C399.774 156.565 400.53 156.878 401.497 156.878C402.454 156.878 403.206 156.565 403.753 155.94C404.31 155.306 404.588 154.437 404.588 153.333ZM409.774 153.333C409.774 154.397 409.564 155.408 409.144 156.365C408.734 157.322 408.133 158.182 407.342 158.943C406.541 159.705 405.643 160.281 404.647 160.672C403.66 161.062 402.611 161.258 401.497 161.258C400.364 161.258 399.3 161.062 398.304 160.672C397.318 160.281 396.434 159.705 395.653 158.943C394.871 158.201 394.276 157.352 393.865 156.395C393.455 155.428 393.25 154.407 393.25 153.333C393.25 152.249 393.45 151.229 393.851 150.271C394.261 149.314 394.862 148.455 395.653 147.693C396.424 146.941 397.303 146.375 398.289 145.994C399.285 145.613 400.355 145.423 401.497 145.423C402.64 145.423 403.704 145.613 404.691 145.994C405.677 146.375 406.561 146.941 407.342 147.693C408.143 148.465 408.748 149.329 409.158 150.286C409.569 151.243 409.774 152.259 409.774 153.333ZM412.777 160.687V145.892H417.552V148.895C418.245 147.693 419.046 146.814 419.954 146.258C420.862 145.701 421.951 145.423 423.221 145.423C424.178 145.423 425.028 145.579 425.77 145.892C426.522 146.194 427.132 146.634 427.601 147.21C427.991 147.708 428.27 148.313 428.436 149.026C428.602 149.739 428.685 150.804 428.685 152.22V160.687H423.455V152.762C423.455 151.58 423.26 150.721 422.869 150.184C422.488 149.646 421.873 149.378 421.024 149.378C419.94 149.378 419.149 149.778 418.651 150.579C418.153 151.38 417.904 152.679 417.904 154.476V160.687H412.777ZM436.302 158.284C436.302 157.454 436.59 156.751 437.166 156.175C437.742 155.599 438.445 155.311 439.276 155.311C440.115 155.311 440.814 155.599 441.37 156.175C441.937 156.741 442.22 157.444 442.22 158.284C442.22 159.124 441.937 159.832 441.37 160.408C440.804 160.975 440.106 161.258 439.276 161.258C438.455 161.258 437.752 160.97 437.166 160.394C436.59 159.817 436.302 159.114 436.302 158.284ZM441.971 153.421H436.932V147.371H438.499C439.603 147.371 440.443 147.146 441.019 146.697C441.595 146.248 441.883 145.604 441.883 144.764C441.883 144.09 441.658 143.523 441.209 143.064C440.77 142.596 440.228 142.361 439.583 142.361C438.9 142.361 438.362 142.547 437.972 142.918C437.591 143.279 437.376 143.812 437.327 144.515H432.318V144.456C432.318 142.552 432.996 141.033 434.354 139.9C435.711 138.758 437.532 138.187 439.818 138.187C441.888 138.187 443.553 138.787 444.813 139.988C446.082 141.189 446.717 142.767 446.717 144.72C446.717 146.351 446.278 147.679 445.399 148.704C444.529 149.729 443.392 150.262 441.986 150.301L441.971 153.421ZM16.3605 196.687V175.241H20.8283C24.1584 175.241 26.5119 175.397 27.8889 175.71C29.2756 176.022 30.4914 176.545 31.5363 177.277C32.8938 178.225 33.924 179.44 34.6272 180.925C35.3303 182.399 35.6818 184.084 35.6818 185.979C35.6818 187.873 35.3303 189.562 34.6272 191.047C33.924 192.521 32.8938 193.732 31.5363 194.68C30.5012 195.402 29.3195 195.92 27.9914 196.232C26.6633 196.535 24.6027 196.687 21.8098 196.687H20.8283H16.3605ZM22.1467 191.882H23.1281C25.423 191.882 27.0979 191.413 28.1525 190.476C29.2072 189.528 29.7346 188.029 29.7346 185.979C29.7346 183.928 29.2072 182.424 28.1525 181.467C27.0979 180.51 25.423 180.031 23.1281 180.031H22.1467V191.882ZM49.4953 189.333C49.4953 188.229 49.217 187.36 48.6604 186.726C48.1037 186.091 47.3518 185.773 46.4045 185.773C45.4475 185.773 44.6906 186.091 44.134 186.726C43.5871 187.36 43.3137 188.229 43.3137 189.333C43.3137 190.437 43.5871 191.306 44.134 191.94C44.6809 192.565 45.4377 192.878 46.4045 192.878C47.3615 192.878 48.1135 192.565 48.6604 191.94C49.217 191.306 49.4953 190.437 49.4953 189.333ZM54.6809 189.333C54.6809 190.397 54.4709 191.408 54.051 192.365C53.6408 193.322 53.0402 194.182 52.2492 194.943C51.4484 195.705 50.55 196.281 49.5539 196.672C48.5676 197.062 47.5178 197.258 46.4045 197.258C45.2717 197.258 44.2072 197.062 43.2111 196.672C42.2248 196.281 41.341 195.705 40.5598 194.943C39.7785 194.201 39.1828 193.352 38.7727 192.395C38.3625 191.428 38.1574 190.407 38.1574 189.333C38.1574 188.249 38.3576 187.229 38.758 186.271C39.1682 185.314 39.7688 184.455 40.5598 183.693C41.3313 182.941 42.2102 182.375 43.1965 181.994C44.1926 181.613 45.2619 181.423 46.4045 181.423C47.5471 181.423 48.6115 181.613 49.5979 181.994C50.5842 182.375 51.468 182.941 52.2492 183.693C53.05 184.465 53.6555 185.329 54.0656 186.286C54.4758 187.243 54.6809 188.259 54.6809 189.333ZM57.6838 196.687V181.892H62.4592V184.895C63.1525 183.693 63.9533 182.814 64.8615 182.258C65.7697 181.701 66.8586 181.423 68.1281 181.423C69.0852 181.423 69.9348 181.579 70.677 181.892C71.4289 182.194 72.0393 182.634 72.508 183.21C72.8986 183.708 73.177 184.313 73.343 185.026C73.509 185.739 73.592 186.804 73.592 188.22V196.687H68.3625V188.762C68.3625 187.58 68.1672 186.721 67.7766 186.184C67.3957 185.646 66.7805 185.378 65.9309 185.378C64.8469 185.378 64.0559 185.778 63.5578 186.579C63.0598 187.38 62.8107 188.679 62.8107 190.476V196.687H57.6838ZM76.4777 175.622H79.6857V183.84H76.4777V175.622ZM83.5383 196.687V185.583H81.3264V181.892H83.5383V177.482H88.6799V181.892H90.8918V185.583H88.6799V196.687H83.5383ZM114.446 181.892L116.629 188.425L116.673 188.542C116.995 189.46 117.2 190.192 117.288 190.739C117.347 190.427 117.42 190.1 117.508 189.758C117.606 189.416 117.742 188.977 117.918 188.439L120.145 181.892H125.55L119.339 196.687H115.648L113.45 189.992C113.333 189.611 113.226 189.23 113.128 188.85C113.04 188.459 112.957 188.073 112.879 187.692C112.772 188.278 112.581 189.016 112.308 189.904L112.279 190.007L110.096 196.687H106.404L100.223 181.892H105.599L107.811 188.439C107.977 188.918 108.109 189.338 108.206 189.699C108.304 190.051 108.382 190.397 108.441 190.739C108.529 190.251 108.719 189.572 109.012 188.703C109.051 188.586 109.08 188.498 109.1 188.439L111.297 181.892H114.446ZM137.357 189.333C137.357 188.229 137.078 187.36 136.522 186.726C135.965 186.091 135.213 185.773 134.266 185.773C133.309 185.773 132.552 186.091 131.995 186.726C131.448 187.36 131.175 188.229 131.175 189.333C131.175 190.437 131.448 191.306 131.995 191.94C132.542 192.565 133.299 192.878 134.266 192.878C135.223 192.878 135.975 192.565 136.522 191.94C137.078 191.306 137.357 190.437 137.357 189.333ZM142.542 189.333C142.542 190.397 142.332 191.408 141.912 192.365C141.502 193.322 140.902 194.182 140.111 194.943C139.31 195.705 138.411 196.281 137.415 196.672C136.429 197.062 135.379 197.258 134.266 197.258C133.133 197.258 132.069 197.062 131.072 196.672C130.086 196.281 129.202 195.705 128.421 194.943C127.64 194.201 127.044 193.352 126.634 192.395C126.224 191.428 126.019 190.407 126.019 189.333C126.019 188.249 126.219 187.229 126.619 186.271C127.029 185.314 127.63 184.455 128.421 183.693C129.193 182.941 130.071 182.375 131.058 181.994C132.054 181.613 133.123 181.423 134.266 181.423C135.408 181.423 136.473 181.613 137.459 181.994C138.446 182.375 139.329 182.941 140.111 183.693C140.911 184.465 141.517 185.329 141.927 186.286C142.337 187.243 142.542 188.259 142.542 189.333ZM145.574 196.687V181.892H150.496V185.378C151.004 184.108 151.697 183.156 152.576 182.521C153.455 181.887 154.52 181.569 155.77 181.569C155.975 181.569 156.18 181.579 156.385 181.599C156.6 181.608 156.815 181.628 157.029 181.657L156.531 186.403C156.219 186.296 155.911 186.218 155.609 186.169C155.306 186.12 155.013 186.096 154.73 186.096C153.46 186.096 152.479 186.486 151.785 187.268C151.102 188.039 150.76 189.138 150.76 190.563V196.687H145.574ZM158.992 196.687V181.892H163.914V185.378C164.422 184.108 165.115 183.156 165.994 182.521C166.873 181.887 167.938 181.569 169.188 181.569C169.393 181.569 169.598 181.579 169.803 181.599C170.018 181.608 170.233 181.628 170.447 181.657L169.949 186.403C169.637 186.296 169.329 186.218 169.027 186.169C168.724 186.12 168.431 186.096 168.148 186.096C166.878 186.096 165.897 186.486 165.203 187.268C164.52 188.039 164.178 189.138 164.178 190.563V196.687H158.992ZM171.575 203.22L175.736 194.431L169.774 181.892H175.56L177.625 187.238C177.801 187.688 177.947 188.107 178.065 188.498C178.182 188.879 178.27 189.235 178.328 189.567C178.387 189.216 178.47 188.854 178.577 188.483C178.695 188.103 178.841 187.688 179.017 187.238L181.112 181.892H186.693L177.391 203.22H171.575ZM187.337 191.823H192.786L188.26 201.008H184.217L187.337 191.823ZM205.325 196.687V185.583H203.113V181.892H205.325V177.482H210.467V181.892H212.679V185.583H210.467V196.687H205.325ZM215.125 196.687V173.981H220.252V181.95C220.252 182.478 220.238 182.966 220.208 183.415C220.179 183.864 220.135 184.27 220.076 184.631C220.731 183.527 221.502 182.717 222.391 182.199C223.279 181.682 224.339 181.423 225.57 181.423C226.527 181.423 227.376 181.579 228.118 181.892C228.87 182.194 229.481 182.634 229.949 183.21C230.34 183.708 230.618 184.313 230.784 185.026C230.95 185.739 231.033 186.804 231.033 188.22V196.687H225.804V188.762C225.804 187.58 225.609 186.721 225.218 186.184C224.837 185.646 224.222 185.378 223.372 185.378C222.288 185.378 221.497 185.778 220.999 186.579C220.501 187.38 220.252 188.679 220.252 190.476V196.687H215.125ZM234.608 177.277C234.608 176.486 234.886 175.812 235.443 175.256C236.009 174.699 236.688 174.421 237.479 174.421C238.299 174.421 238.983 174.694 239.529 175.241C240.086 175.788 240.364 176.467 240.364 177.277C240.364 178.088 240.081 178.776 239.515 179.343C238.958 179.909 238.279 180.192 237.479 180.192C236.697 180.192 236.024 179.904 235.457 179.328C234.891 178.752 234.608 178.068 234.608 177.277ZM234.871 196.687V181.892H240.101V196.687H234.871ZM242.723 195.456L243.807 191.472C244.569 192.136 245.404 192.648 246.312 193.01C247.23 193.361 248.153 193.537 249.08 193.537C249.735 193.537 250.233 193.435 250.574 193.229C250.916 193.015 251.087 192.707 251.087 192.307C251.087 191.652 250.399 191.164 249.022 190.842C248.572 190.734 248.211 190.642 247.938 190.563C246.375 190.134 245.238 189.572 244.525 188.879C243.821 188.176 243.47 187.268 243.47 186.154C243.47 184.719 244.007 183.571 245.081 182.712C246.165 181.853 247.63 181.423 249.476 181.423C250.423 181.423 251.385 181.535 252.362 181.76C253.348 181.975 254.354 182.312 255.379 182.771L254.295 186.359C253.602 185.891 252.899 185.534 252.186 185.29C251.473 185.046 250.76 184.924 250.047 184.924C249.451 184.924 249.002 185.017 248.699 185.202C248.397 185.388 248.245 185.656 248.245 186.008C248.245 186.535 248.929 186.979 250.296 187.341C250.609 187.429 250.843 187.492 250.999 187.531C252.806 188.049 254.061 188.659 254.764 189.362C255.477 190.056 255.833 190.998 255.833 192.189C255.833 193.703 255.252 194.929 254.09 195.866C252.928 196.794 251.39 197.258 249.476 197.258C248.177 197.258 246.971 197.106 245.858 196.804C244.744 196.511 243.699 196.062 242.723 195.456ZM267.918 177.277C267.918 176.486 268.196 175.812 268.753 175.256C269.32 174.699 269.998 174.421 270.789 174.421C271.61 174.421 272.293 174.694 272.84 175.241C273.397 175.788 273.675 176.467 273.675 177.277C273.675 178.088 273.392 178.776 272.825 179.343C272.269 179.909 271.59 180.192 270.789 180.192C270.008 180.192 269.334 179.904 268.768 179.328C268.201 178.752 267.918 178.068 267.918 177.277ZM268.182 196.687V181.892H273.411V196.687H268.182ZM276.033 195.456L277.117 191.472C277.879 192.136 278.714 192.648 279.622 193.01C280.54 193.361 281.463 193.537 282.391 193.537C283.045 193.537 283.543 193.435 283.885 193.229C284.227 193.015 284.398 192.707 284.398 192.307C284.398 191.652 283.709 191.164 282.332 190.842C281.883 190.734 281.522 190.642 281.248 190.563C279.686 190.134 278.548 189.572 277.835 188.879C277.132 188.176 276.78 187.268 276.78 186.154C276.78 184.719 277.318 183.571 278.392 182.712C279.476 181.853 280.941 181.423 282.786 181.423C283.734 181.423 284.695 181.535 285.672 181.76C286.658 181.975 287.664 182.312 288.69 182.771L287.606 186.359C286.912 185.891 286.209 185.534 285.496 185.29C284.783 185.046 284.07 184.924 283.358 184.924C282.762 184.924 282.313 185.017 282.01 185.202C281.707 185.388 281.556 185.656 281.556 186.008C281.556 186.535 282.239 186.979 283.607 187.341C283.919 187.429 284.154 187.492 284.31 187.531C286.116 188.049 287.371 188.659 288.074 189.362C288.787 190.056 289.144 190.998 289.144 192.189C289.144 193.703 288.563 194.929 287.401 195.866C286.238 196.794 284.7 197.258 282.786 197.258C281.487 197.258 280.281 197.106 279.168 196.804C278.055 196.511 277.01 196.062 276.033 195.456ZM301.229 177.277C301.229 176.486 301.507 175.812 302.064 175.256C302.63 174.699 303.309 174.421 304.1 174.421C304.92 174.421 305.604 174.694 306.151 175.241C306.707 175.788 306.986 176.467 306.986 177.277C306.986 178.088 306.702 178.776 306.136 179.343C305.579 179.909 304.901 180.192 304.1 180.192C303.319 180.192 302.645 179.904 302.078 179.328C301.512 178.752 301.229 178.068 301.229 177.277ZM301.492 203.22V181.892H306.722V203.22H301.492ZM325.897 181.892V189.45C325.897 191.12 325.76 192.36 325.487 193.171C325.223 193.972 324.774 194.685 324.139 195.31C323.485 195.964 322.669 196.452 321.693 196.774C320.716 197.097 319.569 197.258 318.25 197.258C316.942 197.258 315.799 197.097 314.822 196.774C313.856 196.452 313.03 195.964 312.347 195.31C311.712 194.704 311.263 193.996 310.999 193.186C310.736 192.365 310.604 191.12 310.604 189.45V181.892H315.584V189.787C315.584 191.027 315.789 191.926 316.199 192.482C316.61 193.029 317.274 193.303 318.192 193.303C319.119 193.303 319.783 193.034 320.184 192.497C320.594 191.95 320.799 191.047 320.799 189.787V181.892H325.897ZM328.27 195.456L329.354 191.472C330.115 192.136 330.95 192.648 331.859 193.01C332.777 193.361 333.699 193.537 334.627 193.537C335.281 193.537 335.779 193.435 336.121 193.229C336.463 193.015 336.634 192.707 336.634 192.307C336.634 191.652 335.945 191.164 334.569 190.842C334.119 190.734 333.758 190.642 333.485 190.563C331.922 190.134 330.784 189.572 330.071 188.879C329.368 188.176 329.017 187.268 329.017 186.154C329.017 184.719 329.554 183.571 330.628 182.712C331.712 181.853 333.177 181.423 335.023 181.423C335.97 181.423 336.932 181.535 337.908 181.76C338.895 181.975 339.901 182.312 340.926 182.771L339.842 186.359C339.149 185.891 338.445 185.534 337.733 185.29C337.02 185.046 336.307 184.924 335.594 184.924C334.998 184.924 334.549 185.017 334.246 185.202C333.944 185.388 333.792 185.656 333.792 186.008C333.792 186.535 334.476 186.979 335.843 187.341C336.155 187.429 336.39 187.492 336.546 187.531C338.353 188.049 339.608 188.659 340.311 189.362C341.024 190.056 341.38 190.998 341.38 192.189C341.38 193.703 340.799 194.929 339.637 195.866C338.475 196.794 336.937 197.258 335.023 197.258C333.724 197.258 332.518 197.106 331.404 196.804C330.291 196.511 329.246 196.062 328.27 195.456ZM344.984 196.687V185.583H342.772V181.892H344.984V177.482H350.125V181.892H352.337V185.583H350.125V196.687H344.984ZM375.467 189.274C375.467 188.122 375.159 187.209 374.544 186.535C373.929 185.861 373.089 185.524 372.025 185.524C370.96 185.524 370.12 185.861 369.505 186.535C368.9 187.199 368.597 188.112 368.597 189.274C368.597 190.427 368.904 191.335 369.52 191.999C370.135 192.663 370.97 192.995 372.025 192.995C373.089 192.995 373.929 192.663 374.544 191.999C375.159 191.335 375.467 190.427 375.467 189.274ZM380.052 181.892V196.687H375.262V194.284C374.578 195.31 373.807 196.062 372.947 196.54C372.098 197.019 371.097 197.258 369.945 197.258C367.972 197.258 366.395 196.54 365.213 195.104C364.031 193.659 363.441 191.726 363.441 189.304C363.441 186.892 364.056 184.978 365.286 183.562C366.527 182.136 368.192 181.423 370.281 181.423C371.395 181.423 372.352 181.662 373.153 182.141C373.963 182.609 374.656 183.337 375.233 184.323V181.892H380.052ZM394.202 196.687V185.583H391.99V181.892H394.202V177.482H399.344V181.892H401.556V185.583H399.344V196.687H394.202ZM414.197 187.385C414.1 186.545 413.778 185.871 413.231 185.363C412.694 184.855 412.029 184.602 411.238 184.602C410.389 184.602 409.71 184.836 409.202 185.305C408.704 185.764 408.372 186.457 408.206 187.385H414.197ZM419.339 190.329H408.089C408.099 191.472 408.392 192.355 408.968 192.98C409.544 193.596 410.36 193.903 411.414 193.903C412.205 193.903 412.869 193.757 413.406 193.464C413.953 193.161 414.368 192.717 414.652 192.131L418.577 193.713C418.109 194.846 417.279 195.72 416.087 196.335C414.896 196.95 413.436 197.258 411.707 197.258C409.129 197.258 407.059 196.545 405.496 195.119C403.944 193.684 403.167 191.794 403.167 189.45C403.167 187.146 403.944 185.231 405.496 183.708C407.059 182.185 409.031 181.423 411.414 181.423C413.865 181.423 415.799 182.194 417.215 183.737C418.631 185.28 419.339 187.395 419.339 190.08V190.329ZM420.965 195.456L422.049 191.472C422.811 192.136 423.646 192.648 424.554 193.01C425.472 193.361 426.395 193.537 427.322 193.537C427.977 193.537 428.475 193.435 428.817 193.229C429.158 193.015 429.329 192.707 429.329 192.307C429.329 191.652 428.641 191.164 427.264 190.842C426.815 190.734 426.453 190.642 426.18 190.563C424.617 190.134 423.48 189.572 422.767 188.879C422.064 188.176 421.712 187.268 421.712 186.154C421.712 184.719 422.249 183.571 423.323 182.712C424.407 181.853 425.872 181.423 427.718 181.423C428.665 181.423 429.627 181.535 430.604 181.76C431.59 181.975 432.596 182.312 433.621 182.771L432.537 186.359C431.844 185.891 431.141 185.534 430.428 185.29C429.715 185.046 429.002 184.924 428.289 184.924C427.694 184.924 427.244 185.017 426.942 185.202C426.639 185.388 426.487 185.656 426.487 186.008C426.487 186.535 427.171 186.979 428.538 187.341C428.851 187.429 429.085 187.492 429.241 187.531C431.048 188.049 432.303 188.659 433.006 189.362C433.719 190.056 434.075 190.998 434.075 192.189C434.075 193.703 433.494 194.929 432.332 195.866C431.17 196.794 429.632 197.258 427.718 197.258C426.419 197.258 425.213 197.106 424.1 196.804C422.987 196.511 421.942 196.062 420.965 195.456ZM437.679 196.687V185.583H435.467V181.892H437.679V177.482H442.82V181.892H445.032V185.583H442.82V196.687H437.679ZM447.991 189.553V174.245H453.426V189.553H447.991ZM447.757 194.284C447.757 193.454 448.035 192.751 448.592 192.175C449.158 191.599 449.857 191.311 450.687 191.311C451.527 191.311 452.23 191.599 452.796 192.175C453.372 192.741 453.66 193.444 453.66 194.284C453.66 195.114 453.372 195.817 452.796 196.394C452.22 196.97 451.517 197.258 450.687 197.258C449.866 197.258 449.173 196.97 448.607 196.394C448.04 195.817 447.757 195.114 447.757 194.284Z" fill="#FFDBAA"/>
</svg>
