<svg width="588" height="319" viewBox="0 0 588 319" fill="none" xmlns="http://www.w3.org/2000/svg">
<g clip-path="url(#clip0_5_932)">
<rect width="588" height="278.852" rx="50" fill="#44301E"/>
<path d="M243.86 318.594C214.122 292.679 204.268 278.079 205.67 251.841L264.366 253.174C232.601 271.168 230.562 286.272 243.86 318.594Z" fill="#44301E"/>
<path d="M58.7939 52.9873V31.542H64.6387V39.877H72.4316V31.542H78.291V52.9873H72.4316V44.2568H64.6387V52.9873H58.7939ZM92.6758 43.6855C92.5781 42.8457 92.2559 42.1719 91.709 41.6641C91.1719 41.1562 90.5078 40.9023 89.7168 40.9023C88.8672 40.9023 88.1885 41.1367 87.6807 41.6055C87.1826 42.0645 86.8506 42.7578 86.6846 43.6855H92.6758ZM97.8174 46.6299H86.5674C86.5771 47.7725 86.8701 48.6562 87.4463 49.2812C88.0225 49.8965 88.8379 50.2041 89.8926 50.2041C90.6836 50.2041 91.3477 50.0576 91.8848 49.7646C92.4316 49.4619 92.8467 49.0176 93.1299 48.4316L97.0557 50.0137C96.5869 51.1465 95.7568 52.0205 94.5654 52.6357C93.374 53.251 91.9141 53.5586 90.1855 53.5586C87.6074 53.5586 85.5371 52.8457 83.9746 51.4199C82.4219 49.9844 81.6455 48.0947 81.6455 45.751C81.6455 43.4463 82.4219 41.5322 83.9746 40.0088C85.5371 38.4854 87.5098 37.7236 89.8926 37.7236C92.3438 37.7236 94.2773 38.4951 95.6934 40.0381C97.1094 41.5811 97.8174 43.6953 97.8174 46.3809V46.6299ZM100.85 52.9873V38.1924H105.771V41.6787C106.279 40.4092 106.973 39.457 107.852 38.8223C108.73 38.1875 109.795 37.8701 111.045 37.8701C111.25 37.8701 111.455 37.8799 111.66 37.8994C111.875 37.9092 112.09 37.9287 112.305 37.958L111.807 42.7041C111.494 42.5967 111.187 42.5186 110.884 42.4697C110.581 42.4209 110.288 42.3965 110.005 42.3965C108.735 42.3965 107.754 42.7871 107.061 43.5684C106.377 44.3398 106.035 45.4385 106.035 46.8643V52.9873H100.85ZM124.434 43.6855C124.336 42.8457 124.014 42.1719 123.467 41.6641C122.93 41.1562 122.266 40.9023 121.475 40.9023C120.625 40.9023 119.946 41.1367 119.438 41.6055C118.94 42.0645 118.608 42.7578 118.442 43.6855H124.434ZM129.575 46.6299H118.325C118.335 47.7725 118.628 48.6562 119.204 49.2812C119.78 49.8965 120.596 50.2041 121.65 50.2041C122.441 50.2041 123.105 50.0576 123.643 49.7646C124.189 49.4619 124.604 49.0176 124.888 48.4316L128.813 50.0137C128.345 51.1465 127.515 52.0205 126.323 52.6357C125.132 53.251 123.672 53.5586 121.943 53.5586C119.365 53.5586 117.295 52.8457 115.732 51.4199C114.18 49.9844 113.403 48.0947 113.403 45.751C113.403 43.4463 114.18 41.5322 115.732 40.0088C117.295 38.4854 119.268 37.7236 121.65 37.7236C124.102 37.7236 126.035 38.4951 127.451 40.0381C128.867 41.5811 129.575 43.6953 129.575 46.3809V46.6299ZM141.865 33.5781C141.865 32.7871 142.144 32.1133 142.7 31.5566C143.267 31 143.945 30.7217 144.736 30.7217C145.557 30.7217 146.24 30.9951 146.787 31.542C147.344 32.0889 147.622 32.7676 147.622 33.5781C147.622 34.3887 147.339 35.0771 146.772 35.6436C146.216 36.21 145.537 36.4932 144.736 36.4932C143.955 36.4932 143.281 36.2051 142.715 35.6289C142.148 35.0527 141.865 34.3691 141.865 33.5781ZM142.129 52.9873V38.1924H147.358V52.9873H142.129ZM149.98 51.7568L151.064 47.7725C151.826 48.4365 152.661 48.9492 153.569 49.3105C154.487 49.6621 155.41 49.8379 156.338 49.8379C156.992 49.8379 157.49 49.7354 157.832 49.5303C158.174 49.3154 158.345 49.0078 158.345 48.6074C158.345 47.9531 157.656 47.4648 156.279 47.1426C155.83 47.0352 155.469 46.9424 155.195 46.8643C153.633 46.4346 152.495 45.873 151.782 45.1797C151.079 44.4766 150.728 43.5684 150.728 42.4551C150.728 41.0195 151.265 39.8721 152.339 39.0127C153.423 38.1533 154.888 37.7236 156.733 37.7236C157.681 37.7236 158.643 37.8359 159.619 38.0605C160.605 38.2754 161.611 38.6123 162.637 39.0713L161.553 42.6602C160.859 42.1914 160.156 41.835 159.443 41.5908C158.73 41.3467 158.018 41.2246 157.305 41.2246C156.709 41.2246 156.26 41.3174 155.957 41.5029C155.654 41.6885 155.503 41.957 155.503 42.3086C155.503 42.8359 156.187 43.2803 157.554 43.6416C157.866 43.7295 158.101 43.793 158.257 43.832C160.063 44.3496 161.318 44.96 162.021 45.6631C162.734 46.3564 163.091 47.2988 163.091 48.4902C163.091 50.0039 162.51 51.2295 161.348 52.167C160.186 53.0947 158.647 53.5586 156.733 53.5586C155.435 53.5586 154.229 53.4072 153.115 53.1045C152.002 52.8115 150.957 52.3623 149.98 51.7568ZM186.572 45.5752C186.572 44.4229 186.265 43.5098 185.649 42.8359C185.034 42.1621 184.194 41.8252 183.13 41.8252C182.065 41.8252 181.226 42.1621 180.61 42.8359C180.005 43.5 179.702 44.4131 179.702 45.5752C179.702 46.7275 180.01 47.6357 180.625 48.2998C181.24 48.9639 182.075 49.2959 183.13 49.2959C184.194 49.2959 185.034 48.9639 185.649 48.2998C186.265 47.6357 186.572 46.7275 186.572 45.5752ZM191.157 38.1924V52.9873H186.367V50.585C185.684 51.6104 184.912 52.3623 184.053 52.8408C183.203 53.3193 182.202 53.5586 181.05 53.5586C179.077 53.5586 177.5 52.8408 176.318 51.4053C175.137 49.96 174.546 48.0264 174.546 45.6045C174.546 43.1924 175.161 41.2783 176.392 39.8623C177.632 38.4365 179.297 37.7236 181.387 37.7236C182.5 37.7236 183.457 37.9629 184.258 38.4414C185.068 38.9102 185.762 39.6377 186.338 40.624V38.1924H191.157ZM204.648 52.9873V30.2822H209.878V52.9873H204.648ZM224.072 43.6855C223.975 42.8457 223.652 42.1719 223.105 41.6641C222.568 41.1562 221.904 40.9023 221.113 40.9023C220.264 40.9023 219.585 41.1367 219.077 41.6055C218.579 42.0645 218.247 42.7578 218.081 43.6855H224.072ZM229.214 46.6299H217.964C217.974 47.7725 218.267 48.6562 218.843 49.2812C219.419 49.8965 220.234 50.2041 221.289 50.2041C222.08 50.2041 222.744 50.0576 223.281 49.7646C223.828 49.4619 224.243 49.0176 224.526 48.4316L228.452 50.0137C227.983 51.1465 227.153 52.0205 225.962 52.6357C224.771 53.251 223.311 53.5586 221.582 53.5586C219.004 53.5586 216.934 52.8457 215.371 51.4199C213.818 49.9844 213.042 48.0947 213.042 45.751C213.042 43.4463 213.818 41.5322 215.371 40.0088C216.934 38.4854 218.906 37.7236 221.289 37.7236C223.74 37.7236 225.674 38.4951 227.09 40.0381C228.506 41.5811 229.214 43.6953 229.214 46.3809V46.6299ZM243.496 45.5752C243.496 44.4229 243.188 43.5098 242.573 42.8359C241.958 42.1621 241.118 41.8252 240.054 41.8252C238.989 41.8252 238.149 42.1621 237.534 42.8359C236.929 43.5 236.626 44.4131 236.626 45.5752C236.626 46.7275 236.934 47.6357 237.549 48.2998C238.164 48.9639 238.999 49.2959 240.054 49.2959C241.118 49.2959 241.958 48.9639 242.573 48.2998C243.188 47.6357 243.496 46.7275 243.496 45.5752ZM248.081 38.1924V52.9873H243.291V50.585C242.607 51.6104 241.836 52.3623 240.977 52.8408C240.127 53.3193 239.126 53.5586 237.974 53.5586C236.001 53.5586 234.424 52.8408 233.242 51.4053C232.061 49.96 231.47 48.0264 231.47 45.6045C231.47 43.1924 232.085 41.2783 233.315 39.8623C234.556 38.4365 236.221 37.7236 238.311 37.7236C239.424 37.7236 240.381 37.9629 241.182 38.4414C241.992 38.9102 242.686 39.6377 243.262 40.624V38.1924H248.081ZM252.051 52.9873V38.1924H256.973V41.6787C257.48 40.4092 258.174 39.457 259.053 38.8223C259.932 38.1875 260.996 37.8701 262.246 37.8701C262.451 37.8701 262.656 37.8799 262.861 37.8994C263.076 37.9092 263.291 37.9287 263.506 37.958L263.008 42.7041C262.695 42.5967 262.388 42.5186 262.085 42.4697C261.782 42.4209 261.489 42.3965 261.206 42.3965C259.937 42.3965 258.955 42.7871 258.262 43.5684C257.578 44.3398 257.236 45.4385 257.236 46.8643V52.9873H252.051ZM265.439 52.9873V38.1924H270.215V41.1953C270.908 39.9941 271.709 39.1152 272.617 38.5586C273.525 38.002 274.614 37.7236 275.884 37.7236C276.841 37.7236 277.69 37.8799 278.433 38.1924C279.185 38.4951 279.795 38.9346 280.264 39.5107C280.654 40.0088 280.933 40.6143 281.099 41.3271C281.265 42.04 281.348 43.1045 281.348 44.5205V52.9873H276.118V45.0625C276.118 43.8809 275.923 43.0215 275.532 42.4844C275.151 41.9473 274.536 41.6787 273.687 41.6787C272.603 41.6787 271.812 42.0791 271.313 42.8799C270.815 43.6807 270.566 44.9795 270.566 46.7764V52.9873H265.439ZM284.922 33.5781C284.922 32.7871 285.2 32.1133 285.757 31.5566C286.323 31 287.002 30.7217 287.793 30.7217C288.613 30.7217 289.297 30.9951 289.844 31.542C290.4 32.0889 290.679 32.7676 290.679 33.5781C290.679 34.3887 290.396 35.0771 289.829 35.6436C289.272 36.21 288.594 36.4932 287.793 36.4932C287.012 36.4932 286.338 36.2051 285.771 35.6289C285.205 35.0527 284.922 34.3691 284.922 33.5781ZM285.186 52.9873V38.1924H290.415V52.9873H285.186ZM294.414 52.9873V38.1924H299.189V41.1953C299.883 39.9941 300.684 39.1152 301.592 38.5586C302.5 38.002 303.589 37.7236 304.858 37.7236C305.815 37.7236 306.665 37.8799 307.407 38.1924C308.159 38.4951 308.77 38.9346 309.238 39.5107C309.629 40.0088 309.907 40.6143 310.073 41.3271C310.239 42.04 310.322 43.1045 310.322 44.5205V52.9873H305.093V45.0625C305.093 43.8809 304.897 43.0215 304.507 42.4844C304.126 41.9473 303.511 41.6787 302.661 41.6787C301.577 41.6787 300.786 42.0791 300.288 42.8799C299.79 43.6807 299.541 44.9795 299.541 46.7764V52.9873H294.414ZM325.293 45.5459C325.293 44.4033 324.985 43.5098 324.37 42.8652C323.765 42.2109 322.925 41.8838 321.851 41.8838C320.767 41.8838 319.912 42.2109 319.287 42.8652C318.672 43.5098 318.364 44.4033 318.364 45.5459C318.364 46.6787 318.672 47.5723 319.287 48.2266C319.912 48.8809 320.767 49.208 321.851 49.208C322.915 49.208 323.755 48.8809 324.37 48.2266C324.985 47.5723 325.293 46.6787 325.293 45.5459ZM329.878 38.1924V52.958C329.878 55.1943 329.194 56.8447 327.827 57.9092C326.47 58.9834 324.365 59.5205 321.514 59.5205C319.209 59.5205 317.402 59.0908 316.094 58.2314C314.785 57.3818 314.092 56.1758 314.014 54.6133H319.419C319.497 55.0723 319.751 55.4287 320.181 55.6826C320.62 55.9463 321.196 56.0781 321.909 56.0781C323.032 56.0781 323.804 55.8047 324.224 55.2578C324.653 54.7207 324.868 53.583 324.868 51.8447V50.4971C324.321 51.4248 323.623 52.1182 322.773 52.5771C321.924 53.0264 320.913 53.251 319.741 53.251C317.788 53.251 316.221 52.5479 315.039 51.1416C313.857 49.7256 313.267 47.8408 313.267 45.4873C313.267 43.1143 313.882 41.2295 315.112 39.833C316.353 38.4268 318.018 37.7236 320.107 37.7236C321.211 37.7236 322.163 37.9531 322.964 38.4121C323.774 38.8711 324.473 39.5889 325.059 40.5654V38.1924H329.878ZM353.843 43.0557C353.335 42.6064 352.847 42.2793 352.378 42.0742C351.909 41.8691 351.416 41.7666 350.898 41.7666C349.863 41.7666 349.038 42.1084 348.423 42.792C347.817 43.4756 347.515 44.4033 347.515 45.5752C347.515 46.708 347.832 47.6113 348.467 48.2852C349.102 48.959 349.956 49.2959 351.03 49.2959C351.558 49.2959 352.051 49.1934 352.51 48.9883C352.979 48.7734 353.423 48.4463 353.843 48.0068V52.5332C353.218 52.8848 352.593 53.1436 351.968 53.3096C351.343 53.4756 350.698 53.5586 350.034 53.5586C347.759 53.5586 345.913 52.8311 344.497 51.376C343.091 49.9111 342.388 47.9873 342.388 45.6045C342.388 43.29 343.105 41.4004 344.541 39.9355C345.986 38.4609 347.837 37.7236 350.093 37.7236C350.845 37.7236 351.523 37.7969 352.129 37.9434C352.734 38.0898 353.306 38.3242 353.843 38.6465V43.0557ZM368.33 45.5752C368.33 44.4229 368.022 43.5098 367.407 42.8359C366.792 42.1621 365.952 41.8252 364.888 41.8252C363.823 41.8252 362.983 42.1621 362.368 42.8359C361.763 43.5 361.46 44.4131 361.46 45.5752C361.46 46.7275 361.768 47.6357 362.383 48.2998C362.998 48.9639 363.833 49.2959 364.888 49.2959C365.952 49.2959 366.792 48.9639 367.407 48.2998C368.022 47.6357 368.33 46.7275 368.33 45.5752ZM372.915 38.1924V52.9873H368.125V50.585C367.441 51.6104 366.67 52.3623 365.811 52.8408C364.961 53.3193 363.96 53.5586 362.808 53.5586C360.835 53.5586 359.258 52.8408 358.076 51.4053C356.895 49.96 356.304 48.0264 356.304 45.6045C356.304 43.1924 356.919 41.2783 358.149 39.8623C359.39 38.4365 361.055 37.7236 363.145 37.7236C364.258 37.7236 365.215 37.9629 366.016 38.4414C366.826 38.9102 367.52 39.6377 368.096 40.624V38.1924H372.915ZM376.885 52.9873V38.1924H381.807V41.6787C382.314 40.4092 383.008 39.457 383.887 38.8223C384.766 38.1875 385.83 37.8701 387.08 37.8701C387.285 37.8701 387.49 37.8799 387.695 37.8994C387.91 37.9092 388.125 37.9287 388.34 37.958L387.842 42.7041C387.529 42.5967 387.222 42.5186 386.919 42.4697C386.616 42.4209 386.323 42.3965 386.04 42.3965C384.771 42.3965 383.789 42.7871 383.096 43.5684C382.412 44.3398 382.07 45.4385 382.07 46.8643V52.9873H376.885ZM401.582 45.6045C401.582 44.4521 401.274 43.5439 400.659 42.8799C400.054 42.2158 399.224 41.8838 398.169 41.8838C397.114 41.8838 396.284 42.2158 395.679 42.8799C395.073 43.5439 394.771 44.4521 394.771 45.6045C394.771 46.7666 395.068 47.6797 395.664 48.3438C396.27 48.998 397.104 49.3252 398.169 49.3252C399.224 49.3252 400.054 48.9932 400.659 48.3291C401.274 47.665 401.582 46.7568 401.582 45.6045ZM406.211 30.2822V52.9873H401.406V50.585C400.742 51.5811 399.995 52.3281 399.165 52.8262C398.335 53.3145 397.412 53.5586 396.396 53.5586C394.316 53.5586 392.661 52.8408 391.431 51.4053C390.2 49.9697 389.585 48.0361 389.585 45.6045C389.585 43.251 390.195 41.3516 391.416 39.9062C392.646 38.4512 394.248 37.7236 396.221 37.7236C397.471 37.7236 398.486 37.9482 399.268 38.3975C400.059 38.8467 400.762 39.5986 401.377 40.6533C401.318 40.3018 401.274 39.9062 401.245 39.4668C401.216 39.0176 401.201 38.5342 401.201 38.0166V30.2822H406.211ZM419.995 52.9873V41.8838H417.769V38.1924H419.995V35.1602C419.995 33.4414 420.464 32.1475 421.401 31.2783C422.339 30.4092 423.74 29.9746 425.605 29.9746C425.869 29.9746 426.182 29.999 426.543 30.0479C426.914 30.0967 427.31 30.165 427.729 30.2529V34.2373C427.495 34.1494 427.275 34.0859 427.07 34.0469C426.875 33.998 426.694 33.9736 426.528 33.9736C426.04 33.9736 425.684 34.1201 425.459 34.4131C425.234 34.7061 425.122 35.1797 425.122 35.834V38.1924H427.729V41.8838H425.122V52.9873H419.995ZM440.532 45.6338C440.532 44.5303 440.254 43.6611 439.697 43.0264C439.141 42.3916 438.389 42.0742 437.441 42.0742C436.484 42.0742 435.728 42.3916 435.171 43.0264C434.624 43.6611 434.351 44.5303 434.351 45.6338C434.351 46.7373 434.624 47.6064 435.171 48.2412C435.718 48.8662 436.475 49.1787 437.441 49.1787C438.398 49.1787 439.15 48.8662 439.697 48.2412C440.254 47.6064 440.532 46.7373 440.532 45.6338ZM445.718 45.6338C445.718 46.6982 445.508 47.709 445.088 48.666C444.678 49.623 444.077 50.4824 443.286 51.2441C442.485 52.0059 441.587 52.582 440.591 52.9727C439.604 53.3633 438.555 53.5586 437.441 53.5586C436.309 53.5586 435.244 53.3633 434.248 52.9727C433.262 52.582 432.378 52.0059 431.597 51.2441C430.815 50.502 430.22 49.6523 429.81 48.6953C429.399 47.7285 429.194 46.708 429.194 45.6338C429.194 44.5498 429.395 43.5293 429.795 42.5723C430.205 41.6152 430.806 40.7559 431.597 39.9941C432.368 39.2422 433.247 38.6758 434.233 38.2949C435.229 37.9141 436.299 37.7236 437.441 37.7236C438.584 37.7236 439.648 37.9141 440.635 38.2949C441.621 38.6758 442.505 39.2422 443.286 39.9941C444.087 40.7656 444.692 41.6299 445.103 42.5869C445.513 43.5439 445.718 44.5596 445.718 45.6338ZM448.75 52.9873V38.1924H453.672V41.6787C454.18 40.4092 454.873 39.457 455.752 38.8223C456.631 38.1875 457.695 37.8701 458.945 37.8701C459.15 37.8701 459.355 37.8799 459.561 37.8994C459.775 37.9092 459.99 37.9287 460.205 37.958L459.707 42.7041C459.395 42.5967 459.087 42.5186 458.784 42.4697C458.481 42.4209 458.188 42.3965 457.905 42.3965C456.636 42.3965 455.654 42.7871 454.961 43.5684C454.277 44.3398 453.936 45.4385 453.936 46.8643V52.9873H448.75ZM470.737 59.5205L474.897 50.7314L468.936 38.1924H474.722L476.787 43.5391C476.963 43.9883 477.109 44.4082 477.227 44.7988C477.344 45.1797 477.432 45.5361 477.49 45.8682C477.549 45.5166 477.632 45.1553 477.739 44.7842C477.856 44.4033 478.003 43.9883 478.179 43.5391L480.273 38.1924H485.854L476.553 59.5205H470.737ZM498.013 45.6338C498.013 44.5303 497.734 43.6611 497.178 43.0264C496.621 42.3916 495.869 42.0742 494.922 42.0742C493.965 42.0742 493.208 42.3916 492.651 43.0264C492.104 43.6611 491.831 44.5303 491.831 45.6338C491.831 46.7373 492.104 47.6064 492.651 48.2412C493.198 48.8662 493.955 49.1787 494.922 49.1787C495.879 49.1787 496.631 48.8662 497.178 48.2412C497.734 47.6064 498.013 46.7373 498.013 45.6338ZM503.198 45.6338C503.198 46.6982 502.988 47.709 502.568 48.666C502.158 49.623 501.558 50.4824 500.767 51.2441C499.966 52.0059 499.067 52.582 498.071 52.9727C497.085 53.3633 496.035 53.5586 494.922 53.5586C493.789 53.5586 492.725 53.3633 491.729 52.9727C490.742 52.582 489.858 52.0059 489.077 51.2441C488.296 50.502 487.7 49.6523 487.29 48.6953C486.88 47.7285 486.675 46.708 486.675 45.6338C486.675 44.5498 486.875 43.5293 487.275 42.5723C487.686 41.6152 488.286 40.7559 489.077 39.9941C489.849 39.2422 490.728 38.6758 491.714 38.2949C492.71 37.9141 493.779 37.7236 494.922 37.7236C496.064 37.7236 497.129 37.9141 498.115 38.2949C499.102 38.6758 499.985 39.2422 500.767 39.9941C501.567 40.7656 502.173 41.6299 502.583 42.5869C502.993 43.5439 503.198 44.5596 503.198 45.6338ZM521.377 38.1924V45.751C521.377 47.4209 521.24 48.6611 520.967 49.4717C520.703 50.2725 520.254 50.9854 519.619 51.6104C518.965 52.2646 518.149 52.7529 517.173 53.0752C516.196 53.3975 515.049 53.5586 513.73 53.5586C512.422 53.5586 511.279 53.3975 510.303 53.0752C509.336 52.7529 508.511 52.2646 507.827 51.6104C507.192 51.0049 506.743 50.2969 506.479 49.4863C506.216 48.666 506.084 47.4209 506.084 45.751V38.1924H511.064V46.0879C511.064 47.3281 511.27 48.2266 511.68 48.7832C512.09 49.3301 512.754 49.6035 513.672 49.6035C514.6 49.6035 515.264 49.335 515.664 48.7979C516.074 48.251 516.279 47.3477 516.279 46.0879V38.1924H521.377ZM525.64 45.8535V30.5459H531.074V45.8535H525.64ZM525.405 50.585C525.405 49.7549 525.684 49.0518 526.24 48.4756C526.807 47.8994 527.505 47.6113 528.335 47.6113C529.175 47.6113 529.878 47.8994 530.444 48.4756C531.021 49.042 531.309 49.7451 531.309 50.585C531.309 51.415 531.021 52.1182 530.444 52.6943C529.868 53.2705 529.165 53.5586 528.335 53.5586C527.515 53.5586 526.821 53.2705 526.255 52.6943C525.688 52.1182 525.405 51.415 525.405 50.585ZM40.4102 80.9746H46.2256L44.043 73.8994C43.9746 73.6846 43.8818 73.3379 43.7646 72.8594C43.6475 72.3809 43.4961 71.7656 43.3105 71.0137C43.1836 71.541 43.0566 72.0439 42.9297 72.5225C42.8125 73.001 42.6904 73.46 42.5635 73.8994L40.4102 80.9746ZM32.2217 88.9873L39.6191 67.542H46.9434L54.3555 88.9873H48.54L47.4561 85.1494H39.1504L38.0371 88.9873H32.2217ZM56.5674 88.9873V77.8838H54.3408V74.1924H56.5674V71.1602C56.5674 69.4414 57.0361 68.1475 57.9736 67.2783C58.9111 66.4092 60.3125 65.9746 62.1777 65.9746C62.4414 65.9746 62.7539 65.999 63.1152 66.0479C63.4863 66.0967 63.8818 66.165 64.3018 66.2529V70.2373C64.0674 70.1494 63.8477 70.0859 63.6426 70.0469C63.4473 69.998 63.2666 69.9736 63.1006 69.9736C62.6123 69.9736 62.2559 70.1201 62.0312 70.4131C61.8066 70.7061 61.6943 71.1797 61.6943 71.834V74.1924H64.3018V77.8838H61.6943V88.9873H56.5674ZM67.4072 88.9873V77.8838H65.1953V74.1924H67.4072V69.7832H72.5488V74.1924H74.7607V77.8838H72.5488V88.9873H67.4072ZM87.4023 79.6855C87.3047 78.8457 86.9824 78.1719 86.4355 77.6641C85.8984 77.1562 85.2344 76.9023 84.4434 76.9023C83.5938 76.9023 82.915 77.1367 82.4072 77.6055C81.9092 78.0645 81.5771 78.7578 81.4111 79.6855H87.4023ZM92.5439 82.6299H81.2939C81.3037 83.7725 81.5967 84.6562 82.1729 85.2812C82.749 85.8965 83.5645 86.2041 84.6191 86.2041C85.4102 86.2041 86.0742 86.0576 86.6113 85.7646C87.1582 85.4619 87.5732 85.0176 87.8564 84.4316L91.7822 86.0137C91.3135 87.1465 90.4834 88.0205 89.292 88.6357C88.1006 89.251 86.6406 89.5586 84.9121 89.5586C82.334 89.5586 80.2637 88.8457 78.7012 87.4199C77.1484 85.9844 76.3721 84.0947 76.3721 81.751C76.3721 79.4463 77.1484 77.5322 78.7012 76.0088C80.2637 74.4854 82.2363 73.7236 84.6191 73.7236C87.0703 73.7236 89.0039 74.4951 90.4199 76.0381C91.8359 77.5811 92.5439 79.6953 92.5439 82.3809V82.6299ZM95.5762 88.9873V74.1924H100.498V77.6787C101.006 76.4092 101.699 75.457 102.578 74.8223C103.457 74.1875 104.521 73.8701 105.771 73.8701C105.977 73.8701 106.182 73.8799 106.387 73.8994C106.602 73.9092 106.816 73.9287 107.031 73.958L106.533 78.7041C106.221 78.5967 105.913 78.5186 105.61 78.4697C105.308 78.4209 105.015 78.3965 104.731 78.3965C103.462 78.3965 102.48 78.7871 101.787 79.5684C101.104 80.3398 100.762 81.4385 100.762 82.8643V88.9873H95.5762ZM128.989 79.0557C128.481 78.6064 127.993 78.2793 127.524 78.0742C127.056 77.8691 126.562 77.7666 126.045 77.7666C125.01 77.7666 124.185 78.1084 123.569 78.792C122.964 79.4756 122.661 80.4033 122.661 81.5752C122.661 82.708 122.979 83.6113 123.613 84.2852C124.248 84.959 125.103 85.2959 126.177 85.2959C126.704 85.2959 127.197 85.1934 127.656 84.9883C128.125 84.7734 128.569 84.4463 128.989 84.0068V88.5332C128.364 88.8848 127.739 89.1436 127.114 89.3096C126.489 89.4756 125.845 89.5586 125.181 89.5586C122.905 89.5586 121.06 88.8311 119.644 87.376C118.237 85.9111 117.534 83.9873 117.534 81.6045C117.534 79.29 118.252 77.4004 119.688 75.9355C121.133 74.4609 122.983 73.7236 125.239 73.7236C125.991 73.7236 126.67 73.7969 127.275 73.9434C127.881 74.0898 128.452 74.3242 128.989 74.6465V79.0557ZM142.7 81.6338C142.7 80.5303 142.422 79.6611 141.865 79.0264C141.309 78.3916 140.557 78.0742 139.609 78.0742C138.652 78.0742 137.896 78.3916 137.339 79.0264C136.792 79.6611 136.519 80.5303 136.519 81.6338C136.519 82.7373 136.792 83.6064 137.339 84.2412C137.886 84.8662 138.643 85.1787 139.609 85.1787C140.566 85.1787 141.318 84.8662 141.865 84.2412C142.422 83.6064 142.7 82.7373 142.7 81.6338ZM147.886 81.6338C147.886 82.6982 147.676 83.709 147.256 84.666C146.846 85.623 146.245 86.4824 145.454 87.2441C144.653 88.0059 143.755 88.582 142.759 88.9727C141.772 89.3633 140.723 89.5586 139.609 89.5586C138.477 89.5586 137.412 89.3633 136.416 88.9727C135.43 88.582 134.546 88.0059 133.765 87.2441C132.983 86.502 132.388 85.6523 131.978 84.6953C131.567 83.7285 131.362 82.708 131.362 81.6338C131.362 80.5498 131.562 79.5293 131.963 78.5723C132.373 77.6152 132.974 76.7559 133.765 75.9941C134.536 75.2422 135.415 74.6758 136.401 74.2949C137.397 73.9141 138.467 73.7236 139.609 73.7236C140.752 73.7236 141.816 73.9141 142.803 74.2949C143.789 74.6758 144.673 75.2422 145.454 75.9941C146.255 76.7656 146.86 77.6299 147.271 78.5869C147.681 79.5439 147.886 80.5596 147.886 81.6338ZM170.474 88.9873V80.916C170.474 79.6367 170.312 78.7529 169.99 78.2646C169.678 77.7764 169.131 77.5322 168.35 77.5322C167.373 77.5322 166.694 77.874 166.313 78.5576C165.933 79.2314 165.742 80.6182 165.742 82.7178V88.9873H160.703V80.916C160.703 79.6172 160.547 78.7285 160.234 78.25C159.922 77.7715 159.375 77.5322 158.594 77.5322C157.617 77.5322 156.934 77.8691 156.543 78.543C156.152 79.207 155.957 80.5986 155.957 82.7178V88.9873H150.889V74.1924H156.016V76.7705C156.631 75.7256 157.339 74.959 158.14 74.4707C158.95 73.9727 159.902 73.7236 160.996 73.7236C162.197 73.7236 163.179 73.958 163.94 74.4268C164.712 74.8857 165.264 75.5791 165.596 76.5068C166.172 75.5693 166.875 74.8711 167.705 74.4121C168.535 73.9531 169.512 73.7236 170.635 73.7236C171.523 73.7236 172.3 73.875 172.964 74.1777C173.638 74.4707 174.199 74.915 174.648 75.5107C175.01 75.9795 175.264 76.5264 175.41 77.1514C175.566 77.7764 175.645 78.792 175.645 80.1982V80.5205V88.9873H170.474ZM183.994 81.6338C183.994 82.7861 184.292 83.6943 184.888 84.3584C185.493 85.0225 186.323 85.3545 187.378 85.3545C188.433 85.3545 189.263 85.0225 189.868 84.3584C190.483 83.6943 190.791 82.7861 190.791 81.6338C190.791 80.4814 190.488 79.5732 189.883 78.9092C189.277 78.2451 188.442 77.9131 187.378 77.9131C186.323 77.9131 185.493 78.2451 184.888 78.9092C184.292 79.5732 183.994 80.4814 183.994 81.6338ZM179.365 95.5205V74.1924H184.17V76.6826C184.834 75.6865 185.581 74.9443 186.411 74.4561C187.241 73.9678 188.164 73.7236 189.18 73.7236C191.26 73.7236 192.915 74.4365 194.146 75.8623C195.376 77.2783 195.991 79.2021 195.991 81.6338C195.991 83.9971 195.376 85.9111 194.146 87.376C192.925 88.8311 191.328 89.5586 189.355 89.5586C188.105 89.5586 187.085 89.3291 186.294 88.8701C185.513 88.4111 184.814 87.6543 184.199 86.5996C184.248 86.8926 184.282 87.249 184.302 87.6689C184.331 88.0889 184.346 88.6064 184.346 89.2217V95.5205H179.365ZM199.287 88.9873V66.2822H204.517V88.9873H199.287ZM218.711 79.6855C218.613 78.8457 218.291 78.1719 217.744 77.6641C217.207 77.1562 216.543 76.9023 215.752 76.9023C214.902 76.9023 214.224 77.1367 213.716 77.6055C213.218 78.0645 212.886 78.7578 212.72 79.6855H218.711ZM223.853 82.6299H212.603C212.612 83.7725 212.905 84.6562 213.481 85.2812C214.058 85.8965 214.873 86.2041 215.928 86.2041C216.719 86.2041 217.383 86.0576 217.92 85.7646C218.467 85.4619 218.882 85.0176 219.165 84.4316L223.091 86.0137C222.622 87.1465 221.792 88.0205 220.601 88.6357C219.409 89.251 217.949 89.5586 216.221 89.5586C213.643 89.5586 211.572 88.8457 210.01 87.4199C208.457 85.9844 207.681 84.0947 207.681 81.751C207.681 79.4463 208.457 77.5322 210.01 76.0088C211.572 74.4854 213.545 73.7236 215.928 73.7236C218.379 73.7236 220.312 74.4951 221.729 76.0381C223.145 77.5811 223.853 79.6953 223.853 82.3809V82.6299ZM227.661 88.9873V77.8838H225.449V74.1924H227.661V69.7832H232.803V74.1924H235.015V77.8838H232.803V88.9873H227.661ZM237.344 69.5781C237.344 68.7871 237.622 68.1133 238.179 67.5566C238.745 67 239.424 66.7217 240.215 66.7217C241.035 66.7217 241.719 66.9951 242.266 67.542C242.822 68.0889 243.101 68.7676 243.101 69.5781C243.101 70.3887 242.817 71.0771 242.251 71.6436C241.694 72.21 241.016 72.4932 240.215 72.4932C239.434 72.4932 238.76 72.2051 238.193 71.6289C237.627 71.0527 237.344 70.3691 237.344 69.5781ZM237.607 88.9873V74.1924H242.837V88.9873H237.607ZM246.836 88.9873V74.1924H251.611V77.1953C252.305 75.9941 253.105 75.1152 254.014 74.5586C254.922 74.002 256.011 73.7236 257.28 73.7236C258.237 73.7236 259.087 73.8799 259.829 74.1924C260.581 74.4951 261.191 74.9346 261.66 75.5107C262.051 76.0088 262.329 76.6143 262.495 77.3271C262.661 78.04 262.744 79.1045 262.744 80.5205V88.9873H257.515V81.0625C257.515 79.8809 257.319 79.0215 256.929 78.4844C256.548 77.9473 255.933 77.6787 255.083 77.6787C253.999 77.6787 253.208 78.0791 252.71 78.8799C252.212 79.6807 251.963 80.9795 251.963 82.7764V88.9873H246.836ZM277.715 81.5459C277.715 80.4033 277.407 79.5098 276.792 78.8652C276.187 78.2109 275.347 77.8838 274.272 77.8838C273.188 77.8838 272.334 78.2109 271.709 78.8652C271.094 79.5098 270.786 80.4033 270.786 81.5459C270.786 82.6787 271.094 83.5723 271.709 84.2266C272.334 84.8809 273.188 85.208 274.272 85.208C275.337 85.208 276.177 84.8809 276.792 84.2266C277.407 83.5723 277.715 82.6787 277.715 81.5459ZM282.3 74.1924V88.958C282.3 91.1943 281.616 92.8447 280.249 93.9092C278.892 94.9834 276.787 95.5205 273.936 95.5205C271.631 95.5205 269.824 95.0908 268.516 94.2314C267.207 93.3818 266.514 92.1758 266.436 90.6133H271.841C271.919 91.0723 272.173 91.4287 272.603 91.6826C273.042 91.9463 273.618 92.0781 274.331 92.0781C275.454 92.0781 276.226 91.8047 276.646 91.2578C277.075 90.7207 277.29 89.583 277.29 87.8447V86.4971C276.743 87.4248 276.045 88.1182 275.195 88.5771C274.346 89.0264 273.335 89.251 272.163 89.251C270.21 89.251 268.643 88.5479 267.461 87.1416C266.279 85.7256 265.688 83.8408 265.688 81.4873C265.688 79.1143 266.304 77.2295 267.534 75.833C268.774 74.4268 270.439 73.7236 272.529 73.7236C273.633 73.7236 274.585 73.9531 275.386 74.4121C276.196 74.8711 276.895 75.5889 277.48 76.5654V74.1924H282.3ZM296.45 88.9873V77.8838H294.238V74.1924H296.45V69.7832H301.592V74.1924H303.804V77.8838H301.592V88.9873H296.45ZM306.25 88.9873V66.2822H311.377V74.251C311.377 74.7783 311.362 75.2666 311.333 75.7158C311.304 76.165 311.26 76.5703 311.201 76.9316C311.855 75.8281 312.627 75.0176 313.516 74.5C314.404 73.9824 315.464 73.7236 316.694 73.7236C317.651 73.7236 318.501 73.8799 319.243 74.1924C319.995 74.4951 320.605 74.9346 321.074 75.5107C321.465 76.0088 321.743 76.6143 321.909 77.3271C322.075 78.04 322.158 79.1045 322.158 80.5205V88.9873H316.929V81.0625C316.929 79.8809 316.733 79.0215 316.343 78.4844C315.962 77.9473 315.347 77.6787 314.497 77.6787C313.413 77.6787 312.622 78.0791 312.124 78.8799C311.626 79.6807 311.377 80.9795 311.377 82.7764V88.9873H306.25ZM336.045 79.6855C335.947 78.8457 335.625 78.1719 335.078 77.6641C334.541 77.1562 333.877 76.9023 333.086 76.9023C332.236 76.9023 331.558 77.1367 331.05 77.6055C330.552 78.0645 330.22 78.7578 330.054 79.6855H336.045ZM341.187 82.6299H329.937C329.946 83.7725 330.239 84.6562 330.815 85.2812C331.392 85.8965 332.207 86.2041 333.262 86.2041C334.053 86.2041 334.717 86.0576 335.254 85.7646C335.801 85.4619 336.216 85.0176 336.499 84.4316L340.425 86.0137C339.956 87.1465 339.126 88.0205 337.935 88.6357C336.743 89.251 335.283 89.5586 333.555 89.5586C330.977 89.5586 328.906 88.8457 327.344 87.4199C325.791 85.9844 325.015 84.0947 325.015 81.751C325.015 79.4463 325.791 77.5322 327.344 76.0088C328.906 74.4854 330.879 73.7236 333.262 73.7236C335.713 73.7236 337.646 74.4951 339.062 76.0381C340.479 77.5811 341.187 79.6953 341.187 82.3809V82.6299ZM364.873 81.5459C364.873 80.4033 364.565 79.5098 363.95 78.8652C363.345 78.2109 362.505 77.8838 361.431 77.8838C360.347 77.8838 359.492 78.2109 358.867 78.8652C358.252 79.5098 357.944 80.4033 357.944 81.5459C357.944 82.6787 358.252 83.5723 358.867 84.2266C359.492 84.8809 360.347 85.208 361.431 85.208C362.495 85.208 363.335 84.8809 363.95 84.2266C364.565 83.5723 364.873 82.6787 364.873 81.5459ZM369.458 74.1924V88.958C369.458 91.1943 368.774 92.8447 367.407 93.9092C366.05 94.9834 363.945 95.5205 361.094 95.5205C358.789 95.5205 356.982 95.0908 355.674 94.2314C354.365 93.3818 353.672 92.1758 353.594 90.6133H358.999C359.077 91.0723 359.331 91.4287 359.761 91.6826C360.2 91.9463 360.776 92.0781 361.489 92.0781C362.612 92.0781 363.384 91.8047 363.804 91.2578C364.233 90.7207 364.448 89.583 364.448 87.8447V86.4971C363.901 87.4248 363.203 88.1182 362.354 88.5771C361.504 89.0264 360.493 89.251 359.321 89.251C357.368 89.251 355.801 88.5479 354.619 87.1416C353.438 85.7256 352.847 83.8408 352.847 81.4873C352.847 79.1143 353.462 77.2295 354.692 75.833C355.933 74.4268 357.598 73.7236 359.688 73.7236C360.791 73.7236 361.743 73.9531 362.544 74.4121C363.354 74.8711 364.053 75.5889 364.639 76.5654V74.1924H369.458ZM384.678 81.5752C384.678 80.4229 384.37 79.5098 383.755 78.8359C383.14 78.1621 382.3 77.8252 381.235 77.8252C380.171 77.8252 379.331 78.1621 378.716 78.8359C378.11 79.5 377.808 80.4131 377.808 81.5752C377.808 82.7275 378.115 83.6357 378.73 84.2998C379.346 84.9639 380.181 85.2959 381.235 85.2959C382.3 85.2959 383.14 84.9639 383.755 84.2998C384.37 83.6357 384.678 82.7275 384.678 81.5752ZM389.263 74.1924V88.9873H384.473V86.585C383.789 87.6104 383.018 88.3623 382.158 88.8408C381.309 89.3193 380.308 89.5586 379.155 89.5586C377.183 89.5586 375.605 88.8408 374.424 87.4053C373.242 85.96 372.651 84.0264 372.651 81.6045C372.651 79.1924 373.267 77.2783 374.497 75.8623C375.737 74.4365 377.402 73.7236 379.492 73.7236C380.605 73.7236 381.562 73.9629 382.363 74.4414C383.174 74.9102 383.867 75.6377 384.443 76.624V74.1924H389.263ZM412.788 88.9873V80.916C412.788 79.6367 412.627 78.7529 412.305 78.2646C411.992 77.7764 411.445 77.5322 410.664 77.5322C409.688 77.5322 409.009 77.874 408.628 78.5576C408.247 79.2314 408.057 80.6182 408.057 82.7178V88.9873H403.018V80.916C403.018 79.6172 402.861 78.7285 402.549 78.25C402.236 77.7715 401.689 77.5322 400.908 77.5322C399.932 77.5322 399.248 77.8691 398.857 78.543C398.467 79.207 398.271 80.5986 398.271 82.7178V88.9873H393.203V74.1924H398.33V76.7705C398.945 75.7256 399.653 74.959 400.454 74.4707C401.265 73.9727 402.217 73.7236 403.311 73.7236C404.512 73.7236 405.493 73.958 406.255 74.4268C407.026 74.8857 407.578 75.5791 407.91 76.5068C408.486 75.5693 409.189 74.8711 410.02 74.4121C410.85 73.9531 411.826 73.7236 412.949 73.7236C413.838 73.7236 414.614 73.875 415.278 74.1777C415.952 74.4707 416.514 74.915 416.963 75.5107C417.324 75.9795 417.578 76.5264 417.725 77.1514C417.881 77.7764 417.959 78.792 417.959 80.1982V80.5205V88.9873H412.788ZM431.846 79.6855C431.748 78.8457 431.426 78.1719 430.879 77.6641C430.342 77.1562 429.678 76.9023 428.887 76.9023C428.037 76.9023 427.358 77.1367 426.851 77.6055C426.353 78.0645 426.021 78.7578 425.854 79.6855H431.846ZM436.987 82.6299H425.737C425.747 83.7725 426.04 84.6562 426.616 85.2812C427.192 85.8965 428.008 86.2041 429.062 86.2041C429.854 86.2041 430.518 86.0576 431.055 85.7646C431.602 85.4619 432.017 85.0176 432.3 84.4316L436.226 86.0137C435.757 87.1465 434.927 88.0205 433.735 88.6357C432.544 89.251 431.084 89.5586 429.355 89.5586C426.777 89.5586 424.707 88.8457 423.145 87.4199C421.592 85.9844 420.815 84.0947 420.815 81.751C420.815 79.4463 421.592 77.5322 423.145 76.0088C424.707 74.4854 426.68 73.7236 429.062 73.7236C431.514 73.7236 433.447 74.4951 434.863 76.0381C436.279 77.5811 436.987 79.6953 436.987 82.3809V82.6299ZM441.587 84.124H447.036L442.51 93.3086H438.467L441.587 84.124ZM459.282 88.9873V67.542H465.186V88.9873H459.282ZM468.745 67.9229H471.953V76.1406H468.745V67.9229ZM486.309 81.6045C486.309 80.4521 486.001 79.5439 485.386 78.8799C484.78 78.2158 483.95 77.8838 482.896 77.8838C481.841 77.8838 481.011 78.2158 480.405 78.8799C479.8 79.5439 479.497 80.4521 479.497 81.6045C479.497 82.7666 479.795 83.6797 480.391 84.3438C480.996 84.998 481.831 85.3252 482.896 85.3252C483.95 85.3252 484.78 84.9932 485.386 84.3291C486.001 83.665 486.309 82.7568 486.309 81.6045ZM490.938 66.2822V88.9873H486.133V86.585C485.469 87.5811 484.722 88.3281 483.892 88.8262C483.062 89.3145 482.139 89.5586 481.123 89.5586C479.043 89.5586 477.388 88.8408 476.157 87.4053C474.927 85.9697 474.312 84.0361 474.312 81.6045C474.312 79.251 474.922 77.3516 476.143 75.9062C477.373 74.4512 478.975 73.7236 480.947 73.7236C482.197 73.7236 483.213 73.9482 483.994 74.3975C484.785 74.8467 485.488 75.5986 486.104 76.6533C486.045 76.3018 486.001 75.9062 485.972 75.4668C485.942 75.0176 485.928 74.5342 485.928 74.0166V66.2822H490.938ZM504.355 88.9873V66.2822H509.585V88.9873H504.355ZM513.467 69.5781C513.467 68.7871 513.745 68.1133 514.302 67.5566C514.868 67 515.547 66.7217 516.338 66.7217C517.158 66.7217 517.842 66.9951 518.389 67.542C518.945 68.0889 519.224 68.7676 519.224 69.5781C519.224 70.3887 518.94 71.0771 518.374 71.6436C517.817 72.21 517.139 72.4932 516.338 72.4932C515.557 72.4932 514.883 72.2051 514.316 71.6289C513.75 71.0527 513.467 70.3691 513.467 69.5781ZM513.73 88.9873V74.1924H518.96V88.9873H513.73ZM522.988 88.9873V66.2822H528.115V80.6523L533.491 74.1924H539.966L533.315 81.3115L540.566 88.9873H533.696L528.115 82.4102V88.9873H522.988ZM551.318 79.6855C551.221 78.8457 550.898 78.1719 550.352 77.6641C549.814 77.1562 549.15 76.9023 548.359 76.9023C547.51 76.9023 546.831 77.1367 546.323 77.6055C545.825 78.0645 545.493 78.7578 545.327 79.6855H551.318ZM556.46 82.6299H545.21C545.22 83.7725 545.513 84.6562 546.089 85.2812C546.665 85.8965 547.48 86.2041 548.535 86.2041C549.326 86.2041 549.99 86.0576 550.527 85.7646C551.074 85.4619 551.489 85.0176 551.772 84.4316L555.698 86.0137C555.229 87.1465 554.399 88.0205 553.208 88.6357C552.017 89.251 550.557 89.5586 548.828 89.5586C546.25 89.5586 544.18 88.8457 542.617 87.4199C541.064 85.9844 540.288 84.0947 540.288 81.751C540.288 79.4463 541.064 77.5322 542.617 76.0088C544.18 74.4854 546.152 73.7236 548.535 73.7236C550.986 73.7236 552.92 74.4951 554.336 76.0381C555.752 77.5811 556.46 79.6953 556.46 82.3809V82.6299ZM72.915 131.521L77.0752 122.731L71.1133 110.192H76.8994L78.9648 115.539C79.1406 115.988 79.2871 116.408 79.4043 116.799C79.5215 117.18 79.6094 117.536 79.668 117.868C79.7266 117.517 79.8096 117.155 79.917 116.784C80.0342 116.403 80.1807 115.988 80.3564 115.539L82.4512 110.192H88.0322L78.7305 131.521H72.915ZM100.19 117.634C100.19 116.53 99.9121 115.661 99.3555 115.026C98.7988 114.392 98.0469 114.074 97.0996 114.074C96.1426 114.074 95.3857 114.392 94.8291 115.026C94.2822 115.661 94.0088 116.53 94.0088 117.634C94.0088 118.737 94.2822 119.606 94.8291 120.241C95.376 120.866 96.1328 121.179 97.0996 121.179C98.0566 121.179 98.8086 120.866 99.3555 120.241C99.9121 119.606 100.19 118.737 100.19 117.634ZM105.376 117.634C105.376 118.698 105.166 119.709 104.746 120.666C104.336 121.623 103.735 122.482 102.944 123.244C102.144 124.006 101.245 124.582 100.249 124.973C99.2627 125.363 98.2129 125.559 97.0996 125.559C95.9668 125.559 94.9023 125.363 93.9062 124.973C92.9199 124.582 92.0361 124.006 91.2549 123.244C90.4736 122.502 89.8779 121.652 89.4678 120.695C89.0576 119.729 88.8525 118.708 88.8525 117.634C88.8525 116.55 89.0527 115.529 89.4531 114.572C89.8633 113.615 90.4639 112.756 91.2549 111.994C92.0264 111.242 92.9053 110.676 93.8916 110.295C94.8877 109.914 95.957 109.724 97.0996 109.724C98.2422 109.724 99.3066 109.914 100.293 110.295C101.279 110.676 102.163 111.242 102.944 111.994C103.745 112.766 104.351 113.63 104.761 114.587C105.171 115.544 105.376 116.56 105.376 117.634ZM123.555 110.192V117.751C123.555 119.421 123.418 120.661 123.145 121.472C122.881 122.272 122.432 122.985 121.797 123.61C121.143 124.265 120.327 124.753 119.351 125.075C118.374 125.397 117.227 125.559 115.908 125.559C114.6 125.559 113.457 125.397 112.48 125.075C111.514 124.753 110.688 124.265 110.005 123.61C109.37 123.005 108.921 122.297 108.657 121.486C108.394 120.666 108.262 119.421 108.262 117.751V110.192H113.242V118.088C113.242 119.328 113.447 120.227 113.857 120.783C114.268 121.33 114.932 121.604 115.85 121.604C116.777 121.604 117.441 121.335 117.842 120.798C118.252 120.251 118.457 119.348 118.457 118.088V110.192H123.555ZM137.515 124.987V113.884H135.303V110.192H137.515V105.783H142.656V110.192H144.868V113.884H142.656V124.987H137.515ZM157.817 117.634C157.817 116.53 157.539 115.661 156.982 115.026C156.426 114.392 155.674 114.074 154.727 114.074C153.77 114.074 153.013 114.392 152.456 115.026C151.909 115.661 151.636 116.53 151.636 117.634C151.636 118.737 151.909 119.606 152.456 120.241C153.003 120.866 153.76 121.179 154.727 121.179C155.684 121.179 156.436 120.866 156.982 120.241C157.539 119.606 157.817 118.737 157.817 117.634ZM163.003 117.634C163.003 118.698 162.793 119.709 162.373 120.666C161.963 121.623 161.362 122.482 160.571 123.244C159.771 124.006 158.872 124.582 157.876 124.973C156.89 125.363 155.84 125.559 154.727 125.559C153.594 125.559 152.529 125.363 151.533 124.973C150.547 124.582 149.663 124.006 148.882 123.244C148.101 122.502 147.505 121.652 147.095 120.695C146.685 119.729 146.479 118.708 146.479 117.634C146.479 116.55 146.68 115.529 147.08 114.572C147.49 113.615 148.091 112.756 148.882 111.994C149.653 111.242 150.532 110.676 151.519 110.295C152.515 109.914 153.584 109.724 154.727 109.724C155.869 109.724 156.934 109.914 157.92 110.295C158.906 110.676 159.79 111.242 160.571 111.994C161.372 112.766 161.978 113.63 162.388 114.587C162.798 115.544 163.003 116.56 163.003 117.634ZM175.293 105.578C175.293 104.787 175.571 104.113 176.128 103.557C176.694 103 177.373 102.722 178.164 102.722C178.984 102.722 179.668 102.995 180.215 103.542C180.771 104.089 181.05 104.768 181.05 105.578C181.05 106.389 180.767 107.077 180.2 107.644C179.644 108.21 178.965 108.493 178.164 108.493C177.383 108.493 176.709 108.205 176.143 107.629C175.576 107.053 175.293 106.369 175.293 105.578ZM175.557 124.987V110.192H180.786V124.987H175.557ZM184.785 124.987V110.192H189.561V113.195C190.254 111.994 191.055 111.115 191.963 110.559C192.871 110.002 193.96 109.724 195.229 109.724C196.187 109.724 197.036 109.88 197.778 110.192C198.53 110.495 199.141 110.935 199.609 111.511C200 112.009 200.278 112.614 200.444 113.327C200.61 114.04 200.693 115.104 200.693 116.521V124.987H195.464V117.062C195.464 115.881 195.269 115.021 194.878 114.484C194.497 113.947 193.882 113.679 193.032 113.679C191.948 113.679 191.157 114.079 190.659 114.88C190.161 115.681 189.912 116.979 189.912 118.776V124.987H184.785ZM205.19 124.987V113.884H202.979V110.192H205.19V105.783H210.332V110.192H212.544V113.884H210.332V124.987H205.19ZM215.02 124.987V110.192H219.941V113.679C220.449 112.409 221.143 111.457 222.021 110.822C222.9 110.188 223.965 109.87 225.215 109.87C225.42 109.87 225.625 109.88 225.83 109.899C226.045 109.909 226.26 109.929 226.475 109.958L225.977 114.704C225.664 114.597 225.356 114.519 225.054 114.47C224.751 114.421 224.458 114.396 224.175 114.396C222.905 114.396 221.924 114.787 221.23 115.568C220.547 116.34 220.205 117.438 220.205 118.864V124.987H215.02ZM238.911 117.634C238.911 116.53 238.633 115.661 238.076 115.026C237.52 114.392 236.768 114.074 235.82 114.074C234.863 114.074 234.106 114.392 233.55 115.026C233.003 115.661 232.729 116.53 232.729 117.634C232.729 118.737 233.003 119.606 233.55 120.241C234.097 120.866 234.854 121.179 235.82 121.179C236.777 121.179 237.529 120.866 238.076 120.241C238.633 119.606 238.911 118.737 238.911 117.634ZM244.097 117.634C244.097 118.698 243.887 119.709 243.467 120.666C243.057 121.623 242.456 122.482 241.665 123.244C240.864 124.006 239.966 124.582 238.97 124.973C237.983 125.363 236.934 125.559 235.82 125.559C234.688 125.559 233.623 125.363 232.627 124.973C231.641 124.582 230.757 124.006 229.976 123.244C229.194 122.502 228.599 121.652 228.188 120.695C227.778 119.729 227.573 118.708 227.573 117.634C227.573 116.55 227.773 115.529 228.174 114.572C228.584 113.615 229.185 112.756 229.976 111.994C230.747 111.242 231.626 110.676 232.612 110.295C233.608 109.914 234.678 109.724 235.82 109.724C236.963 109.724 238.027 109.914 239.014 110.295C240 110.676 240.884 111.242 241.665 111.994C242.466 112.766 243.071 113.63 243.481 114.587C243.892 115.544 244.097 116.56 244.097 117.634ZM245.723 123.757L246.807 119.772C247.568 120.437 248.403 120.949 249.312 121.311C250.229 121.662 251.152 121.838 252.08 121.838C252.734 121.838 253.232 121.735 253.574 121.53C253.916 121.315 254.087 121.008 254.087 120.607C254.087 119.953 253.398 119.465 252.021 119.143C251.572 119.035 251.211 118.942 250.938 118.864C249.375 118.435 248.237 117.873 247.524 117.18C246.821 116.477 246.47 115.568 246.47 114.455C246.47 113.02 247.007 111.872 248.081 111.013C249.165 110.153 250.63 109.724 252.476 109.724C253.423 109.724 254.385 109.836 255.361 110.061C256.348 110.275 257.354 110.612 258.379 111.071L257.295 114.66C256.602 114.191 255.898 113.835 255.186 113.591C254.473 113.347 253.76 113.225 253.047 113.225C252.451 113.225 252.002 113.317 251.699 113.503C251.396 113.688 251.245 113.957 251.245 114.309C251.245 114.836 251.929 115.28 253.296 115.642C253.608 115.729 253.843 115.793 253.999 115.832C255.806 116.35 257.061 116.96 257.764 117.663C258.477 118.356 258.833 119.299 258.833 120.49C258.833 122.004 258.252 123.229 257.09 124.167C255.928 125.095 254.39 125.559 252.476 125.559C251.177 125.559 249.971 125.407 248.857 125.104C247.744 124.812 246.699 124.362 245.723 123.757ZM266.289 117.634C266.289 118.786 266.587 119.694 267.183 120.358C267.788 121.022 268.618 121.354 269.673 121.354C270.728 121.354 271.558 121.022 272.163 120.358C272.778 119.694 273.086 118.786 273.086 117.634C273.086 116.481 272.783 115.573 272.178 114.909C271.572 114.245 270.737 113.913 269.673 113.913C268.618 113.913 267.788 114.245 267.183 114.909C266.587 115.573 266.289 116.481 266.289 117.634ZM261.66 131.521V110.192H266.465V112.683C267.129 111.687 267.876 110.944 268.706 110.456C269.536 109.968 270.459 109.724 271.475 109.724C273.555 109.724 275.21 110.437 276.44 111.862C277.671 113.278 278.286 115.202 278.286 117.634C278.286 119.997 277.671 121.911 276.44 123.376C275.22 124.831 273.623 125.559 271.65 125.559C270.4 125.559 269.38 125.329 268.589 124.87C267.808 124.411 267.109 123.654 266.494 122.6C266.543 122.893 266.577 123.249 266.597 123.669C266.626 124.089 266.641 124.606 266.641 125.222V131.521H261.66ZM291.631 115.686C291.533 114.846 291.211 114.172 290.664 113.664C290.127 113.156 289.463 112.902 288.672 112.902C287.822 112.902 287.144 113.137 286.636 113.605C286.138 114.064 285.806 114.758 285.64 115.686H291.631ZM296.772 118.63H285.522C285.532 119.772 285.825 120.656 286.401 121.281C286.978 121.896 287.793 122.204 288.848 122.204C289.639 122.204 290.303 122.058 290.84 121.765C291.387 121.462 291.802 121.018 292.085 120.432L296.011 122.014C295.542 123.146 294.712 124.021 293.521 124.636C292.329 125.251 290.869 125.559 289.141 125.559C286.562 125.559 284.492 124.846 282.93 123.42C281.377 121.984 280.601 120.095 280.601 117.751C280.601 115.446 281.377 113.532 282.93 112.009C284.492 110.485 286.465 109.724 288.848 109.724C291.299 109.724 293.232 110.495 294.648 112.038C296.064 113.581 296.772 115.695 296.772 118.381V118.63ZM310.396 115.056C309.888 114.606 309.399 114.279 308.931 114.074C308.462 113.869 307.969 113.767 307.451 113.767C306.416 113.767 305.591 114.108 304.976 114.792C304.37 115.476 304.067 116.403 304.067 117.575C304.067 118.708 304.385 119.611 305.02 120.285C305.654 120.959 306.509 121.296 307.583 121.296C308.11 121.296 308.604 121.193 309.062 120.988C309.531 120.773 309.976 120.446 310.396 120.007V124.533C309.771 124.885 309.146 125.144 308.521 125.31C307.896 125.476 307.251 125.559 306.587 125.559C304.312 125.559 302.466 124.831 301.05 123.376C299.644 121.911 298.94 119.987 298.94 117.604C298.94 115.29 299.658 113.4 301.094 111.936C302.539 110.461 304.39 109.724 306.646 109.724C307.397 109.724 308.076 109.797 308.682 109.943C309.287 110.09 309.858 110.324 310.396 110.646V115.056ZM314.409 124.987V113.884H312.197V110.192H314.409V105.783H319.551V110.192H321.763V113.884H319.551V124.987H314.409ZM344.116 117.634C344.116 116.53 343.838 115.661 343.281 115.026C342.725 114.392 341.973 114.074 341.025 114.074C340.068 114.074 339.312 114.392 338.755 115.026C338.208 115.661 337.935 116.53 337.935 117.634C337.935 118.737 338.208 119.606 338.755 120.241C339.302 120.866 340.059 121.179 341.025 121.179C341.982 121.179 342.734 120.866 343.281 120.241C343.838 119.606 344.116 118.737 344.116 117.634ZM349.302 117.634C349.302 118.698 349.092 119.709 348.672 120.666C348.262 121.623 347.661 122.482 346.87 123.244C346.069 124.006 345.171 124.582 344.175 124.973C343.188 125.363 342.139 125.559 341.025 125.559C339.893 125.559 338.828 125.363 337.832 124.973C336.846 124.582 335.962 124.006 335.181 123.244C334.399 122.502 333.804 121.652 333.394 120.695C332.983 119.729 332.778 118.708 332.778 117.634C332.778 116.55 332.979 115.529 333.379 114.572C333.789 113.615 334.39 112.756 335.181 111.994C335.952 111.242 336.831 110.676 337.817 110.295C338.813 109.914 339.883 109.724 341.025 109.724C342.168 109.724 343.232 109.914 344.219 110.295C345.205 110.676 346.089 111.242 346.87 111.994C347.671 112.766 348.276 113.63 348.687 114.587C349.097 115.544 349.302 116.56 349.302 117.634ZM352.305 124.987V110.192H357.08V113.195C357.773 111.994 358.574 111.115 359.482 110.559C360.391 110.002 361.479 109.724 362.749 109.724C363.706 109.724 364.556 109.88 365.298 110.192C366.05 110.495 366.66 110.935 367.129 111.511C367.52 112.009 367.798 112.614 367.964 113.327C368.13 114.04 368.213 115.104 368.213 116.521V124.987H362.983V117.062C362.983 115.881 362.788 115.021 362.397 114.484C362.017 113.947 361.401 113.679 360.552 113.679C359.468 113.679 358.677 114.079 358.179 114.88C357.681 115.681 357.432 116.979 357.432 118.776V124.987H352.305ZM380.503 131.521L384.663 122.731L378.701 110.192H384.487L386.553 115.539C386.729 115.988 386.875 116.408 386.992 116.799C387.109 117.18 387.197 117.536 387.256 117.868C387.314 117.517 387.397 117.155 387.505 116.784C387.622 116.403 387.769 115.988 387.944 115.539L390.039 110.192H395.62L386.318 131.521H380.503ZM407.778 117.634C407.778 116.53 407.5 115.661 406.943 115.026C406.387 114.392 405.635 114.074 404.688 114.074C403.73 114.074 402.974 114.392 402.417 115.026C401.87 115.661 401.597 116.53 401.597 117.634C401.597 118.737 401.87 119.606 402.417 120.241C402.964 120.866 403.721 121.179 404.688 121.179C405.645 121.179 406.396 120.866 406.943 120.241C407.5 119.606 407.778 118.737 407.778 117.634ZM412.964 117.634C412.964 118.698 412.754 119.709 412.334 120.666C411.924 121.623 411.323 122.482 410.532 123.244C409.731 124.006 408.833 124.582 407.837 124.973C406.851 125.363 405.801 125.559 404.688 125.559C403.555 125.559 402.49 125.363 401.494 124.973C400.508 124.582 399.624 124.006 398.843 123.244C398.062 122.502 397.466 121.652 397.056 120.695C396.646 119.729 396.44 118.708 396.44 117.634C396.44 116.55 396.641 115.529 397.041 114.572C397.451 113.615 398.052 112.756 398.843 111.994C399.614 111.242 400.493 110.676 401.479 110.295C402.476 109.914 403.545 109.724 404.688 109.724C405.83 109.724 406.895 109.914 407.881 110.295C408.867 110.676 409.751 111.242 410.532 111.994C411.333 112.766 411.938 113.63 412.349 114.587C412.759 115.544 412.964 116.56 412.964 117.634ZM431.143 110.192V117.751C431.143 119.421 431.006 120.661 430.732 121.472C430.469 122.272 430.02 122.985 429.385 123.61C428.73 124.265 427.915 124.753 426.938 125.075C425.962 125.397 424.814 125.559 423.496 125.559C422.188 125.559 421.045 125.397 420.068 125.075C419.102 124.753 418.276 124.265 417.593 123.61C416.958 123.005 416.509 122.297 416.245 121.486C415.981 120.666 415.85 119.421 415.85 117.751V110.192H420.83V118.088C420.83 119.328 421.035 120.227 421.445 120.783C421.855 121.33 422.52 121.604 423.438 121.604C424.365 121.604 425.029 121.335 425.43 120.798C425.84 120.251 426.045 119.348 426.045 118.088V110.192H431.143ZM434.922 124.987V110.192H439.844V113.679C440.352 112.409 441.045 111.457 441.924 110.822C442.803 110.188 443.867 109.87 445.117 109.87C445.322 109.87 445.527 109.88 445.732 109.899C445.947 109.909 446.162 109.929 446.377 109.958L445.879 114.704C445.566 114.597 445.259 114.519 444.956 114.47C444.653 114.421 444.36 114.396 444.077 114.396C442.808 114.396 441.826 114.787 441.133 115.568C440.449 116.34 440.107 117.438 440.107 118.864V124.987H434.922ZM468.218 117.634C468.218 116.53 467.939 115.661 467.383 115.026C466.826 114.392 466.074 114.074 465.127 114.074C464.17 114.074 463.413 114.392 462.856 115.026C462.31 115.661 462.036 116.53 462.036 117.634C462.036 118.737 462.31 119.606 462.856 120.241C463.403 120.866 464.16 121.179 465.127 121.179C466.084 121.179 466.836 120.866 467.383 120.241C467.939 119.606 468.218 118.737 468.218 117.634ZM473.403 117.634C473.403 118.698 473.193 119.709 472.773 120.666C472.363 121.623 471.763 122.482 470.972 123.244C470.171 124.006 469.272 124.582 468.276 124.973C467.29 125.363 466.24 125.559 465.127 125.559C463.994 125.559 462.93 125.363 461.934 124.973C460.947 124.582 460.063 124.006 459.282 123.244C458.501 122.502 457.905 121.652 457.495 120.695C457.085 119.729 456.88 118.708 456.88 117.634C456.88 116.55 457.08 115.529 457.48 114.572C457.891 113.615 458.491 112.756 459.282 111.994C460.054 111.242 460.933 110.676 461.919 110.295C462.915 109.914 463.984 109.724 465.127 109.724C466.27 109.724 467.334 109.914 468.32 110.295C469.307 110.676 470.19 111.242 470.972 111.994C471.772 112.766 472.378 113.63 472.788 114.587C473.198 115.544 473.403 116.56 473.403 117.634ZM488.11 110.192L490.293 116.726L490.337 116.843C490.659 117.761 490.864 118.493 490.952 119.04C491.011 118.728 491.084 118.4 491.172 118.059C491.27 117.717 491.406 117.277 491.582 116.74L493.809 110.192H499.214L493.003 124.987H489.312L487.114 118.293C486.997 117.912 486.89 117.531 486.792 117.15C486.704 116.76 486.621 116.374 486.543 115.993C486.436 116.579 486.245 117.316 485.972 118.205L485.942 118.308L483.76 124.987H480.068L473.887 110.192H479.263L481.475 116.74C481.641 117.219 481.772 117.639 481.87 118C481.968 118.352 482.046 118.698 482.104 119.04C482.192 118.552 482.383 117.873 482.676 117.004C482.715 116.887 482.744 116.799 482.764 116.74L484.961 110.192H488.11ZM500.518 124.987V110.192H505.293V113.195C505.986 111.994 506.787 111.115 507.695 110.559C508.604 110.002 509.692 109.724 510.962 109.724C511.919 109.724 512.769 109.88 513.511 110.192C514.263 110.495 514.873 110.935 515.342 111.511C515.732 112.009 516.011 112.614 516.177 113.327C516.343 114.04 516.426 115.104 516.426 116.521V124.987H511.196V117.062C511.196 115.881 511.001 115.021 510.61 114.484C510.229 113.947 509.614 113.679 508.765 113.679C507.681 113.679 506.89 114.079 506.392 114.88C505.894 115.681 505.645 116.979 505.645 118.776V124.987H500.518ZM58.1787 153.604C58.1787 154.757 58.4766 155.665 59.0723 156.329C59.6777 156.993 60.5078 157.325 61.5625 157.325C62.627 157.325 63.4619 156.998 64.0674 156.344C64.6729 155.68 64.9756 154.767 64.9756 153.604C64.9756 152.452 64.668 151.544 64.0527 150.88C63.4473 150.216 62.6172 149.884 61.5625 149.884C60.5078 149.884 59.6777 150.216 59.0723 150.88C58.4766 151.544 58.1787 152.452 58.1787 153.604ZM53.5498 138.282H58.5303V146.017C58.5303 146.642 58.5156 147.164 58.4863 147.584C58.4668 147.994 58.4326 148.351 58.3838 148.653C58.9893 147.599 59.6826 146.847 60.4639 146.397C61.2549 145.948 62.2803 145.724 63.54 145.724C65.5127 145.724 67.1094 146.451 68.3301 147.906C69.5605 149.352 70.1758 151.251 70.1758 153.604C70.1758 156.036 69.5557 157.97 68.3154 159.405C67.085 160.841 65.4346 161.559 63.3643 161.559C62.3486 161.559 61.4258 161.314 60.5957 160.826C59.7656 160.328 59.0186 159.581 58.3545 158.585V160.987H53.5498V138.282ZM83.5205 151.686C83.4229 150.846 83.1006 150.172 82.5537 149.664C82.0166 149.156 81.3525 148.902 80.5615 148.902C79.7119 148.902 79.0332 149.137 78.5254 149.605C78.0273 150.064 77.6953 150.758 77.5293 151.686H83.5205ZM88.6621 154.63H77.4121C77.4219 155.772 77.7148 156.656 78.291 157.281C78.8672 157.896 79.6826 158.204 80.7373 158.204C81.5283 158.204 82.1924 158.058 82.7295 157.765C83.2764 157.462 83.6914 157.018 83.9746 156.432L87.9004 158.014C87.4316 159.146 86.6016 160.021 85.4102 160.636C84.2188 161.251 82.7588 161.559 81.0303 161.559C78.4521 161.559 76.3818 160.846 74.8193 159.42C73.2666 157.984 72.4902 156.095 72.4902 153.751C72.4902 151.446 73.2666 149.532 74.8193 148.009C76.3818 146.485 78.3545 145.724 80.7373 145.724C83.1885 145.724 85.1221 146.495 86.5381 148.038C87.9541 149.581 88.6621 151.695 88.6621 154.381V154.63ZM91.665 160.987V138.282H96.792V146.251C96.792 146.778 96.7773 147.267 96.748 147.716C96.7188 148.165 96.6748 148.57 96.6162 148.932C97.2705 147.828 98.042 147.018 98.9307 146.5C99.8193 145.982 100.879 145.724 102.109 145.724C103.066 145.724 103.916 145.88 104.658 146.192C105.41 146.495 106.021 146.935 106.489 147.511C106.88 148.009 107.158 148.614 107.324 149.327C107.49 150.04 107.573 151.104 107.573 152.521V160.987H102.344V153.062C102.344 151.881 102.148 151.021 101.758 150.484C101.377 149.947 100.762 149.679 99.9121 149.679C98.8281 149.679 98.0371 150.079 97.5391 150.88C97.041 151.681 96.792 152.979 96.792 154.776V160.987H91.665ZM122.544 153.575C122.544 152.423 122.236 151.51 121.621 150.836C121.006 150.162 120.166 149.825 119.102 149.825C118.037 149.825 117.197 150.162 116.582 150.836C115.977 151.5 115.674 152.413 115.674 153.575C115.674 154.728 115.981 155.636 116.597 156.3C117.212 156.964 118.047 157.296 119.102 157.296C120.166 157.296 121.006 156.964 121.621 156.3C122.236 155.636 122.544 154.728 122.544 153.575ZM127.129 146.192V160.987H122.339V158.585C121.655 159.61 120.884 160.362 120.024 160.841C119.175 161.319 118.174 161.559 117.021 161.559C115.049 161.559 113.472 160.841 112.29 159.405C111.108 157.96 110.518 156.026 110.518 153.604C110.518 151.192 111.133 149.278 112.363 147.862C113.604 146.437 115.269 145.724 117.358 145.724C118.472 145.724 119.429 145.963 120.229 146.441C121.04 146.91 121.733 147.638 122.31 148.624V146.192H127.129ZM135.537 160.987L128.887 146.192H134.453L136.973 152.726C137.002 152.794 137.036 152.877 137.075 152.975C137.397 153.834 137.598 154.522 137.676 155.04C137.744 154.562 137.935 153.922 138.247 153.121C138.315 152.945 138.364 152.813 138.394 152.726L140.913 146.192H146.348L139.624 160.987H135.537ZM147.886 141.578C147.886 140.787 148.164 140.113 148.721 139.557C149.287 139 149.966 138.722 150.757 138.722C151.577 138.722 152.261 138.995 152.808 139.542C153.364 140.089 153.643 140.768 153.643 141.578C153.643 142.389 153.359 143.077 152.793 143.644C152.236 144.21 151.558 144.493 150.757 144.493C149.976 144.493 149.302 144.205 148.735 143.629C148.169 143.053 147.886 142.369 147.886 141.578ZM148.149 160.987V146.192H153.379V160.987H148.149ZM167.881 153.634C167.881 152.53 167.603 151.661 167.046 151.026C166.489 150.392 165.737 150.074 164.79 150.074C163.833 150.074 163.076 150.392 162.52 151.026C161.973 151.661 161.699 152.53 161.699 153.634C161.699 154.737 161.973 155.606 162.52 156.241C163.066 156.866 163.823 157.179 164.79 157.179C165.747 157.179 166.499 156.866 167.046 156.241C167.603 155.606 167.881 154.737 167.881 153.634ZM173.066 153.634C173.066 154.698 172.856 155.709 172.437 156.666C172.026 157.623 171.426 158.482 170.635 159.244C169.834 160.006 168.936 160.582 167.939 160.973C166.953 161.363 165.903 161.559 164.79 161.559C163.657 161.559 162.593 161.363 161.597 160.973C160.61 160.582 159.727 160.006 158.945 159.244C158.164 158.502 157.568 157.652 157.158 156.695C156.748 155.729 156.543 154.708 156.543 153.634C156.543 152.55 156.743 151.529 157.144 150.572C157.554 149.615 158.154 148.756 158.945 147.994C159.717 147.242 160.596 146.676 161.582 146.295C162.578 145.914 163.647 145.724 164.79 145.724C165.933 145.724 166.997 145.914 167.983 146.295C168.97 146.676 169.854 147.242 170.635 147.994C171.436 148.766 172.041 149.63 172.451 150.587C172.861 151.544 173.066 152.56 173.066 153.634ZM176.099 160.987V146.192H181.021V149.679C181.528 148.409 182.222 147.457 183.101 146.822C183.979 146.188 185.044 145.87 186.294 145.87C186.499 145.87 186.704 145.88 186.909 145.899C187.124 145.909 187.339 145.929 187.554 145.958L187.056 150.704C186.743 150.597 186.436 150.519 186.133 150.47C185.83 150.421 185.537 150.396 185.254 150.396C183.984 150.396 183.003 150.787 182.31 151.568C181.626 152.34 181.284 153.438 181.284 154.864V160.987H176.099ZM188.11 159.757L189.194 155.772C189.956 156.437 190.791 156.949 191.699 157.311C192.617 157.662 193.54 157.838 194.468 157.838C195.122 157.838 195.62 157.735 195.962 157.53C196.304 157.315 196.475 157.008 196.475 156.607C196.475 155.953 195.786 155.465 194.409 155.143C193.96 155.035 193.599 154.942 193.325 154.864C191.763 154.435 190.625 153.873 189.912 153.18C189.209 152.477 188.857 151.568 188.857 150.455C188.857 149.02 189.395 147.872 190.469 147.013C191.553 146.153 193.018 145.724 194.863 145.724C195.811 145.724 196.772 145.836 197.749 146.061C198.735 146.275 199.741 146.612 200.767 147.071L199.683 150.66C198.989 150.191 198.286 149.835 197.573 149.591C196.86 149.347 196.147 149.225 195.435 149.225C194.839 149.225 194.39 149.317 194.087 149.503C193.784 149.688 193.633 149.957 193.633 150.309C193.633 150.836 194.316 151.28 195.684 151.642C195.996 151.729 196.23 151.793 196.387 151.832C198.193 152.35 199.448 152.96 200.151 153.663C200.864 154.356 201.221 155.299 201.221 156.49C201.221 158.004 200.64 159.229 199.478 160.167C198.315 161.095 196.777 161.559 194.863 161.559C193.564 161.559 192.358 161.407 191.245 161.104C190.132 160.812 189.087 160.362 188.11 159.757ZM224.702 153.575C224.702 152.423 224.395 151.51 223.779 150.836C223.164 150.162 222.324 149.825 221.26 149.825C220.195 149.825 219.355 150.162 218.74 150.836C218.135 151.5 217.832 152.413 217.832 153.575C217.832 154.728 218.14 155.636 218.755 156.3C219.37 156.964 220.205 157.296 221.26 157.296C222.324 157.296 223.164 156.964 223.779 156.3C224.395 155.636 224.702 154.728 224.702 153.575ZM229.287 146.192V160.987H224.497V158.585C223.813 159.61 223.042 160.362 222.183 160.841C221.333 161.319 220.332 161.559 219.18 161.559C217.207 161.559 215.63 160.841 214.448 159.405C213.267 157.96 212.676 156.026 212.676 153.604C212.676 151.192 213.291 149.278 214.521 147.862C215.762 146.437 217.427 145.724 219.517 145.724C220.63 145.724 221.587 145.963 222.388 146.441C223.198 146.91 223.892 147.638 224.468 148.624V146.192H229.287ZM233.228 160.987V146.192H238.003V149.195C238.696 147.994 239.497 147.115 240.405 146.559C241.313 146.002 242.402 145.724 243.672 145.724C244.629 145.724 245.479 145.88 246.221 146.192C246.973 146.495 247.583 146.935 248.052 147.511C248.442 148.009 248.721 148.614 248.887 149.327C249.053 150.04 249.136 151.104 249.136 152.521V160.987H243.906V153.062C243.906 151.881 243.711 151.021 243.32 150.484C242.939 149.947 242.324 149.679 241.475 149.679C240.391 149.679 239.6 150.079 239.102 150.88C238.604 151.681 238.354 152.979 238.354 154.776V160.987H233.228ZM264.136 153.604C264.136 152.452 263.828 151.544 263.213 150.88C262.607 150.216 261.777 149.884 260.723 149.884C259.668 149.884 258.838 150.216 258.232 150.88C257.627 151.544 257.324 152.452 257.324 153.604C257.324 154.767 257.622 155.68 258.218 156.344C258.823 156.998 259.658 157.325 260.723 157.325C261.777 157.325 262.607 156.993 263.213 156.329C263.828 155.665 264.136 154.757 264.136 153.604ZM268.765 138.282V160.987H263.96V158.585C263.296 159.581 262.549 160.328 261.719 160.826C260.889 161.314 259.966 161.559 258.95 161.559C256.87 161.559 255.215 160.841 253.984 159.405C252.754 157.97 252.139 156.036 252.139 153.604C252.139 151.251 252.749 149.352 253.97 147.906C255.2 146.451 256.802 145.724 258.774 145.724C260.024 145.724 261.04 145.948 261.821 146.397C262.612 146.847 263.315 147.599 263.931 148.653C263.872 148.302 263.828 147.906 263.799 147.467C263.77 147.018 263.755 146.534 263.755 146.017V138.282H268.765ZM293.74 146.192L295.923 152.726L295.967 152.843C296.289 153.761 296.494 154.493 296.582 155.04C296.641 154.728 296.714 154.4 296.802 154.059C296.899 153.717 297.036 153.277 297.212 152.74L299.438 146.192H304.844L298.633 160.987H294.941L292.744 154.293C292.627 153.912 292.52 153.531 292.422 153.15C292.334 152.76 292.251 152.374 292.173 151.993C292.065 152.579 291.875 153.316 291.602 154.205L291.572 154.308L289.39 160.987H285.698L279.517 146.192H284.893L287.104 152.74C287.271 153.219 287.402 153.639 287.5 154C287.598 154.352 287.676 154.698 287.734 155.04C287.822 154.552 288.013 153.873 288.306 153.004C288.345 152.887 288.374 152.799 288.394 152.74L290.591 146.192H293.74ZM306.177 160.987V146.192H311.099V149.679C311.606 148.409 312.3 147.457 313.179 146.822C314.058 146.188 315.122 145.87 316.372 145.87C316.577 145.87 316.782 145.88 316.987 145.899C317.202 145.909 317.417 145.929 317.632 145.958L317.134 150.704C316.821 150.597 316.514 150.519 316.211 150.47C315.908 150.421 315.615 150.396 315.332 150.396C314.062 150.396 313.081 150.787 312.388 151.568C311.704 152.34 311.362 153.438 311.362 154.864V160.987H306.177ZM319.448 141.578C319.448 140.787 319.727 140.113 320.283 139.557C320.85 139 321.528 138.722 322.319 138.722C323.14 138.722 323.823 138.995 324.37 139.542C324.927 140.089 325.205 140.768 325.205 141.578C325.205 142.389 324.922 143.077 324.355 143.644C323.799 144.21 323.12 144.493 322.319 144.493C321.538 144.493 320.864 144.205 320.298 143.629C319.731 143.053 319.448 142.369 319.448 141.578ZM319.712 160.987V146.192H324.941V160.987H319.712ZM329.746 160.987V149.884H327.534V146.192H329.746V141.783H334.888V146.192H337.1V149.884H334.888V160.987H329.746ZM349.741 151.686C349.644 150.846 349.321 150.172 348.774 149.664C348.237 149.156 347.573 148.902 346.782 148.902C345.933 148.902 345.254 149.137 344.746 149.605C344.248 150.064 343.916 150.758 343.75 151.686H349.741ZM354.883 154.63H343.633C343.643 155.772 343.936 156.656 344.512 157.281C345.088 157.896 345.903 158.204 346.958 158.204C347.749 158.204 348.413 158.058 348.95 157.765C349.497 157.462 349.912 157.018 350.195 156.432L354.121 158.014C353.652 159.146 352.822 160.021 351.631 160.636C350.439 161.251 348.979 161.559 347.251 161.559C344.673 161.559 342.603 160.846 341.04 159.42C339.487 157.984 338.711 156.095 338.711 153.751C338.711 151.446 339.487 149.532 341.04 148.009C342.603 146.485 344.575 145.724 346.958 145.724C349.409 145.724 351.343 146.495 352.759 148.038C354.175 149.581 354.883 151.695 354.883 154.381V154.63ZM368.096 160.987V149.884H365.884V146.192H368.096V141.783H373.237V146.192H375.449V149.884H373.237V160.987H368.096ZM377.896 160.987V138.282H383.022V146.251C383.022 146.778 383.008 147.267 382.979 147.716C382.949 148.165 382.905 148.57 382.847 148.932C383.501 147.828 384.272 147.018 385.161 146.5C386.05 145.982 387.109 145.724 388.34 145.724C389.297 145.724 390.146 145.88 390.889 146.192C391.641 146.495 392.251 146.935 392.72 147.511C393.11 148.009 393.389 148.614 393.555 149.327C393.721 150.04 393.804 151.104 393.804 152.521V160.987H388.574V153.062C388.574 151.881 388.379 151.021 387.988 150.484C387.607 149.947 386.992 149.679 386.143 149.679C385.059 149.679 384.268 150.079 383.77 150.88C383.271 151.681 383.022 152.979 383.022 154.776V160.987H377.896ZM407.69 151.686C407.593 150.846 407.271 150.172 406.724 149.664C406.187 149.156 405.522 148.902 404.731 148.902C403.882 148.902 403.203 149.137 402.695 149.605C402.197 150.064 401.865 150.758 401.699 151.686H407.69ZM412.832 154.63H401.582C401.592 155.772 401.885 156.656 402.461 157.281C403.037 157.896 403.853 158.204 404.907 158.204C405.698 158.204 406.362 158.058 406.899 157.765C407.446 157.462 407.861 157.018 408.145 156.432L412.07 158.014C411.602 159.146 410.771 160.021 409.58 160.636C408.389 161.251 406.929 161.559 405.2 161.559C402.622 161.559 400.552 160.846 398.989 159.42C397.437 157.984 396.66 156.095 396.66 153.751C396.66 151.446 397.437 149.532 398.989 148.009C400.552 146.485 402.524 145.724 404.907 145.724C407.358 145.724 409.292 146.495 410.708 148.038C412.124 149.581 412.832 151.695 412.832 154.381V154.63ZM414.458 159.757L415.542 155.772C416.304 156.437 417.139 156.949 418.047 157.311C418.965 157.662 419.888 157.838 420.815 157.838C421.47 157.838 421.968 157.735 422.31 157.53C422.651 157.315 422.822 157.008 422.822 156.607C422.822 155.953 422.134 155.465 420.757 155.143C420.308 155.035 419.946 154.942 419.673 154.864C418.11 154.435 416.973 153.873 416.26 153.18C415.557 152.477 415.205 151.568 415.205 150.455C415.205 149.02 415.742 147.872 416.816 147.013C417.9 146.153 419.365 145.724 421.211 145.724C422.158 145.724 423.12 145.836 424.097 146.061C425.083 146.275 426.089 146.612 427.114 147.071L426.03 150.66C425.337 150.191 424.634 149.835 423.921 149.591C423.208 149.347 422.495 149.225 421.782 149.225C421.187 149.225 420.737 149.317 420.435 149.503C420.132 149.688 419.98 149.957 419.98 150.309C419.98 150.836 420.664 151.28 422.031 151.642C422.344 151.729 422.578 151.793 422.734 151.832C424.541 152.35 425.796 152.96 426.499 153.663C427.212 154.356 427.568 155.299 427.568 156.49C427.568 158.004 426.987 159.229 425.825 160.167C424.663 161.095 423.125 161.559 421.211 161.559C419.912 161.559 418.706 161.407 417.593 161.104C416.479 160.812 415.435 160.362 414.458 159.757ZM440.562 151.686C440.464 150.846 440.142 150.172 439.595 149.664C439.058 149.156 438.394 148.902 437.603 148.902C436.753 148.902 436.074 149.137 435.566 149.605C435.068 150.064 434.736 150.758 434.57 151.686H440.562ZM445.703 154.63H434.453C434.463 155.772 434.756 156.656 435.332 157.281C435.908 157.896 436.724 158.204 437.778 158.204C438.569 158.204 439.233 158.058 439.771 157.765C440.317 157.462 440.732 157.018 441.016 156.432L444.941 158.014C444.473 159.146 443.643 160.021 442.451 160.636C441.26 161.251 439.8 161.559 438.071 161.559C435.493 161.559 433.423 160.846 431.86 159.42C430.308 157.984 429.531 156.095 429.531 153.751C429.531 151.446 430.308 149.532 431.86 148.009C433.423 146.485 435.396 145.724 437.778 145.724C440.229 145.724 442.163 146.495 443.579 148.038C444.995 149.581 445.703 151.695 445.703 154.381V154.63ZM469.419 153.604C469.419 152.452 469.111 151.544 468.496 150.88C467.891 150.216 467.061 149.884 466.006 149.884C464.951 149.884 464.121 150.216 463.516 150.88C462.91 151.544 462.607 152.452 462.607 153.604C462.607 154.767 462.905 155.68 463.501 156.344C464.106 156.998 464.941 157.325 466.006 157.325C467.061 157.325 467.891 156.993 468.496 156.329C469.111 155.665 469.419 154.757 469.419 153.604ZM474.048 138.282V160.987H469.243V158.585C468.579 159.581 467.832 160.328 467.002 160.826C466.172 161.314 465.249 161.559 464.233 161.559C462.153 161.559 460.498 160.841 459.268 159.405C458.037 157.97 457.422 156.036 457.422 153.604C457.422 151.251 458.032 149.352 459.253 147.906C460.483 146.451 462.085 145.724 464.058 145.724C465.308 145.724 466.323 145.948 467.104 146.397C467.896 146.847 468.599 147.599 469.214 148.653C469.155 148.302 469.111 147.906 469.082 147.467C469.053 147.018 469.038 146.534 469.038 146.017V138.282H474.048ZM488.418 153.634C488.418 152.53 488.14 151.661 487.583 151.026C487.026 150.392 486.274 150.074 485.327 150.074C484.37 150.074 483.613 150.392 483.057 151.026C482.51 151.661 482.236 152.53 482.236 153.634C482.236 154.737 482.51 155.606 483.057 156.241C483.604 156.866 484.36 157.179 485.327 157.179C486.284 157.179 487.036 156.866 487.583 156.241C488.14 155.606 488.418 154.737 488.418 153.634ZM493.604 153.634C493.604 154.698 493.394 155.709 492.974 156.666C492.563 157.623 491.963 158.482 491.172 159.244C490.371 160.006 489.473 160.582 488.477 160.973C487.49 161.363 486.44 161.559 485.327 161.559C484.194 161.559 483.13 161.363 482.134 160.973C481.147 160.582 480.264 160.006 479.482 159.244C478.701 158.502 478.105 157.652 477.695 156.695C477.285 155.729 477.08 154.708 477.08 153.634C477.08 152.55 477.28 151.529 477.681 150.572C478.091 149.615 478.691 148.756 479.482 147.994C480.254 147.242 481.133 146.676 482.119 146.295C483.115 145.914 484.185 145.724 485.327 145.724C486.47 145.724 487.534 145.914 488.521 146.295C489.507 146.676 490.391 147.242 491.172 147.994C491.973 148.766 492.578 149.63 492.988 150.587C493.398 151.544 493.604 152.56 493.604 153.634ZM508.311 146.192L510.493 152.726L510.537 152.843C510.859 153.761 511.064 154.493 511.152 155.04C511.211 154.728 511.284 154.4 511.372 154.059C511.47 153.717 511.606 153.277 511.782 152.74L514.009 146.192H519.414L513.203 160.987H509.512L507.314 154.293C507.197 153.912 507.09 153.531 506.992 153.15C506.904 152.76 506.821 152.374 506.743 151.993C506.636 152.579 506.445 153.316 506.172 154.205L506.143 154.308L503.96 160.987H500.269L494.087 146.192H499.463L501.675 152.74C501.841 153.219 501.973 153.639 502.07 154C502.168 154.352 502.246 154.698 502.305 155.04C502.393 154.552 502.583 153.873 502.876 153.004C502.915 152.887 502.944 152.799 502.964 152.74L505.161 146.192H508.311ZM520.718 160.987V146.192H525.493V149.195C526.187 147.994 526.987 147.115 527.896 146.559C528.804 146.002 529.893 145.724 531.162 145.724C532.119 145.724 532.969 145.88 533.711 146.192C534.463 146.495 535.073 146.935 535.542 147.511C535.933 148.009 536.211 148.614 536.377 149.327C536.543 150.04 536.626 151.104 536.626 152.521V160.987H531.396V153.062C531.396 151.881 531.201 151.021 530.811 150.484C530.43 149.947 529.814 149.679 528.965 149.679C527.881 149.679 527.09 150.079 526.592 150.88C526.094 151.681 525.845 152.979 525.845 154.776V160.987H520.718ZM62.9541 189.634C62.9541 188.53 62.6758 187.661 62.1191 187.026C61.5625 186.392 60.8105 186.074 59.8633 186.074C58.9062 186.074 58.1494 186.392 57.5928 187.026C57.0459 187.661 56.7725 188.53 56.7725 189.634C56.7725 190.737 57.0459 191.606 57.5928 192.241C58.1396 192.866 58.8965 193.179 59.8633 193.179C60.8203 193.179 61.5723 192.866 62.1191 192.241C62.6758 191.606 62.9541 190.737 62.9541 189.634ZM68.1396 189.634C68.1396 190.698 67.9297 191.709 67.5098 192.666C67.0996 193.623 66.499 194.482 65.708 195.244C64.9072 196.006 64.0088 196.582 63.0127 196.973C62.0264 197.363 60.9766 197.559 59.8633 197.559C58.7305 197.559 57.666 197.363 56.6699 196.973C55.6836 196.582 54.7998 196.006 54.0186 195.244C53.2373 194.502 52.6416 193.652 52.2314 192.695C51.8213 191.729 51.6162 190.708 51.6162 189.634C51.6162 188.55 51.8164 187.529 52.2168 186.572C52.627 185.615 53.2275 184.756 54.0186 183.994C54.79 183.242 55.6689 182.676 56.6553 182.295C57.6514 181.914 58.7207 181.724 59.8633 181.724C61.0059 181.724 62.0703 181.914 63.0566 182.295C64.043 182.676 64.9268 183.242 65.708 183.994C66.5088 184.766 67.1143 185.63 67.5244 186.587C67.9346 187.544 68.1396 188.56 68.1396 189.634ZM71.1426 196.987V182.192H75.918V185.195C76.6113 183.994 77.4121 183.115 78.3203 182.559C79.2285 182.002 80.3174 181.724 81.5869 181.724C82.5439 181.724 83.3936 181.88 84.1357 182.192C84.8877 182.495 85.498 182.935 85.9668 183.511C86.3574 184.009 86.6357 184.614 86.8018 185.327C86.9678 186.04 87.0508 187.104 87.0508 188.521V196.987H81.8213V189.062C81.8213 187.881 81.626 187.021 81.2354 186.484C80.8545 185.947 80.2393 185.679 79.3896 185.679C78.3057 185.679 77.5146 186.079 77.0166 186.88C76.5186 187.681 76.2695 188.979 76.2695 190.776V196.987H71.1426ZM100.938 187.686C100.84 186.846 100.518 186.172 99.9707 185.664C99.4336 185.156 98.7695 184.902 97.9785 184.902C97.1289 184.902 96.4502 185.137 95.9424 185.605C95.4443 186.064 95.1123 186.758 94.9463 187.686H100.938ZM106.079 190.63H94.8291C94.8389 191.772 95.1318 192.656 95.708 193.281C96.2842 193.896 97.0996 194.204 98.1543 194.204C98.9453 194.204 99.6094 194.058 100.146 193.765C100.693 193.462 101.108 193.018 101.392 192.432L105.317 194.014C104.849 195.146 104.019 196.021 102.827 196.636C101.636 197.251 100.176 197.559 98.4473 197.559C95.8691 197.559 93.7988 196.846 92.2363 195.42C90.6836 193.984 89.9072 192.095 89.9072 189.751C89.9072 187.446 90.6836 185.532 92.2363 184.009C93.7988 182.485 95.7715 181.724 98.1543 181.724C100.605 181.724 102.539 182.495 103.955 184.038C105.371 185.581 106.079 187.695 106.079 190.381V190.63ZM123.145 189.604C123.145 190.757 123.442 191.665 124.038 192.329C124.644 192.993 125.474 193.325 126.528 193.325C127.593 193.325 128.428 192.998 129.033 192.344C129.639 191.68 129.941 190.767 129.941 189.604C129.941 188.452 129.634 187.544 129.019 186.88C128.413 186.216 127.583 185.884 126.528 185.884C125.474 185.884 124.644 186.216 124.038 186.88C123.442 187.544 123.145 188.452 123.145 189.604ZM118.516 174.282H123.496V182.017C123.496 182.642 123.481 183.164 123.452 183.584C123.433 183.994 123.398 184.351 123.35 184.653C123.955 183.599 124.648 182.847 125.43 182.397C126.221 181.948 127.246 181.724 128.506 181.724C130.479 181.724 132.075 182.451 133.296 183.906C134.526 185.352 135.142 187.251 135.142 189.604C135.142 192.036 134.521 193.97 133.281 195.405C132.051 196.841 130.4 197.559 128.33 197.559C127.314 197.559 126.392 197.314 125.562 196.826C124.731 196.328 123.984 195.581 123.32 194.585V196.987H118.516V174.282ZM137.485 203.521L141.646 194.731L135.684 182.192H141.47L143.535 187.539C143.711 187.988 143.857 188.408 143.975 188.799C144.092 189.18 144.18 189.536 144.238 189.868C144.297 189.517 144.38 189.155 144.487 188.784C144.604 188.403 144.751 187.988 144.927 187.539L147.021 182.192H152.603L143.301 203.521H137.485ZM174.165 189.634C174.165 188.53 173.887 187.661 173.33 187.026C172.773 186.392 172.021 186.074 171.074 186.074C170.117 186.074 169.36 186.392 168.804 187.026C168.257 187.661 167.983 188.53 167.983 189.634C167.983 190.737 168.257 191.606 168.804 192.241C169.351 192.866 170.107 193.179 171.074 193.179C172.031 193.179 172.783 192.866 173.33 192.241C173.887 191.606 174.165 190.737 174.165 189.634ZM179.351 189.634C179.351 190.698 179.141 191.709 178.721 192.666C178.311 193.623 177.71 194.482 176.919 195.244C176.118 196.006 175.22 196.582 174.224 196.973C173.237 197.363 172.188 197.559 171.074 197.559C169.941 197.559 168.877 197.363 167.881 196.973C166.895 196.582 166.011 196.006 165.229 195.244C164.448 194.502 163.853 193.652 163.442 192.695C163.032 191.729 162.827 190.708 162.827 189.634C162.827 188.55 163.027 187.529 163.428 186.572C163.838 185.615 164.438 184.756 165.229 183.994C166.001 183.242 166.88 182.676 167.866 182.295C168.862 181.914 169.932 181.724 171.074 181.724C172.217 181.724 173.281 181.914 174.268 182.295C175.254 182.676 176.138 183.242 176.919 183.994C177.72 184.766 178.325 185.63 178.735 186.587C179.146 187.544 179.351 188.56 179.351 189.634ZM182.354 196.987V182.192H187.129V185.195C187.822 183.994 188.623 183.115 189.531 182.559C190.439 182.002 191.528 181.724 192.798 181.724C193.755 181.724 194.604 181.88 195.347 182.192C196.099 182.495 196.709 182.935 197.178 183.511C197.568 184.009 197.847 184.614 198.013 185.327C198.179 186.04 198.262 187.104 198.262 188.521V196.987H193.032V189.062C193.032 187.881 192.837 187.021 192.446 186.484C192.065 185.947 191.45 185.679 190.601 185.679C189.517 185.679 188.726 186.079 188.228 186.88C187.729 187.681 187.48 188.979 187.48 190.776V196.987H182.354ZM212.148 187.686C212.051 186.846 211.729 186.172 211.182 185.664C210.645 185.156 209.98 184.902 209.189 184.902C208.34 184.902 207.661 185.137 207.153 185.605C206.655 186.064 206.323 186.758 206.157 187.686H212.148ZM217.29 190.63H206.04C206.05 191.772 206.343 192.656 206.919 193.281C207.495 193.896 208.311 194.204 209.365 194.204C210.156 194.204 210.82 194.058 211.357 193.765C211.904 193.462 212.319 193.018 212.603 192.432L216.528 194.014C216.06 195.146 215.229 196.021 214.038 196.636C212.847 197.251 211.387 197.559 209.658 197.559C207.08 197.559 205.01 196.846 203.447 195.42C201.895 193.984 201.118 192.095 201.118 189.751C201.118 187.446 201.895 185.532 203.447 184.009C205.01 182.485 206.982 181.724 209.365 181.724C211.816 181.724 213.75 182.495 215.166 184.038C216.582 185.581 217.29 187.695 217.29 190.381V190.63ZM240.2 189.634C240.2 188.53 239.922 187.661 239.365 187.026C238.809 186.392 238.057 186.074 237.109 186.074C236.152 186.074 235.396 186.392 234.839 187.026C234.292 187.661 234.019 188.53 234.019 189.634C234.019 190.737 234.292 191.606 234.839 192.241C235.386 192.866 236.143 193.179 237.109 193.179C238.066 193.179 238.818 192.866 239.365 192.241C239.922 191.606 240.2 190.737 240.2 189.634ZM245.386 189.634C245.386 190.698 245.176 191.709 244.756 192.666C244.346 193.623 243.745 194.482 242.954 195.244C242.153 196.006 241.255 196.582 240.259 196.973C239.272 197.363 238.223 197.559 237.109 197.559C235.977 197.559 234.912 197.363 233.916 196.973C232.93 196.582 232.046 196.006 231.265 195.244C230.483 194.502 229.888 193.652 229.478 192.695C229.067 191.729 228.862 190.708 228.862 189.634C228.862 188.55 229.062 187.529 229.463 186.572C229.873 185.615 230.474 184.756 231.265 183.994C232.036 183.242 232.915 182.676 233.901 182.295C234.897 181.914 235.967 181.724 237.109 181.724C238.252 181.724 239.316 181.914 240.303 182.295C241.289 182.676 242.173 183.242 242.954 183.994C243.755 184.766 244.36 185.63 244.771 186.587C245.181 187.544 245.386 188.56 245.386 189.634ZM248.389 196.987V182.192H253.164V185.195C253.857 183.994 254.658 183.115 255.566 182.559C256.475 182.002 257.563 181.724 258.833 181.724C259.79 181.724 260.64 181.88 261.382 182.192C262.134 182.495 262.744 182.935 263.213 183.511C263.604 184.009 263.882 184.614 264.048 185.327C264.214 186.04 264.297 187.104 264.297 188.521V196.987H259.067V189.062C259.067 187.881 258.872 187.021 258.481 186.484C258.101 185.947 257.485 185.679 256.636 185.679C255.552 185.679 254.761 186.079 254.263 186.88C253.765 187.681 253.516 188.979 253.516 190.776V196.987H248.389ZM278.198 196.987V185.884H275.986V182.192H278.198V177.783H283.34V182.192H285.552V185.884H283.34V196.987H278.198ZM287.998 196.987V174.282H293.125V182.251C293.125 182.778 293.11 183.267 293.081 183.716C293.052 184.165 293.008 184.57 292.949 184.932C293.604 183.828 294.375 183.018 295.264 182.5C296.152 181.982 297.212 181.724 298.442 181.724C299.399 181.724 300.249 181.88 300.991 182.192C301.743 182.495 302.354 182.935 302.822 183.511C303.213 184.009 303.491 184.614 303.657 185.327C303.823 186.04 303.906 187.104 303.906 188.521V196.987H298.677V189.062C298.677 187.881 298.481 187.021 298.091 186.484C297.71 185.947 297.095 185.679 296.245 185.679C295.161 185.679 294.37 186.079 293.872 186.88C293.374 187.681 293.125 188.979 293.125 190.776V196.987H287.998ZM317.793 187.686C317.695 186.846 317.373 186.172 316.826 185.664C316.289 185.156 315.625 184.902 314.834 184.902C313.984 184.902 313.306 185.137 312.798 185.605C312.3 186.064 311.968 186.758 311.802 187.686H317.793ZM322.935 190.63H311.685C311.694 191.772 311.987 192.656 312.563 193.281C313.14 193.896 313.955 194.204 315.01 194.204C315.801 194.204 316.465 194.058 317.002 193.765C317.549 193.462 317.964 193.018 318.247 192.432L322.173 194.014C321.704 195.146 320.874 196.021 319.683 196.636C318.491 197.251 317.031 197.559 315.303 197.559C312.725 197.559 310.654 196.846 309.092 195.42C307.539 193.984 306.763 192.095 306.763 189.751C306.763 187.446 307.539 185.532 309.092 184.009C310.654 182.485 312.627 181.724 315.01 181.724C317.461 181.724 319.395 182.495 320.811 184.038C322.227 185.581 322.935 187.695 322.935 190.381V190.63ZM345.962 187.056C345.454 186.606 344.966 186.279 344.497 186.074C344.028 185.869 343.535 185.767 343.018 185.767C341.982 185.767 341.157 186.108 340.542 186.792C339.937 187.476 339.634 188.403 339.634 189.575C339.634 190.708 339.951 191.611 340.586 192.285C341.221 192.959 342.075 193.296 343.149 193.296C343.677 193.296 344.17 193.193 344.629 192.988C345.098 192.773 345.542 192.446 345.962 192.007V196.533C345.337 196.885 344.712 197.144 344.087 197.31C343.462 197.476 342.817 197.559 342.153 197.559C339.878 197.559 338.032 196.831 336.616 195.376C335.21 193.911 334.507 191.987 334.507 189.604C334.507 187.29 335.225 185.4 336.66 183.936C338.105 182.461 339.956 181.724 342.212 181.724C342.964 181.724 343.643 181.797 344.248 181.943C344.854 182.09 345.425 182.324 345.962 182.646V187.056ZM360.449 189.575C360.449 188.423 360.142 187.51 359.526 186.836C358.911 186.162 358.071 185.825 357.007 185.825C355.942 185.825 355.103 186.162 354.487 186.836C353.882 187.5 353.579 188.413 353.579 189.575C353.579 190.728 353.887 191.636 354.502 192.3C355.117 192.964 355.952 193.296 357.007 193.296C358.071 193.296 358.911 192.964 359.526 192.3C360.142 191.636 360.449 190.728 360.449 189.575ZM365.034 182.192V196.987H360.244V194.585C359.561 195.61 358.789 196.362 357.93 196.841C357.08 197.319 356.079 197.559 354.927 197.559C352.954 197.559 351.377 196.841 350.195 195.405C349.014 193.96 348.423 192.026 348.423 189.604C348.423 187.192 349.038 185.278 350.269 183.862C351.509 182.437 353.174 181.724 355.264 181.724C356.377 181.724 357.334 181.963 358.135 182.441C358.945 182.91 359.639 183.638 360.215 184.624V182.192H365.034ZM369.004 196.987V182.192H373.926V185.679C374.434 184.409 375.127 183.457 376.006 182.822C376.885 182.188 377.949 181.87 379.199 181.87C379.404 181.87 379.609 181.88 379.814 181.899C380.029 181.909 380.244 181.929 380.459 181.958L379.961 186.704C379.648 186.597 379.341 186.519 379.038 186.47C378.735 186.421 378.442 186.396 378.159 186.396C376.89 186.396 375.908 186.787 375.215 187.568C374.531 188.34 374.189 189.438 374.189 190.864V196.987H369.004ZM393.701 189.604C393.701 188.452 393.394 187.544 392.778 186.88C392.173 186.216 391.343 185.884 390.288 185.884C389.233 185.884 388.403 186.216 387.798 186.88C387.192 187.544 386.89 188.452 386.89 189.604C386.89 190.767 387.188 191.68 387.783 192.344C388.389 192.998 389.224 193.325 390.288 193.325C391.343 193.325 392.173 192.993 392.778 192.329C393.394 191.665 393.701 190.757 393.701 189.604ZM398.33 174.282V196.987H393.525V194.585C392.861 195.581 392.114 196.328 391.284 196.826C390.454 197.314 389.531 197.559 388.516 197.559C386.436 197.559 384.78 196.841 383.55 195.405C382.319 193.97 381.704 192.036 381.704 189.604C381.704 187.251 382.314 185.352 383.535 183.906C384.766 182.451 386.367 181.724 388.34 181.724C389.59 181.724 390.605 181.948 391.387 182.397C392.178 182.847 392.881 183.599 393.496 184.653C393.438 184.302 393.394 183.906 393.364 183.467C393.335 183.018 393.32 182.534 393.32 182.017V174.282H398.33ZM410.225 195.757L411.309 191.772C412.07 192.437 412.905 192.949 413.813 193.311C414.731 193.662 415.654 193.838 416.582 193.838C417.236 193.838 417.734 193.735 418.076 193.53C418.418 193.315 418.589 193.008 418.589 192.607C418.589 191.953 417.9 191.465 416.523 191.143C416.074 191.035 415.713 190.942 415.439 190.864C413.877 190.435 412.739 189.873 412.026 189.18C411.323 188.477 410.972 187.568 410.972 186.455C410.972 185.02 411.509 183.872 412.583 183.013C413.667 182.153 415.132 181.724 416.978 181.724C417.925 181.724 418.887 181.836 419.863 182.061C420.85 182.275 421.855 182.612 422.881 183.071L421.797 186.66C421.104 186.191 420.4 185.835 419.688 185.591C418.975 185.347 418.262 185.225 417.549 185.225C416.953 185.225 416.504 185.317 416.201 185.503C415.898 185.688 415.747 185.957 415.747 186.309C415.747 186.836 416.431 187.28 417.798 187.642C418.11 187.729 418.345 187.793 418.501 187.832C420.308 188.35 421.562 188.96 422.266 189.663C422.979 190.356 423.335 191.299 423.335 192.49C423.335 194.004 422.754 195.229 421.592 196.167C420.43 197.095 418.892 197.559 416.978 197.559C415.679 197.559 414.473 197.407 413.359 197.104C412.246 196.812 411.201 196.362 410.225 195.757ZM436.328 187.686C436.23 186.846 435.908 186.172 435.361 185.664C434.824 185.156 434.16 184.902 433.369 184.902C432.52 184.902 431.841 185.137 431.333 185.605C430.835 186.064 430.503 186.758 430.337 187.686H436.328ZM441.47 190.63H430.22C430.229 191.772 430.522 192.656 431.099 193.281C431.675 193.896 432.49 194.204 433.545 194.204C434.336 194.204 435 194.058 435.537 193.765C436.084 193.462 436.499 193.018 436.782 192.432L440.708 194.014C440.239 195.146 439.409 196.021 438.218 196.636C437.026 197.251 435.566 197.559 433.838 197.559C431.26 197.559 429.189 196.846 427.627 195.42C426.074 193.984 425.298 192.095 425.298 189.751C425.298 187.446 426.074 185.532 427.627 184.009C429.189 182.485 431.162 181.724 433.545 181.724C435.996 181.724 437.93 182.495 439.346 184.038C440.762 185.581 441.47 187.695 441.47 190.381V190.63ZM455.093 187.056C454.585 186.606 454.097 186.279 453.628 186.074C453.159 185.869 452.666 185.767 452.148 185.767C451.113 185.767 450.288 186.108 449.673 186.792C449.067 187.476 448.765 188.403 448.765 189.575C448.765 190.708 449.082 191.611 449.717 192.285C450.352 192.959 451.206 193.296 452.28 193.296C452.808 193.296 453.301 193.193 453.76 192.988C454.229 192.773 454.673 192.446 455.093 192.007V196.533C454.468 196.885 453.843 197.144 453.218 197.31C452.593 197.476 451.948 197.559 451.284 197.559C449.009 197.559 447.163 196.831 445.747 195.376C444.341 193.911 443.638 191.987 443.638 189.604C443.638 187.29 444.355 185.4 445.791 183.936C447.236 182.461 449.087 181.724 451.343 181.724C452.095 181.724 452.773 181.797 453.379 181.943C453.984 182.09 454.556 182.324 455.093 182.646V187.056ZM459.106 196.987V185.884H456.895V182.192H459.106V177.783H464.248V182.192H466.46V185.884H464.248V196.987H459.106ZM468.789 177.578C468.789 176.787 469.067 176.113 469.624 175.557C470.19 175 470.869 174.722 471.66 174.722C472.48 174.722 473.164 174.995 473.711 175.542C474.268 176.089 474.546 176.768 474.546 177.578C474.546 178.389 474.263 179.077 473.696 179.644C473.14 180.21 472.461 180.493 471.66 180.493C470.879 180.493 470.205 180.205 469.639 179.629C469.072 179.053 468.789 178.369 468.789 177.578ZM469.053 196.987V182.192H474.282V196.987H469.053ZM488.784 189.634C488.784 188.53 488.506 187.661 487.949 187.026C487.393 186.392 486.641 186.074 485.693 186.074C484.736 186.074 483.979 186.392 483.423 187.026C482.876 187.661 482.603 188.53 482.603 189.634C482.603 190.737 482.876 191.606 483.423 192.241C483.97 192.866 484.727 193.179 485.693 193.179C486.65 193.179 487.402 192.866 487.949 192.241C488.506 191.606 488.784 190.737 488.784 189.634ZM493.97 189.634C493.97 190.698 493.76 191.709 493.34 192.666C492.93 193.623 492.329 194.482 491.538 195.244C490.737 196.006 489.839 196.582 488.843 196.973C487.856 197.363 486.807 197.559 485.693 197.559C484.561 197.559 483.496 197.363 482.5 196.973C481.514 196.582 480.63 196.006 479.849 195.244C479.067 194.502 478.472 193.652 478.062 192.695C477.651 191.729 477.446 190.708 477.446 189.634C477.446 188.55 477.646 187.529 478.047 186.572C478.457 185.615 479.058 184.756 479.849 183.994C480.62 183.242 481.499 182.676 482.485 182.295C483.481 181.914 484.551 181.724 485.693 181.724C486.836 181.724 487.9 181.914 488.887 182.295C489.873 182.676 490.757 183.242 491.538 183.994C492.339 184.766 492.944 185.63 493.354 186.587C493.765 187.544 493.97 188.56 493.97 189.634ZM496.973 196.987V182.192H501.748V185.195C502.441 183.994 503.242 183.115 504.15 182.559C505.059 182.002 506.147 181.724 507.417 181.724C508.374 181.724 509.224 181.88 509.966 182.192C510.718 182.495 511.328 182.935 511.797 183.511C512.188 184.009 512.466 184.614 512.632 185.327C512.798 186.04 512.881 187.104 512.881 188.521V196.987H507.651V189.062C507.651 187.881 507.456 187.021 507.065 186.484C506.685 185.947 506.069 185.679 505.22 185.679C504.136 185.679 503.345 186.079 502.847 186.88C502.349 187.681 502.1 188.979 502.1 190.776V196.987H496.973ZM515.195 195.757L516.279 191.772C517.041 192.437 517.876 192.949 518.784 193.311C519.702 193.662 520.625 193.838 521.553 193.838C522.207 193.838 522.705 193.735 523.047 193.53C523.389 193.315 523.56 193.008 523.56 192.607C523.56 191.953 522.871 191.465 521.494 191.143C521.045 191.035 520.684 190.942 520.41 190.864C518.848 190.435 517.71 189.873 516.997 189.18C516.294 188.477 515.942 187.568 515.942 186.455C515.942 185.02 516.479 183.872 517.554 183.013C518.638 182.153 520.103 181.724 521.948 181.724C522.896 181.724 523.857 181.836 524.834 182.061C525.82 182.275 526.826 182.612 527.852 183.071L526.768 186.66C526.074 186.191 525.371 185.835 524.658 185.591C523.945 185.347 523.232 185.225 522.52 185.225C521.924 185.225 521.475 185.317 521.172 185.503C520.869 185.688 520.718 185.957 520.718 186.309C520.718 186.836 521.401 187.28 522.769 187.642C523.081 187.729 523.315 187.793 523.472 187.832C525.278 188.35 526.533 188.96 527.236 189.663C527.949 190.356 528.306 191.299 528.306 192.49C528.306 194.004 527.725 195.229 526.562 196.167C525.4 197.095 523.862 197.559 521.948 197.559C520.649 197.559 519.443 197.407 518.33 197.104C517.217 196.812 516.172 196.362 515.195 195.757ZM531.616 189.854V174.546H537.051V189.854H531.616ZM531.382 194.585C531.382 193.755 531.66 193.052 532.217 192.476C532.783 191.899 533.481 191.611 534.312 191.611C535.151 191.611 535.854 191.899 536.421 192.476C536.997 193.042 537.285 193.745 537.285 194.585C537.285 195.415 536.997 196.118 536.421 196.694C535.845 197.271 535.142 197.559 534.312 197.559C533.491 197.559 532.798 197.271 532.231 196.694C531.665 196.118 531.382 195.415 531.382 194.585Z" fill="#FFDBAA"/>
</g>
<defs>
<clipPath id="clip0_5_932">
<rect width="588" height="319" fill="white"/>
</clipPath>
</defs>
</svg>
