<svg width="513" height="222" viewBox="0 0 513 222" fill="none" xmlns="http://www.w3.org/2000/svg">
<g filter="url(#filter0_i_5_991)">
<rect x="85" y="221.127" width="94.1273" height="342.281" rx="20" transform="rotate(-90 85 221.127)" fill="#5C3419"/>
</g>
<path d="M204.797 191.127H196.032V156.815H205.805C209.633 156.815 212.321 157.002 213.868 157.377C215.414 157.752 216.727 158.393 217.805 159.299C219.071 160.346 220.032 161.659 220.688 163.237C221.36 164.799 221.696 166.542 221.696 168.463C221.696 170.51 221.368 172.315 220.711 173.877C220.055 175.424 219.086 176.698 217.805 177.698C216.836 178.448 215.696 178.987 214.383 179.315C213.071 179.643 210.969 179.807 208.078 179.807H206.485H204.797V191.127ZM204.797 172.26H206.578C208.828 172.26 210.399 171.956 211.289 171.346C212.18 170.721 212.625 169.667 212.625 168.182C212.625 166.745 212.188 165.721 211.313 165.112C210.438 164.502 208.891 164.198 206.672 164.198H204.797V172.26ZM229.333 191.127V156.815H238.685V183.112H250.31V191.127H229.333ZM266.831 178.307H276.135L272.643 166.987C272.534 166.643 272.385 166.088 272.198 165.323C272.01 164.557 271.768 163.573 271.471 162.37C271.268 163.213 271.065 164.018 270.862 164.784C270.674 165.549 270.479 166.284 270.276 166.987L266.831 178.307ZM253.729 191.127L265.565 156.815H277.284L289.143 191.127H279.838L278.104 184.987H264.815L263.034 191.127H253.729ZM299.687 191.127V175.471L287.687 156.815H298.422L303.039 165.651C303.07 165.698 303.117 165.784 303.179 165.909C303.664 166.831 304 167.713 304.187 168.557C304.343 167.792 304.679 166.94 305.195 166.002C305.289 165.831 305.351 165.713 305.382 165.651L309.953 156.815H320.711L308.711 175.471V191.127H299.687Z" fill="#FFDBAA"/>
<path d="M7.37688 92V23.375H26.08V75.9688H49.33V92H7.37688ZM95.6838 62.2344C95.3713 59.5469 94.34 57.3906 92.59 55.7656C90.8713 54.1406 88.7463 53.3281 86.215 53.3281C83.4963 53.3281 81.3244 54.0781 79.6994 55.5781C78.1056 57.0469 77.0431 59.2656 76.5119 62.2344H95.6838ZM112.137 71.6562H76.1369C76.1681 75.3125 77.1056 78.1406 78.9494 80.1406C80.7931 82.1094 83.4025 83.0938 86.7775 83.0938C89.3088 83.0938 91.4338 82.625 93.1525 81.6875C94.9025 80.7188 96.2306 79.2969 97.1369 77.4219L109.699 82.4844C108.199 86.1094 105.543 88.9062 101.731 90.875C97.9181 92.8438 93.2463 93.8281 87.715 93.8281C79.465 93.8281 72.84 91.5469 67.84 86.9844C62.8713 82.3906 60.3869 76.3438 60.3869 68.8438C60.3869 61.4688 62.8713 55.3438 67.84 50.4688C72.84 45.5938 79.1525 43.1562 86.7775 43.1562C94.6213 43.1562 100.809 45.625 105.34 50.5625C109.871 55.5 112.137 62.2656 112.137 70.8594V71.6562ZM130.084 92V56.4688H123.006V44.6562H130.084V30.5469H146.538V44.6562H153.616V56.4688H146.538V92H130.084ZM176.719 23.375H194.157L179.673 52.7188H166.735L176.719 23.375ZM202.964 88.0625L206.433 75.3125C208.87 77.4375 211.542 79.0781 214.448 80.2344C217.386 81.3594 220.339 81.9219 223.308 81.9219C225.401 81.9219 226.995 81.5938 228.089 80.9375C229.183 80.25 229.729 79.2656 229.729 77.9844C229.729 75.8906 227.526 74.3281 223.12 73.2969C221.683 72.9531 220.526 72.6562 219.651 72.4062C214.651 71.0312 211.011 69.2344 208.729 67.0156C206.479 64.7656 205.354 61.8594 205.354 58.2969C205.354 53.7031 207.073 50.0312 210.511 47.2812C213.979 44.5312 218.667 43.1562 224.573 43.1562C227.604 43.1562 230.683 43.5156 233.808 44.2344C236.964 44.9219 240.183 46 243.464 47.4688L239.995 58.9531C237.776 57.4531 235.526 56.3125 233.245 55.5312C230.964 54.75 228.683 54.3594 226.401 54.3594C224.495 54.3594 223.058 54.6562 222.089 55.25C221.12 55.8438 220.636 56.7031 220.636 57.8281C220.636 59.5156 222.823 60.9375 227.198 62.0938C228.198 62.375 228.948 62.5781 229.448 62.7031C235.229 64.3594 239.245 66.3125 241.495 68.5625C243.776 70.7812 244.917 73.7969 244.917 77.6094C244.917 82.4531 243.058 86.375 239.339 89.375C235.62 92.3438 230.698 93.8281 224.573 93.8281C220.417 93.8281 216.558 93.3438 212.995 92.375C209.433 91.4375 206.089 90 202.964 88.0625ZM314.187 92H296.656V23.375H316.203C323.859 23.375 329.234 23.75 332.328 24.5C335.421 25.25 338.046 26.5312 340.203 28.3438C342.734 30.4375 344.656 33.0625 345.968 36.2188C347.312 39.3438 347.984 42.8281 347.984 46.6719C347.984 50.7656 347.328 54.375 346.015 57.5C344.703 60.5938 342.765 63.1406 340.203 65.1406C338.265 66.6406 335.984 67.7188 333.359 68.375C330.734 69.0312 326.531 69.3594 320.749 69.3594H317.562H314.187V92ZM314.187 54.2656H317.749C322.249 54.2656 325.39 53.6562 327.171 52.4375C328.953 51.1875 329.843 49.0781 329.843 46.1094C329.843 43.2344 328.968 41.1875 327.218 39.9688C325.468 38.75 322.374 38.1406 317.937 38.1406H314.187V54.2656ZM362.556 92V19.3438H379.291V92H362.556ZM433.941 68.2812C433.941 64.5938 432.957 61.6719 430.988 59.5156C429.019 57.3594 426.332 56.2812 422.926 56.2812C419.519 56.2812 416.832 57.3594 414.863 59.5156C412.926 61.6406 411.957 64.5625 411.957 68.2812C411.957 71.9688 412.941 74.875 414.91 77C416.879 79.125 419.551 80.1875 422.926 80.1875C426.332 80.1875 429.019 79.125 430.988 77C432.957 74.875 433.941 71.9688 433.941 68.2812ZM448.613 44.6562V92H433.285V84.3125C431.098 87.5938 428.629 90 425.879 91.5312C423.16 93.0625 419.957 93.8281 416.269 93.8281C409.957 93.8281 404.91 91.5312 401.129 86.9375C397.348 82.3125 395.457 76.125 395.457 68.375C395.457 60.6562 397.426 54.5312 401.363 50C405.332 45.4375 410.66 43.1562 417.348 43.1562C420.91 43.1562 423.973 43.9219 426.535 45.4531C429.129 46.9531 431.348 49.2812 433.191 52.4375V44.6562H448.613ZM464.404 112.906L477.717 84.7812L458.639 44.6562H477.154L483.764 61.7656C484.326 63.2031 484.795 64.5469 485.17 65.7969C485.545 67.0156 485.826 68.1562 486.014 69.2188C486.201 68.0938 486.467 66.9375 486.811 65.75C487.186 64.5312 487.654 63.2031 488.217 61.7656L494.92 44.6562H512.779L483.014 112.906H464.404Z" fill="#28150D"/>
<defs>
<filter id="filter0_i_5_991" x="85" y="127" width="342.281" height="94.1274" filterUnits="userSpaceOnUse" color-interpolation-filters="sRGB">
<feFlood flood-opacity="0" result="BackgroundImageFix"/>
<feBlend mode="normal" in="SourceGraphic" in2="BackgroundImageFix" result="shape"/>
<feColorMatrix in="SourceAlpha" type="matrix" values="0 0 0 0 0 0 0 0 0 0 0 0 0 0 0 0 0 0 127 0" result="hardAlpha"/>
<feMorphology radius="20" operator="erode" in="SourceAlpha" result="effect1_innerShadow_5_991"/>
<feOffset/>
<feGaussianBlur stdDeviation="15.7"/>
<feComposite in2="hardAlpha" operator="arithmetic" k2="-1" k3="1"/>
<feColorMatrix type="matrix" values="0 0 0 0 0 0 0 0 0 0 0 0 0 0 0 0 0 0 0.25 0"/>
<feBlend mode="normal" in2="shape" result="effect1_innerShadow_5_991"/>
</filter>
</defs>
</svg>
