<svg width="716" height="115" viewBox="0 0 716 115" fill="none" xmlns="http://www.w3.org/2000/svg">
<g filter="url(#filter0_d_5_1646)">
<path d="M12.5181 69.8281C15.2994 72.9844 18.0338 75.3438 20.7213 76.9062C23.44 78.4688 26.1431 79.25 28.8306 79.25C31.3306 79.25 33.3775 78.5781 34.9713 77.2344C36.5963 75.8906 37.4088 74.1875 37.4088 72.125C37.4088 69.8438 36.7056 68.0938 35.2994 66.875C33.9244 65.625 30.7838 64.3438 25.8775 63.0312C19.1588 61.2188 14.4088 58.8594 11.6275 55.9531C8.84625 53.0469 7.45563 49.0625 7.45563 44C7.45563 37.4375 9.64313 32.0938 14.0181 27.9688C18.4244 23.8125 24.1275 21.7344 31.1275 21.7344C34.9088 21.7344 38.4869 22.25 41.8619 23.2812C45.2681 24.2812 48.4869 25.8125 51.5181 27.875L45.6588 41.3281C43.5338 39.5156 41.3463 38.1562 39.0963 37.25C36.8775 36.3125 34.6744 35.8438 32.4869 35.8438C30.2369 35.8438 28.4088 36.3906 27.0025 37.4844C25.5963 38.5469 24.8931 39.9219 24.8931 41.6094C24.8931 43.3281 25.5025 44.7031 26.7213 45.7344C27.9713 46.7656 30.3619 47.75 33.8931 48.6875L34.7369 48.9219C42.3619 50.9844 47.3775 53.25 49.7838 55.7188C51.4088 57.4062 52.6431 59.4375 53.4869 61.8125C54.3306 64.1562 54.7525 66.7656 54.7525 69.6406C54.7525 76.9219 52.3619 82.7812 47.5806 87.2188C42.7994 91.625 36.4244 93.8281 28.4556 93.8281C23.6744 93.8281 19.315 93.0156 15.3775 91.3906C11.4713 89.7656 7.70563 87.2188 4.08063 83.75L12.5181 69.8281ZM102.466 62.2344C102.153 59.5469 101.122 57.3906 99.3719 55.7656C97.6531 54.1406 95.5281 53.3281 92.9969 53.3281C90.2781 53.3281 88.1063 54.0781 86.4813 55.5781C84.8875 57.0469 83.825 59.2656 83.2938 62.2344H102.466ZM118.919 71.6562H82.9188C82.95 75.3125 83.8875 78.1406 85.7313 80.1406C87.575 82.1094 90.1844 83.0938 93.5594 83.0938C96.0906 83.0938 98.2156 82.625 99.9344 81.6875C101.684 80.7188 103.013 79.2969 103.919 77.4219L116.481 82.4844C114.981 86.1094 112.325 88.9062 108.513 90.875C104.7 92.8438 100.028 93.8281 94.4969 93.8281C86.2469 93.8281 79.6219 91.5469 74.6219 86.9844C69.6531 82.3906 67.1688 76.3438 67.1688 68.8438C67.1688 61.4688 69.6531 55.3438 74.6219 50.4688C79.6219 45.5938 85.9344 43.1562 93.5594 43.1562C101.403 43.1562 107.591 45.625 112.122 50.5625C116.653 55.5 118.919 62.2656 118.919 70.8594V71.6562ZM134.757 92V19.3438H151.491V92H134.757ZM202.673 62.2344C202.361 59.5469 201.329 57.3906 199.579 55.7656C197.861 54.1406 195.736 53.3281 193.204 53.3281C190.486 53.3281 188.314 54.0781 186.689 55.5781C185.095 57.0469 184.033 59.2656 183.501 62.2344H202.673ZM219.126 71.6562H183.126C183.158 75.3125 184.095 78.1406 185.939 80.1406C187.783 82.1094 190.392 83.0938 193.767 83.0938C196.298 83.0938 198.423 82.625 200.142 81.6875C201.892 80.7188 203.22 79.2969 204.126 77.4219L216.689 82.4844C215.189 86.1094 212.533 88.9062 208.72 90.875C204.908 92.8438 200.236 93.8281 194.704 93.8281C186.454 93.8281 179.829 91.5469 174.829 86.9844C169.861 82.3906 167.376 76.3438 167.376 68.8438C167.376 61.4688 169.861 55.3438 174.829 50.4688C179.829 45.5938 186.142 43.1562 193.767 43.1562C201.611 43.1562 207.798 45.625 212.329 50.5625C216.861 55.5 219.126 62.2656 219.126 70.8594V71.6562ZM268.48 60.2188C266.855 58.7812 265.293 57.7344 263.793 57.0781C262.293 56.4219 260.714 56.0938 259.058 56.0938C255.746 56.0938 253.105 57.1875 251.136 59.375C249.199 61.5625 248.23 64.5312 248.23 68.2812C248.23 71.9062 249.246 74.7969 251.277 76.9531C253.308 79.1094 256.043 80.1875 259.48 80.1875C261.168 80.1875 262.746 79.8594 264.214 79.2031C265.714 78.5156 267.136 77.4688 268.48 76.0625V90.5469C266.48 91.6719 264.48 92.5 262.48 93.0312C260.48 93.5625 258.418 93.8281 256.293 93.8281C249.011 93.8281 243.105 91.5 238.574 86.8438C234.074 82.1562 231.824 76 231.824 68.375C231.824 60.9688 234.121 54.9219 238.714 50.2344C243.339 45.5156 249.261 43.1562 256.48 43.1562C258.886 43.1562 261.058 43.3906 262.996 43.8594C264.933 44.3281 266.761 45.0781 268.48 46.1094V60.2188ZM287.084 92V56.4688H280.006V44.6562H287.084V30.5469H303.537V44.6562H310.615V56.4688H303.537V92H287.084ZM371.119 92V39.5938H355.744V23.375H405.198V39.5938H389.823V92H371.119ZM444.708 68.4688C444.708 64.9375 443.817 62.1562 442.036 60.125C440.254 58.0938 437.848 57.0781 434.817 57.0781C431.754 57.0781 429.333 58.0938 427.551 60.125C425.801 62.1562 424.926 64.9375 424.926 68.4688C424.926 72 425.801 74.7812 427.551 76.8125C429.301 78.8125 431.723 79.8125 434.817 79.8125C437.879 79.8125 440.286 78.8125 442.036 76.8125C443.817 74.7812 444.708 72 444.708 68.4688ZM461.301 68.4688C461.301 71.875 460.629 75.1094 459.286 78.1719C457.973 81.2344 456.051 83.9844 453.52 86.4219C450.958 88.8594 448.083 90.7031 444.895 91.9531C441.739 93.2031 438.379 93.8281 434.817 93.8281C431.192 93.8281 427.786 93.2031 424.598 91.9531C421.442 90.7031 418.614 88.8594 416.114 86.4219C413.614 84.0469 411.708 81.3281 410.395 78.2656C409.083 75.1719 408.426 71.9062 408.426 68.4688C408.426 65 409.067 61.7344 410.348 58.6719C411.661 55.6094 413.583 52.8594 416.114 50.4219C418.583 48.0156 421.395 46.2031 424.551 44.9844C427.739 43.7656 431.161 43.1562 434.817 43.1562C438.473 43.1562 441.879 43.7656 445.036 44.9844C448.192 46.2031 451.02 48.0156 453.52 50.4219C456.083 52.8906 458.02 55.6562 459.333 58.7188C460.645 61.7812 461.301 65.0312 461.301 68.4688ZM476.764 92V19.3438H493.171V65.3281L510.374 44.6562H531.092L509.811 67.4375L533.014 92H511.03L493.171 70.9531V92H476.764ZM573.181 62.2344C572.868 59.5469 571.837 57.3906 570.087 55.7656C568.368 54.1406 566.243 53.3281 563.712 53.3281C560.993 53.3281 558.821 54.0781 557.196 55.5781C555.602 57.0469 554.54 59.2656 554.009 62.2344H573.181ZM589.634 71.6562H553.634C553.665 75.3125 554.602 78.1406 556.446 80.1406C558.29 82.1094 560.899 83.0938 564.274 83.0938C566.806 83.0938 568.931 82.625 570.649 81.6875C572.399 80.7188 573.727 79.2969 574.634 77.4219L587.196 82.4844C585.696 86.1094 583.04 88.9062 579.227 90.875C575.415 92.8438 570.743 93.8281 565.212 93.8281C556.962 93.8281 550.337 91.5469 545.337 86.9844C540.368 82.3906 537.884 76.3438 537.884 68.8438C537.884 61.4688 540.368 55.3438 545.337 50.4688C550.337 45.5938 556.649 43.1562 564.274 43.1562C572.118 43.1562 578.306 45.625 582.837 50.5625C587.368 55.5 589.634 62.2656 589.634 70.8594V71.6562ZM605.003 92V44.6562H620.284V54.2656C622.503 50.4219 625.066 47.6094 627.972 45.8281C630.878 44.0469 634.362 43.1562 638.425 43.1562C641.487 43.1562 644.206 43.6562 646.581 44.6562C648.987 45.625 650.941 47.0312 652.441 48.875C653.691 50.4688 654.581 52.4062 655.112 54.6875C655.644 56.9688 655.909 60.375 655.909 64.9062V92H639.175V66.6406C639.175 62.8594 638.55 60.1094 637.3 58.3906C636.081 56.6719 634.112 55.8125 631.394 55.8125C627.925 55.8125 625.394 57.0938 623.8 59.6562C622.206 62.2188 621.409 66.375 621.409 72.125V92H605.003ZM669.076 88.0625L672.544 75.3125C674.982 77.4375 677.654 79.0781 680.56 80.2344C683.497 81.3594 686.451 81.9219 689.419 81.9219C691.513 81.9219 693.107 81.5938 694.201 80.9375C695.294 80.25 695.841 79.2656 695.841 77.9844C695.841 75.8906 693.638 74.3281 689.232 73.2969C687.794 72.9531 686.638 72.6562 685.763 72.4062C680.763 71.0312 677.122 69.2344 674.841 67.0156C672.591 64.7656 671.466 61.8594 671.466 58.2969C671.466 53.7031 673.185 50.0312 676.622 47.2812C680.091 44.5312 684.779 43.1562 690.685 43.1562C693.716 43.1562 696.794 43.5156 699.919 44.2344C703.076 44.9219 706.294 46 709.576 47.4688L706.107 58.9531C703.888 57.4531 701.638 56.3125 699.357 55.5312C697.076 54.75 694.794 54.3594 692.513 54.3594C690.607 54.3594 689.169 54.6562 688.201 55.25C687.232 55.8438 686.747 56.7031 686.747 57.8281C686.747 59.5156 688.935 60.9375 693.31 62.0938C694.31 62.375 695.06 62.5781 695.56 62.7031C701.341 64.3594 705.357 66.3125 707.607 68.5625C709.888 70.7812 711.029 73.7969 711.029 77.6094C711.029 82.4531 709.169 86.375 705.451 89.375C701.732 92.3438 696.81 93.8281 690.685 93.8281C686.529 93.8281 682.669 93.3438 679.107 92.375C675.544 91.4375 672.201 90 669.076 88.0625Z" fill="#28150D"/>
</g>
<defs>
<filter id="filter0_d_5_1646" x="0.0820312" y="19.3438" width="714.945" height="82.4844" filterUnits="userSpaceOnUse" color-interpolation-filters="sRGB">
<feFlood flood-opacity="0" result="BackgroundImageFix"/>
<feColorMatrix in="SourceAlpha" type="matrix" values="0 0 0 0 0 0 0 0 0 0 0 0 0 0 0 0 0 0 127 0" result="hardAlpha"/>
<feOffset dy="4"/>
<feGaussianBlur stdDeviation="2"/>
<feComposite in2="hardAlpha" operator="out"/>
<feColorMatrix type="matrix" values="0 0 0 0 0 0 0 0 0 0 0 0 0 0 0 0 0 0 0.25 0"/>
<feBlend mode="normal" in2="BackgroundImageFix" result="effect1_dropShadow_5_1646"/>
<feBlend mode="normal" in="SourceGraphic" in2="effect1_dropShadow_5_1646" result="shape"/>
</filter>
</defs>
</svg>
