<svg width="66" height="66" viewBox="0 0 66 66" fill="none" xmlns="http://www.w3.org/2000/svg">
<g clip-path="url(#clip0_17_7823)">
<rect width="66" height="66" rx="33" fill="#44301E"/>
<path d="M50.7638 38.5386C51.6474 38.5386 52.4947 38.8887 53.1194 39.5119C53.7442 40.1352 54.0952 40.9804 54.0952 41.8618V50.7236C54.0952 52.1926 53.5102 53.6013 52.469 54.64C51.4277 55.6787 50.0155 56.2623 48.543 56.2623H17.4506C15.9781 56.2623 14.5659 55.6787 13.5246 54.64C12.4834 53.6013 11.8984 52.1926 11.8984 50.7236V41.8618C11.8984 40.9804 12.2494 40.1352 12.8742 39.5119C13.4989 38.8887 14.3462 38.5386 15.2298 38.5386C16.1133 38.5386 16.9606 38.8887 17.5854 39.5119C18.2101 40.1352 18.5611 40.9804 18.5611 41.8618V49.6159H47.4325V41.8618C47.4325 40.9804 47.7835 40.1352 48.4082 39.5119C49.033 38.8887 49.8803 38.5386 50.7638 38.5386ZM32.9968 9.73767C33.8803 9.73767 34.7277 10.0878 35.3524 10.711C35.9771 11.3342 36.3281 12.1795 36.3281 13.0609V33.0797L40.0636 29.3533C40.6937 28.7585 41.5315 28.4324 42.3989 28.4442C43.2663 28.456 44.0949 28.8049 44.7084 29.4167C45.322 30.0284 45.6721 30.8548 45.6844 31.7201C45.6967 32.5854 45.3701 33.4213 44.7741 34.0501L35.744 43.0604C35.0152 43.7869 34.0271 44.195 32.9968 44.195C31.9665 44.195 30.9784 43.7869 30.2496 43.0604L21.2195 34.0523C20.6126 33.4255 20.2769 32.5861 20.2845 31.7148C20.292 30.8434 20.6424 30.01 21.2601 29.3938C21.8777 28.7777 22.7132 28.4282 23.5867 28.4206C24.4602 28.413 25.3017 28.748 25.93 29.3533L29.6655 33.0797V13.0609C29.6655 12.1795 30.0165 11.3342 30.6412 10.711C31.2659 10.0878 32.1133 9.73767 32.9968 9.73767Z" fill="#FFDBAA"/>
</g>
<defs>
<clipPath id="clip0_17_7823">
<rect width="66" height="66" rx="33" fill="white"/>
</clipPath>
</defs>
</svg>
