<svg width="58" height="494" viewBox="0 0 58 494" fill="none" xmlns="http://www.w3.org/2000/svg">
<path d="M42 416.919L22.3477 416.919L22.3477 422.685L16.2656 422.685L16.2656 404.14L22.3477 404.14L22.3477 409.906L42 409.906L42 416.919ZM42 401.134L14.7539 401.134L14.7539 394.982L24.3164 394.982C24.9492 394.982 25.5352 394.999 26.0742 395.034C26.6133 395.07 27.0996 395.122 27.5332 395.193C26.209 394.407 25.2363 393.482 24.6152 392.415C23.9941 391.349 23.6836 390.077 23.6836 388.601C23.6836 387.452 23.8711 386.433 24.2461 385.542C24.6094 384.64 25.1367 383.907 25.8281 383.345C26.4258 382.876 27.1523 382.542 28.0078 382.343C28.8633 382.144 30.1406 382.044 31.8398 382.044L42 382.044L42 388.32L32.4902 388.32C31.0723 388.32 30.041 388.554 29.3965 389.023C28.752 389.48 28.4297 390.218 28.4297 391.238C28.4297 392.538 28.9102 393.488 29.8711 394.085C30.832 394.683 32.3906 394.982 34.5469 394.982L42 394.982L42 401.134ZM30.8379 365.38C29.8301 365.497 29.0215 365.884 28.4121 366.54C27.8027 367.185 27.498 367.982 27.498 368.931C27.498 369.95 27.7793 370.765 28.3418 371.374C28.8926 371.972 29.7246 372.37 30.8379 372.57L30.8379 365.38ZM34.3711 359.21L34.3711 372.71C35.7422 372.698 36.8027 372.347 37.5527 371.656C38.291 370.964 38.6602 369.986 38.6602 368.72C38.6602 367.771 38.4844 366.974 38.1328 366.329C37.7695 365.673 37.2363 365.175 36.5332 364.835L38.4316 360.124C39.791 360.687 40.8398 361.683 41.5781 363.113C42.3164 364.542 42.6855 366.294 42.6855 368.368C42.6855 371.462 41.8301 373.947 40.1191 375.822C38.3965 377.685 36.1289 378.616 33.3164 378.616C30.5508 378.616 28.2539 377.685 26.4258 375.822C24.5977 373.947 23.6836 371.579 23.6836 368.72C23.6836 365.779 24.6094 363.458 26.4609 361.759C28.3125 360.06 30.8496 359.21 34.0723 359.21L34.3711 359.21ZM42 343.882L16.2656 343.882L16.2656 338.521C16.2656 334.525 16.4531 331.7 16.8281 330.048C17.2031 328.384 17.8301 326.925 18.709 325.671C19.8457 324.042 21.3047 322.806 23.0859 321.962C24.8555 321.118 26.8769 320.697 29.1504 320.697C31.4238 320.697 33.4512 321.118 35.2324 321.962C37.0019 322.806 38.4551 324.042 39.5918 325.671C40.459 326.913 41.0801 328.331 41.4551 329.925C41.8184 331.519 42 333.991 42 337.343L42 338.521L42 343.882ZM36.2344 336.939L36.2344 335.761C36.2344 333.007 35.6719 330.997 34.5469 329.732C33.4102 328.466 31.6113 327.833 29.1504 327.833C26.6894 327.833 24.8848 328.466 23.7363 329.732C22.5879 330.997 22.0137 333.007 22.0137 335.761L22.0137 336.939L36.2344 336.939ZM30.8379 304.49C29.8301 304.607 29.0215 304.993 28.4121 305.65C27.8027 306.294 27.498 307.091 27.498 308.04C27.498 309.06 27.7793 309.874 28.3418 310.484C28.8926 311.081 29.7246 311.48 30.8379 311.679L30.8379 304.49ZM34.3711 298.32L34.3711 311.82C35.7422 311.808 36.8027 311.456 37.5527 310.765C38.291 310.073 38.6602 309.095 38.6602 307.829C38.6602 306.88 38.4844 306.083 38.1328 305.439C37.7695 304.782 37.2363 304.284 36.5332 303.945L38.4316 299.234C39.791 299.796 40.8398 300.792 41.5781 302.222C42.3164 303.652 42.6855 305.404 42.6855 307.478C42.6855 310.572 41.8301 313.056 40.1191 314.931C38.3965 316.794 36.1289 317.726 33.3164 317.726C30.5508 317.726 28.2539 316.794 26.4258 314.931C24.5977 313.056 23.6836 310.689 23.6836 307.829C23.6836 304.888 24.6094 302.568 26.4609 300.868C28.3125 299.169 30.8496 298.32 34.0723 298.32L34.3711 298.32ZM30.082 281.972C29.543 282.581 29.1504 283.167 28.9043 283.73C28.6582 284.292 28.5352 284.884 28.5352 285.505C28.5352 286.747 28.9453 287.738 29.7656 288.476C30.5859 289.202 31.6992 289.566 33.1055 289.566C34.4648 289.566 35.5488 289.185 36.3574 288.423C37.166 287.661 37.5703 286.636 37.5703 285.347C37.5703 284.714 37.4473 284.122 37.2012 283.572C36.9434 283.009 36.5508 282.476 36.0234 281.972L41.4551 281.972C41.8769 282.722 42.1875 283.472 42.3867 284.222C42.5859 284.972 42.6855 285.745 42.6855 286.542C42.6855 289.273 41.8125 291.488 40.0664 293.187C38.3086 294.874 36 295.718 33.1406 295.718C30.3633 295.718 28.0957 294.857 26.3379 293.134C24.5684 291.4 23.6836 289.179 23.6836 286.472C23.6836 285.57 23.7715 284.755 23.9473 284.029C24.123 283.302 24.4043 282.616 24.791 281.972L30.082 281.972ZM18.709 278.263C17.7598 278.263 16.9512 277.929 16.2832 277.261C15.6152 276.581 15.2812 275.767 15.2812 274.818C15.2812 273.833 15.6094 273.013 16.2656 272.357C16.9219 271.689 17.7363 271.355 18.709 271.355C19.6816 271.355 20.5078 271.695 21.1875 272.374C21.8672 273.042 22.207 273.857 22.207 274.818C22.207 275.755 21.8613 276.564 21.1699 277.243C20.4785 277.923 19.6582 278.263 18.709 278.263ZM42 277.947L24.2461 277.947L24.2461 271.671L42 271.671L42 277.947ZM40.5234 268.525L35.7422 267.224C36.5391 266.31 37.1543 265.308 37.5879 264.218C38.0098 263.116 38.2207 262.009 38.2207 260.896C38.2207 260.111 38.0976 259.513 37.8516 259.103C37.5937 258.693 37.2246 258.488 36.7441 258.488C35.959 258.488 35.373 259.314 34.9863 260.966C34.8574 261.505 34.7461 261.939 34.6523 262.267C34.1367 264.142 33.4629 265.507 32.6309 266.363C31.7871 267.206 30.6973 267.628 29.3613 267.628C27.6387 267.628 26.2617 266.984 25.2305 265.695C24.1992 264.394 23.6836 262.636 23.6836 260.421C23.6836 259.284 23.8184 258.13 24.0879 256.958C24.3457 255.775 24.75 254.568 25.3008 253.337L29.6074 254.638C29.0449 255.47 28.6172 256.314 28.3242 257.169C28.0312 258.025 27.8848 258.88 27.8848 259.736C27.8848 260.45 27.9961 260.99 28.2187 261.353C28.4414 261.716 28.7637 261.898 29.1855 261.898C29.8184 261.898 30.3516 261.077 30.7851 259.437C30.8906 259.062 30.9668 258.781 31.0137 258.593C31.6348 256.425 32.3672 254.919 33.2109 254.075C34.043 253.22 35.1738 252.792 36.6035 252.792C38.4199 252.792 39.8906 253.49 41.0156 254.884C42.1289 256.279 42.6855 258.124 42.6855 260.421C42.6855 261.98 42.5039 263.427 42.1406 264.763C41.7891 266.099 41.25 267.353 40.5234 268.525ZM18.709 249.575C17.7598 249.575 16.9512 249.241 16.2832 248.573C15.6152 247.894 15.2812 247.079 15.2812 246.13C15.2812 245.146 15.6094 244.325 16.2656 243.669C16.9219 243.001 17.7363 242.667 18.709 242.667C19.6816 242.667 20.5078 243.007 21.1875 243.687C21.8672 244.355 22.207 245.169 22.207 246.13C22.207 247.068 21.8613 247.876 21.1699 248.556C20.4785 249.236 19.6582 249.575 18.709 249.575ZM42 249.259L24.2461 249.259L24.2461 242.984L42 242.984L42 249.259ZM33.1758 225.581C31.8516 225.581 30.8086 225.915 30.0469 226.583C29.2851 227.251 28.9043 228.154 28.9043 229.29C28.9043 230.439 29.2851 231.347 30.0469 232.015C30.8086 232.671 31.8516 232.999 33.1758 232.999C34.5 232.999 35.543 232.671 36.3047 232.015C37.0547 231.359 37.4297 230.45 37.4297 229.29C37.4297 228.142 37.0547 227.24 36.3047 226.583C35.543 225.915 34.5 225.581 33.1758 225.581ZM33.1758 219.359C34.4531 219.359 35.666 219.611 36.8144 220.115C37.9629 220.607 38.9941 221.327 39.9082 222.277C40.8223 223.238 41.5137 224.316 41.9824 225.511C42.4512 226.695 42.6855 227.954 42.6855 229.29C42.6855 230.65 42.4512 231.927 41.9824 233.122C41.5137 234.306 40.8223 235.366 39.9082 236.304C39.0176 237.241 37.998 237.956 36.8496 238.448C35.6894 238.941 34.4648 239.187 33.1758 239.187C31.875 239.187 30.6504 238.947 29.5019 238.466C28.3535 237.974 27.3223 237.253 26.4082 236.304C25.5059 235.378 24.8262 234.323 24.3691 233.14C23.9121 231.945 23.6836 230.661 23.6836 229.29C23.6836 227.919 23.9121 226.642 24.3691 225.458C24.8262 224.275 25.5059 223.214 26.4082 222.277C27.334 221.316 28.3711 220.589 29.5195 220.097C30.668 219.605 31.8867 219.359 33.1758 219.359ZM42 215.755L24.2461 215.755L24.2461 210.025L27.8496 210.025C26.4082 209.193 25.3535 208.232 24.6855 207.142C24.0176 206.052 23.6836 204.745 23.6836 203.222C23.6836 202.073 23.8711 201.054 24.2461 200.163C24.6094 199.261 25.1367 198.529 25.8281 197.966C26.4258 197.497 27.1523 197.163 28.0078 196.964C28.8633 196.765 30.1406 196.665 31.8398 196.665L42 196.665L42 202.941L32.4902 202.941C31.0723 202.941 30.041 203.175 29.3965 203.644C28.7519 204.101 28.4297 204.839 28.4297 205.859C28.4297 207.159 28.9101 208.109 29.8711 208.706C30.832 209.304 32.3906 209.603 34.5469 209.603L42 209.603L42 215.755ZM42 180.335L16.2656 180.335L16.2656 173.251L42 173.251L42 180.335ZM42 144.511L32.3144 144.511C30.7793 144.511 29.7187 144.704 29.1328 145.091C28.5469 145.466 28.2539 146.122 28.2539 147.06C28.2539 148.232 28.6641 149.046 29.4844 149.503C30.293 149.96 31.957 150.189 34.4766 150.189L42 150.189L42 156.236L32.3144 156.236C30.7558 156.236 29.6894 156.423 29.1152 156.798C28.541 157.173 28.2539 157.829 28.2539 158.767C28.2539 159.939 28.6582 160.759 29.4668 161.228C30.2637 161.697 31.9336 161.931 34.4766 161.931L42 161.931L42 168.013L24.2461 168.013L24.2461 161.861L27.3398 161.861C26.0859 161.122 25.166 160.273 24.5801 159.312C23.9824 158.339 23.6836 157.197 23.6836 155.884C23.6836 154.443 23.9648 153.265 24.5273 152.351C25.0781 151.425 25.9101 150.763 27.0234 150.365C25.8984 149.673 25.0605 148.829 24.5098 147.833C23.959 146.837 23.6836 145.665 23.6836 144.318C23.6836 143.251 23.8652 142.32 24.2285 141.523C24.5801 140.714 25.1133 140.04 25.8281 139.501C26.3906 139.068 27.0469 138.763 27.7969 138.587C28.5469 138.4 29.7656 138.306 31.4531 138.306L31.8398 138.306L42 138.306L42 144.511ZM33.1758 128.286C34.5586 128.286 35.6484 127.929 36.4453 127.214C37.2422 126.488 37.6406 125.491 37.6406 124.226C37.6406 122.96 37.2422 121.964 36.4453 121.238C35.6484 120.499 34.5586 120.13 33.1758 120.13C31.793 120.13 30.7031 120.493 29.9062 121.22C29.1094 121.947 28.7109 122.948 28.7109 124.226C28.7109 125.491 29.1094 126.488 29.9062 127.214C30.7031 127.929 31.793 128.286 33.1758 128.286ZM49.8398 133.841L24.2461 133.841L24.2461 128.075L27.2344 128.075C26.039 127.279 25.1484 126.382 24.5625 125.386C23.9765 124.39 23.6836 123.282 23.6836 122.064C23.6836 119.568 24.539 117.581 26.25 116.105C27.9492 114.628 30.2578 113.89 33.1758 113.89C36.0117 113.89 38.3086 114.628 40.0664 116.105C41.8125 117.57 42.6855 119.486 42.6855 121.853C42.6855 123.353 42.4101 124.577 41.8594 125.527C41.3086 126.464 40.4004 127.302 39.1348 128.04C39.4863 127.982 39.914 127.941 40.418 127.917C40.9219 127.882 41.543 127.865 42.2812 127.865L49.8398 127.865L49.8398 133.841ZM33.1055 96.5754C31.7226 96.5754 30.6269 96.9446 29.8183 97.6829C29.0098 98.4211 28.6055 99.429 28.6055 100.706C28.6055 101.984 29.0098 102.991 29.8183 103.73C30.6152 104.456 31.7109 104.82 33.1055 104.82C34.4883 104.82 35.5781 104.45 36.375 103.712C37.1719 102.974 37.5703 101.972 37.5703 100.706C37.5703 99.429 37.1719 98.4211 36.375 97.6829C35.5781 96.9446 34.4883 96.5754 33.1055 96.5754ZM24.2461 91.0735L42 91.0735L42 96.8215L39.1172 96.8215C40.3476 97.6418 41.25 98.5676 41.8242 99.5989C42.3984 100.618 42.6855 101.82 42.6855 103.202C42.6855 105.57 41.8242 107.462 40.1015 108.88C38.3672 110.298 36.0469 111.007 33.1406 111.007C30.2461 111.007 27.9492 110.269 26.25 108.792C24.539 107.304 23.6836 105.306 23.6836 102.798C23.6836 101.462 23.9707 100.314 24.5449 99.3528C25.1074 98.3801 25.9805 97.5481 27.164 96.8567L24.2461 96.8567L24.2461 91.0735ZM30.082 73.6008C29.543 74.2102 29.1504 74.7961 28.9043 75.3586C28.6582 75.9211 28.5351 76.5129 28.5351 77.134C28.5351 78.3762 28.9453 79.3665 29.7656 80.1047C30.5859 80.8313 31.6992 81.1946 33.1055 81.1946C34.4648 81.1946 35.5488 80.8137 36.3574 80.052C37.166 79.2903 37.5703 78.2649 37.5703 76.9758C37.5703 76.343 37.4473 75.7512 37.2012 75.2004C36.9433 74.6379 36.5508 74.1047 36.0234 73.6008L41.4551 73.6008C41.8769 74.3508 42.1875 75.1008 42.3867 75.8508C42.5859 76.6008 42.6855 77.3743 42.6855 78.1711C42.6855 80.9016 41.8125 83.1165 40.0664 84.8157C38.3086 86.5032 36 87.3469 33.1406 87.3469C30.3633 87.3469 28.0957 86.4856 26.3379 84.7629C24.5683 83.0286 23.6836 80.8079 23.6836 78.1008C23.6836 77.1985 23.7715 76.384 23.9473 75.6575C24.123 74.9309 24.4043 74.2454 24.791 73.6008L30.082 73.6008ZM42 68.7844L28.6758 68.7844L28.6758 71.4387L24.2461 71.4387L24.2461 68.7844L18.9551 68.7844L18.9551 62.6145L24.2461 62.6145L24.2461 59.9602L28.6758 59.9602L28.6758 62.6145L42 62.6145L42 68.7844Z" fill="#F9E3B6"/>
<path d="M16.9922 24.0941H26.6589L26.6589 45.6507L31.5164 45.7232L31.5164 24.0941L41.1589 24.0941L29.0755 12.0107L16.9922 24.0941Z" fill="#F9E3B6"/>
<path d="M16.9922 469.906H26.6589L26.6589 448.349L31.5164 448.277L31.5164 469.906H41.1589L29.0755 481.989L16.9922 469.906Z" fill="#F9E3B6"/>
</svg>
