<svg width="58" height="498" viewBox="0 0 58 498" fill="none" xmlns="http://www.w3.org/2000/svg">
<path d="M15 72.7043L34.6523 72.7043L34.6523 66.9387L40.7344 66.9387L40.7344 85.4836L34.6523 85.4836L34.6523 79.718L15 79.718L15 72.7043ZM15 88.4895L42.2461 88.4895L42.2461 94.6418L32.6836 94.6418C32.0508 94.6418 31.4648 94.6243 30.9258 94.5891C30.3867 94.554 29.9004 94.5012 29.4668 94.4309C30.791 95.2161 31.7637 96.1418 32.3848 97.2083C33.0059 98.2747 33.3164 99.5461 33.3164 101.023C33.3164 102.171 33.1289 103.191 32.7539 104.081C32.3906 104.984 31.8633 105.716 31.1719 106.279C30.5742 106.747 29.8477 107.081 28.9922 107.281C28.1367 107.48 26.8594 107.579 25.1602 107.579L15 107.579L15 101.304L24.5098 101.304C25.9277 101.304 26.959 101.07 27.6035 100.601C28.248 100.144 28.5703 99.4055 28.5703 98.386C28.5703 97.0852 28.0898 96.136 27.1289 95.5383C26.168 94.9407 24.6094 94.6418 22.4531 94.6418L15 94.6418L15 88.4895ZM26.1621 124.243C27.1699 124.126 27.9785 123.74 28.5879 123.083C29.1973 122.439 29.502 121.642 29.502 120.693C29.502 119.673 29.2207 118.859 28.6582 118.249C28.1074 117.652 27.2754 117.253 26.1621 117.054L26.1621 124.243ZM22.6289 130.413L22.6289 116.913C21.2578 116.925 20.1973 117.277 19.4473 117.968C18.709 118.659 18.3398 119.638 18.3398 120.904C18.3398 121.853 18.5156 122.65 18.8672 123.294C19.2305 123.95 19.7637 124.448 20.4668 124.788L18.5684 129.499C17.209 128.937 16.1602 127.941 15.4219 126.511C14.6836 125.081 14.3145 123.329 14.3145 121.255C14.3145 118.161 15.1699 115.677 16.8809 113.802C18.6035 111.939 20.8711 111.007 23.6836 111.007C26.4492 111.007 28.7461 111.939 30.5742 113.802C32.4023 115.677 33.3164 118.044 33.3164 120.904C33.3164 123.845 32.3906 126.165 30.5391 127.865C28.6875 129.564 26.1504 130.413 22.9277 130.413L22.6289 130.413ZM15 145.741L40.7344 145.741L40.7344 152.685L29.0449 152.685L40.7344 160.823L40.7344 168.997L28.1836 159.488L15 169.823L15 161.07L26.5488 152.685L15 152.685L15 145.741ZM23.8945 184.958C25.2773 184.958 26.373 184.589 27.1816 183.851C27.9902 183.113 28.3945 182.105 28.3945 180.827C28.3945 179.55 27.9902 178.542 27.1816 177.804C26.3848 177.077 25.2891 176.714 23.8945 176.714C22.5117 176.714 21.4219 177.083 20.625 177.822C19.8281 178.56 19.4297 179.562 19.4297 180.827C19.4297 182.105 19.8281 183.113 20.625 183.851C21.4219 184.589 22.5117 184.958 23.8945 184.958ZM32.7539 190.46L15 190.46L15 184.712L17.8828 184.712C16.6523 183.892 15.75 182.966 15.1758 181.935C14.6016 180.915 14.3144 179.714 14.3144 178.331C14.3144 175.964 15.1758 174.072 16.8984 172.654C18.6328 171.236 20.9531 170.527 23.8594 170.527C26.7539 170.527 29.0508 171.265 30.75 172.741C32.4609 174.23 33.3164 176.228 33.3164 178.736C33.3164 180.072 33.0293 181.22 32.4551 182.181C31.8926 183.154 31.0195 183.986 29.8359 184.677L32.7539 184.677L32.7539 190.46ZM15 195.224L32.7539 195.224L32.7539 201.13L28.5703 201.13C30.0937 201.74 31.2363 202.572 31.998 203.626C32.7598 204.681 33.1406 205.958 33.1406 207.458C33.1406 207.704 33.1289 207.95 33.1055 208.197C33.0937 208.454 33.0703 208.712 33.0351 208.97L27.3398 208.372C27.4687 207.997 27.5625 207.628 27.6211 207.265C27.6797 206.902 27.709 206.55 27.709 206.21C27.709 204.687 27.2402 203.509 26.3027 202.677C25.3769 201.857 24.0586 201.447 22.3477 201.447L15 201.447L15 195.224ZM15 234.792L24.6855 234.792C26.2207 234.792 27.2812 234.599 27.8672 234.212C28.4531 233.837 28.7461 233.181 28.7461 232.243C28.7461 231.072 28.3359 230.257 27.5156 229.8C26.707 229.343 25.043 229.115 22.5234 229.115L15 229.115L15 223.068L24.6855 223.068C26.2441 223.068 27.3105 222.88 27.8848 222.505C28.459 222.13 28.7461 221.474 28.7461 220.536C28.7461 219.365 28.3418 218.544 27.5332 218.075C26.7363 217.607 25.0664 217.372 22.5234 217.372L15 217.372L15 211.29L32.7539 211.29L32.7539 217.443L29.6601 217.443C30.9141 218.181 31.834 219.031 32.4199 219.991C33.0176 220.964 33.3164 222.107 33.3164 223.419C33.3164 224.861 33.0351 226.038 32.4726 226.952C31.9219 227.878 31.0898 228.54 29.9766 228.939C31.1016 229.63 31.9394 230.474 32.4902 231.47C33.041 232.466 33.3164 233.638 33.3164 234.986C33.3164 236.052 33.1348 236.984 32.7715 237.781C32.4199 238.589 31.8867 239.263 31.1719 239.802C30.6094 240.236 29.9531 240.54 29.2031 240.716C28.4531 240.904 27.2344 240.997 25.5469 240.997L25.1601 240.997L15 240.997L15 234.792ZM38.291 245.286C39.2402 245.286 40.0488 245.62 40.7168 246.288C41.3848 246.968 41.7187 247.782 41.7187 248.732C41.7187 249.716 41.3906 250.536 40.7344 251.193C40.0781 251.861 39.2637 252.195 38.291 252.195C37.3184 252.195 36.4922 251.855 35.8125 251.175C35.1328 250.507 34.793 249.693 34.793 248.732C34.793 247.794 35.1387 246.986 35.8301 246.306C36.5215 245.626 37.3418 245.286 38.291 245.286ZM15 245.603L32.7539 245.603L32.7539 251.878L15 251.878L15 245.603ZM26.918 269.421C27.457 268.812 27.8496 268.226 28.0957 267.663C28.3418 267.101 28.4648 266.509 28.4648 265.888C28.4648 264.646 28.0547 263.656 27.2344 262.917C26.4141 262.191 25.3008 261.827 23.8945 261.827C22.5351 261.827 21.4512 262.208 20.6426 262.97C19.834 263.732 19.4297 264.757 19.4297 266.046C19.4297 266.679 19.5527 267.271 19.7988 267.822C20.0566 268.384 20.4492 268.917 20.9766 269.421L15.5449 269.421C15.123 268.671 14.8125 267.921 14.6133 267.171C14.4141 266.421 14.3144 265.648 14.3144 264.851C14.3144 262.12 15.1875 259.906 16.9336 258.206C18.6914 256.519 21 255.675 23.8594 255.675C26.6367 255.675 28.9043 256.536 30.6621 258.259C32.4316 259.993 33.3164 262.214 33.3164 264.921C33.3164 265.823 33.2285 266.638 33.0527 267.365C32.8769 268.091 32.5957 268.777 32.209 269.421L26.918 269.421ZM40.7344 290.058L40.7344 297.054L24.0351 297.054C22.2187 297.054 20.8242 296.937 19.8516 296.702C18.8789 296.468 18.0176 296.081 17.2676 295.542C16.2949 294.827 15.5566 293.948 15.0527 292.906C14.5605 291.863 14.3144 290.691 14.3144 289.39C14.3144 287.773 14.6601 286.331 15.3516 285.066C16.043 283.8 17.0683 282.716 18.4277 281.814L22.3125 286.103C21.5508 286.208 20.9648 286.454 20.5547 286.841C20.1445 287.228 19.9394 287.714 19.9394 288.3C19.9394 288.968 20.3086 289.425 21.0469 289.671C21.7851 289.929 23.6308 290.058 26.584 290.058L40.7344 290.058ZM23.8242 314.421C25.1484 314.421 26.1914 314.087 26.9531 313.419C27.7148 312.751 28.0957 311.849 28.0957 310.712C28.0957 309.564 27.7148 308.656 26.9531 307.988C26.1914 307.331 25.1484 307.003 23.8242 307.003C22.5 307.003 21.457 307.331 20.6953 307.988C19.9453 308.644 19.5703 309.552 19.5703 310.712C19.5703 311.861 19.9453 312.763 20.6953 313.419C21.457 314.087 22.5 314.421 23.8242 314.421ZM23.8242 320.644C22.5469 320.644 21.334 320.392 20.1855 319.888C19.0371 319.396 18.0058 318.675 17.0918 317.726C16.1777 316.765 15.4863 315.687 15.0176 314.491C14.5488 313.308 14.3144 312.048 14.3144 310.712C14.3144 309.353 14.5488 308.075 15.0176 306.88C15.4863 305.697 16.1777 304.636 17.0918 303.698C17.9824 302.761 19.0019 302.046 20.1504 301.554C21.3105 301.062 22.5351 300.816 23.8242 300.816C25.125 300.816 26.3496 301.056 27.498 301.536C28.6465 302.029 29.6777 302.749 30.5918 303.698C31.4941 304.624 32.1738 305.679 32.6308 306.863C33.0879 308.058 33.3164 309.341 33.3164 310.712C33.3164 312.083 33.0879 313.361 32.6308 314.544C32.1738 315.728 31.4941 316.788 30.5918 317.726C29.666 318.687 28.6289 319.413 27.4805 319.906C26.332 320.398 25.1133 320.644 23.8242 320.644ZM32.7539 342.458L23.6836 342.458C21.6797 342.458 20.1914 342.294 19.2187 341.966C18.2578 341.65 17.4023 341.111 16.6523 340.349C15.8672 339.564 15.2812 338.585 14.8945 337.413C14.5078 336.241 14.3144 334.865 14.3144 333.282C14.3144 331.712 14.5078 330.341 14.8945 329.169C15.2812 328.009 15.8672 327.019 16.6523 326.198C17.3789 325.437 18.2285 324.898 19.2012 324.581C20.1855 324.265 21.6797 324.107 23.6836 324.107L32.7539 324.107L32.7539 330.083L23.2793 330.083C21.791 330.083 20.7129 330.329 20.0449 330.822C19.3887 331.314 19.0605 332.111 19.0605 333.212C19.0605 334.325 19.3828 335.122 20.0273 335.603C20.6836 336.095 21.7676 336.341 23.2793 336.341L32.7539 336.341L32.7539 342.458ZM15 346.993L32.7539 346.993L32.7539 352.9L28.5703 352.9C30.0937 353.509 31.2363 354.341 31.998 355.396C32.7598 356.45 33.1406 357.728 33.1406 359.228C33.1406 359.474 33.1289 359.72 33.1055 359.966C33.0937 360.224 33.0703 360.482 33.0351 360.74L27.3398 360.142C27.4687 359.767 27.5625 359.398 27.6211 359.034C27.6797 358.671 27.709 358.32 27.709 357.98C27.709 356.456 27.2402 355.279 26.3027 354.447C25.3769 353.626 24.0586 353.216 22.3476 353.216L15 353.216L15 346.993ZM15 363.06L32.7539 363.06L32.7539 368.79L29.1504 368.79C30.5918 369.622 31.6465 370.583 32.3144 371.673C32.9824 372.763 33.3164 374.07 33.3164 375.593C33.3164 376.741 33.1289 377.761 32.7539 378.652C32.3906 379.554 31.8633 380.286 31.1719 380.849C30.5742 381.318 29.8476 381.652 28.9922 381.851C28.1367 382.05 26.8594 382.15 25.1601 382.15L15 382.15L15 375.874L24.5098 375.874C25.9277 375.874 26.959 375.64 27.6035 375.171C28.248 374.714 28.5703 373.976 28.5703 372.956C28.5703 371.656 28.0898 370.706 27.1289 370.109C26.168 369.511 24.6094 369.212 22.4531 369.212L15 369.212L15 363.06ZM26.1621 398.814C27.1699 398.697 27.9785 398.31 28.5879 397.654C29.1973 397.009 29.5019 396.212 29.5019 395.263C29.5019 394.243 29.2207 393.429 28.6582 392.82C28.1074 392.222 27.2754 391.823 26.1621 391.624L26.1621 398.814ZM22.6289 404.984L22.6289 391.484C21.2578 391.495 20.1973 391.847 19.4473 392.538C18.709 393.23 18.3398 394.208 18.3398 395.474C18.3398 396.423 18.5156 397.22 18.8672 397.865C19.2305 398.521 19.7637 399.019 20.4668 399.359L18.5683 404.07C17.209 403.507 16.1601 402.511 15.4219 401.081C14.6836 399.652 14.3144 397.9 14.3144 395.825C14.3144 392.732 15.1699 390.247 16.8808 388.372C18.6035 386.509 20.8711 385.577 23.6836 385.577C26.4492 385.577 28.7461 386.509 30.5742 388.372C32.4023 390.247 33.3164 392.615 33.3164 395.474C33.3164 398.415 32.3906 400.736 30.539 402.435C28.6875 404.134 26.1504 404.984 22.9277 404.984L22.6289 404.984ZM7.16014 407.62L17.707 412.613L32.7539 405.458L32.7539 412.402L26.3379 414.88C25.7988 415.091 25.2949 415.267 24.8262 415.407C24.3691 415.548 23.9414 415.654 23.543 415.724C23.9648 415.794 24.3984 415.894 24.8437 416.023C25.3008 416.163 25.7988 416.339 26.3379 416.55L32.7539 419.064L32.7539 425.761L7.16014 414.599L7.16014 407.62Z" fill="#F9E3B6"/>
<path d="M16.9922 24.0941H26.6589L26.6589 45.6507L31.5164 45.7232L31.5164 24.0941L41.1589 24.0941L29.0755 12.0107L16.9922 24.0941Z" fill="#F9E3B6"/>
<path d="M16.9922 473.906H26.6589L26.6589 452.349L31.5164 452.277L31.5164 473.906H41.1589L29.0755 485.989L16.9922 473.906Z" fill="#F9E3B6"/>
</svg>
